SplineFontDB: 3.0
FontName: Gandom-Bold
FullName: Gandom Bold
FamilyName: Gandom
Weight: Bold
Copyright: Copyright (c) 2003 by Bitstream, Inc. All Rights Reserved.\nDejaVu changes are in public domain\nCopyright (c) 2015 by Saber Rastikerdar. All Rights Reserved.
Version: 0.3
ItalicAngle: 0
UnderlinePosition: -100
UnderlineWidth: 100
Ascent: 1536
Descent: 512
InvalidEm: 0
LayerCount: 2
Layer: 0 1 "Back" 1
Layer: 1 1 "Fore" 0
XUID: [1021 502 1027637223 3893233]
UniqueID: 4102483
UseUniqueID: 1
FSType: 0
OS2Version: 1
OS2_WeightWidthSlopeOnly: 0
OS2_UseTypoMetrics: 1
CreationTime: 1431850356
ModificationTime: 1453953245
PfmFamily: 17
TTFWeight: 700
TTFWidth: 5
LineGap: 0
VLineGap: 0
Panose: 2 11 6 3 3 8 4 2 2 4
OS2TypoAscent: 2000
OS2TypoAOffset: 0
OS2TypoDescent: -1000
OS2TypoDOffset: 0
OS2TypoLinegap: 0
OS2WinAscent: 2000
OS2WinAOffset: 0
OS2WinDescent: 1000
OS2WinDOffset: 0
HheadAscent: 2000
HheadAOffset: 0
HheadDescent: -1000
HheadDOffset: 0
OS2SubXSize: 1331
OS2SubYSize: 1433
OS2SubXOff: 0
OS2SubYOff: 286
OS2SupXSize: 1331
OS2SupYSize: 1433
OS2SupXOff: 0
OS2SupYOff: 983
OS2StrikeYSize: 102
OS2StrikeYPos: 530
OS2Vendor: 'PfEd'
OS2CodePages: 600001ff.dfff0000
Lookup: 1 0 0 "'case' Case-Sensitive Forms in Latin lookup 0" { "'case' Case-Sensitive Forms in Latin lookup 0 subtable"  } ['case' ('DFLT' <'dflt' > 'latn' <'CAT ' 'ESP ' 'GAL ' 'dflt' > ) ]
Lookup: 6 1 0 "'ccmp' Glyph Composition/Decomposition lookup 2" { "'ccmp' Glyph Composition/Decomposition lookup 2 subtable"  } ['ccmp' ('arab' <'KUR ' 'SND ' 'URD ' 'dflt' > 'hebr' <'dflt' > 'nko ' <'dflt' > ) ]
Lookup: 6 0 0 "'ccmp' Glyph Composition/Decomposition lookup 3" { "'ccmp' Glyph Composition/Decomposition lookup 3 subtable"  } ['ccmp' ('cyrl' <'MKD ' 'SRB ' 'dflt' > 'grek' <'dflt' > 'latn' <'ISM ' 'KSM ' 'LSM ' 'MOL ' 'NSM ' 'ROM ' 'SKS ' 'SSM ' 'dflt' > ) ]

StartChar: afii57388
Encoding: 1548 1548 2
Width: 762
VWidth: 2445
GlyphClass: 2
Flags: W
LayerCount: 2
Fore
SplineSet
436.50390625 303.8671875 m 1,0,1
 494.8046875 303.232421875 494.8046875 303.232421875 525.673828125 267.598632812 c 128,-1,2
 556.54296875 231.963867188 556.54296875 231.963867188 556.54296875 168.568359375 c 2,3,-1
 556.54296875 131.186523438 l 2,4,5
 556.587890625 71.4638671875 556.587890625 71.4638671875 523.004882812 38.8544921875 c 128,-1,6
 489.421875 6.24609375 489.421875 6.24609375 428.491210938 6.24609375 c 2,7,-1
 387.693359375 6.24609375 l 2,8,9
 345.021484375 6.2158203125 345.021484375 6.2158203125 315.740234375 21.4560546875 c 0,10,11
 284.837890625 37.5390625 284.837890625 37.5390625 269.552734375 69.84375 c 0,12,13
 255.22265625 100.127929688 255.22265625 100.127929688 255.22265625 144.400390625 c 2,14,-1
 255.22265625 214.046875 l 1,15,-1
 255.286132812 214.842773438 l 2,16,17
 276.84375 484.283203125 276.84375 484.283203125 470.9140625 649.860351562 c 2,18,-1
 480.987304688 658.454101562 l 1,19,-1
 492.833007812 652.537109375 l 2,20,21
 502.724609375 647.596679688 502.724609375 647.596679688 524.793945312 636.946289062 c 0,22,23
 535.967773438 631.5546875 535.967773438 631.5546875 543.99609375 627.638671875 c 128,-1,24
 552.025390625 623.72265625 552.025390625 623.72265625 557.03515625 621.219726562 c 2,25,-1
 580.583007812 609.458007812 l 1,26,-1
 561.975585938 588.854492188 l 2,27,28
 444.9296875 459.000976562 444.9296875 459.000976562 436.50390625 303.8671875 c 1,0,1
EndSplineSet
EndChar

StartChar: uni0615
Encoding: 1557 1557 3
Width: 0
VWidth: 2186
GlyphClass: 4
Flags: W
AnchorPoint: "Anchor-10" 547.84 1279.5 mark 0
AnchorPoint: "Anchor-9" 547.84 1279.5 mark 0
AnchorPoint: "Anchor-1" 547.84 1975 basemark 0
AnchorPoint: "Anchor-1" 547.84 1279.5 mark 0
LayerCount: 2
Fore
SplineSet
466.096 1456.96 m 1,0,-1
 552.12 1456.96 l 2,1,2
 637.933850525 1456.96 637.933850525 1456.96 692 1489.65332031 c 0,3,4
 729 1512 729 1512 728.83 1547.29506982 c 0,5,6
 728 1597 728 1597 689.03 1604.94 c 24,7,8
 665 1610 665 1610 620 1592 c 0,9,10
 553 1565 553 1565 466.096 1456.96 c 1,0,-1
814.11 1557.7 m 0,11,12
 813.999933771 1374.89 813.999933771 1374.89 576.73 1374.89 c 2,13,-1
 282.64 1374.89 l 1,14,-1
 282.64 1456.96 l 1,15,-1
 369.31 1456.96 l 1,16,-1
 369.31 1883.89 l 1,17,-1
 452.45 1883.89 l 1,18,-1
 452.450195312 1513.66992188 l 5,19,20
 526 1627 526 1627 619.878 1662.18 c 0,21,22
 686 1688 686 1688 735 1669 c 0,23,24
 814 1639 814 1639 814.11 1557.7 c 0,11,12
EndSplineSet
EndChar

StartChar: uni061B
Encoding: 1563 1563 4
Width: 747
VWidth: 2445
GlyphClass: 2
Flags: W
LayerCount: 2
Fore
SplineSet
235.3828125 152.622070312 m 0,0,1
 235.3828125 182.775390625 235.3828125 182.775390625 245.96484375 209.069335938 c 128,-1,2
 256.545898438 235.36328125 256.545898438 235.36328125 277.512695312 256.965820312 c 0,3,4
 299.633789062 278.455078125 299.633789062 278.455078125 326.198242188 289.340820312 c 128,-1,5
 352.762695312 300.2265625 352.762695312 300.2265625 382.986328125 300.2265625 c 0,6,7
 413.431640625 300.2265625 413.431640625 300.2265625 439.606445312 289.374023438 c 0,8,9
 442.897460938 288.009765625 442.897460938 288.009765625 446.124023438 286.469726562 c 128,-1,10
 449.350585938 284.9296875 449.350585938 284.9296875 452.491210938 283.224609375 c 128,-1,11
 455.631835938 281.520507812 455.631835938 281.520507812 458.700195312 279.6484375 c 128,-1,12
 461.76953125 277.77734375 461.76953125 277.77734375 464.754882812 275.744140625 c 128,-1,13
 467.740234375 273.7109375 467.740234375 273.7109375 470.646484375 271.518554688 c 128,-1,14
 473.552734375 269.327148438 473.552734375 269.327148438 476.376953125 266.975585938 c 128,-1,15
 479.200195312 264.625 479.200195312 264.625 481.9375 262.124023438 c 128,-1,16
 484.674804688 259.624023438 484.674804688 259.624023438 487.331054688 256.966796875 c 0,17,18
 530.591796875 213.70703125 530.591796875 213.70703125 530.591796875 152.622070312 c 0,19,20
 530.591796875 142.584960938 530.591796875 142.584960938 529.397460938 132.90234375 c 128,-1,21
 528.203125 123.219726562 528.203125 123.219726562 525.80078125 113.956054688 c 0,22,23
 520.56640625 94.908203125 520.56640625 94.908203125 511.30859375 78.56640625 c 0,24,25
 501.755859375 61.99609375 501.755859375 61.99609375 487.330078125 47.1474609375 c 0,26,27
 465.59765625 26.0537109375 465.59765625 26.0537109375 439.432617188 15.525390625 c 128,-1,28
 413.319335938 5.017578125 413.319335938 5.017578125 382.986328125 5.017578125 c 0,29,30
 322.192382812 5.017578125 322.192382812 5.017578125 277.875 46.802734375 c 2,31,-1
 277.446289062 47.20703125 l 1,32,-1
 277.041992188 47.6357421875 l 2,33,34
 235.3828125 91.8291015625 235.3828125 91.8291015625 235.3828125 152.622070312 c 0,0,1
411.181640625 753.4921875 m 1,35,36
 469.479492188 752.857421875 469.479492188 752.857421875 500.349609375 717.22265625 c 128,-1,37
 531.21875 681.588867188 531.21875 681.588867188 531.21875 618.193359375 c 2,38,-1
 531.21875 580.811523438 l 2,39,40
 531.263671875 521.088867188 531.263671875 521.088867188 497.680664062 488.479492188 c 128,-1,41
 464.09765625 455.87109375 464.09765625 455.87109375 403.166992188 455.87109375 c 2,42,-1
 362.370117188 455.87109375 l 2,43,44
 298.74609375 455.826171875 298.74609375 455.826171875 264.322265625 491.999023438 c 128,-1,45
 229.8984375 528.170898438 229.8984375 528.170898438 229.8984375 594.025390625 c 2,46,-1
 229.8984375 663.671875 l 1,47,48
 251.51953125 933.908203125 251.51953125 933.908203125 445.58984375 1099.48535156 c 2,49,-1
 455.663085938 1108.07910156 l 1,50,-1
 467.508789062 1102.16210938 l 2,51,52
 472.916992188 1099.4609375 472.916992188 1099.4609375 479.66796875 1096.16503906 c 128,-1,53
 486.462890625 1092.84863281 486.462890625 1092.84863281 492.946289062 1089.71972656 c 2,54,-1
 505.984375 1083.42773438 l 2,55,56
 512.540039062 1080.26464844 512.540039062 1080.26464844 519.357421875 1076.93652344 c 1,57,-1
 531.7109375 1070.84472656 l 1,58,-1
 555.234375 1059.09472656 l 1,59,-1
 537.787109375 1039.73730469 l 1,60,-1
 537.140625 1039.02050781 l 2,61,62
 419.630859375 908.653320312 419.630859375 908.653320312 411.181640625 753.4921875 c 1,35,36
EndSplineSet
EndChar

StartChar: uni061F
Encoding: 1567 1567 5
Width: 1095
VWidth: 2439
GlyphClass: 2
Flags: W
LayerCount: 2
Fore
SplineSet
480.54296875 152.622070312 m 128,-1,1
 480.54296875 213.55859375 480.54296875 213.55859375 522.672851562 256.965820312 c 0,2,3
 544.793945312 278.455078125 544.793945312 278.455078125 571.358398438 289.340820312 c 128,-1,4
 597.922851562 300.2265625 597.922851562 300.2265625 628.146484375 300.2265625 c 0,5,6
 658.591796875 300.2265625 658.591796875 300.2265625 684.766601562 289.374023438 c 128,-1,7
 710.934570312 278.5234375 710.934570312 278.5234375 732.491210938 256.966796875 c 0,8,9
 743.16796875 246.290039062 743.16796875 246.290039062 751.315429688 234.321289062 c 128,-1,10
 759.462890625 222.352539062 759.462890625 222.352539062 764.8984375 209.2421875 c 0,11,12
 775.751953125 183.067382812 775.751953125 183.067382812 775.751953125 152.622070312 c 128,-1,13
 775.751953125 122.176757812 775.751953125 122.176757812 764.8984375 96.001953125 c 128,-1,14
 754.048828125 69.8330078125 754.048828125 69.8330078125 732.491210938 48.27734375 c 128,-1,15
 710.934570312 26.720703125 710.934570312 26.720703125 684.766601562 15.8701171875 c 128,-1,16
 658.591796875 5.017578125 658.591796875 5.017578125 628.146484375 5.017578125 c 0,17,18
 567.352539062 5.017578125 567.352539062 5.017578125 523.03515625 46.802734375 c 0,19,-1
 522.202148438 47.6357421875 l 2,20,0
 480.54296875 91.8291015625 480.54296875 91.8291015625 480.54296875 152.622070312 c 128,-1,1
778.426757812 1179.38183594 m 0,21,22
 681.7734375 1381.00585938 681.7734375 1381.00585938 518.856445312 1366.26953125 c 0,23,24
 508.2890625 1365.31054688 508.2890625 1365.31054688 498.123046875 1363.29003906 c 128,-1,25
 487.990234375 1361.27636719 487.990234375 1361.27636719 478.25 1358.20507812 c 0,26,27
 475.817382812 1357.43847656 475.817382812 1357.43847656 473.408203125 1356.60546875 c 128,-1,28
 471 1355.77246094 471 1355.77246094 468.615234375 1354.87304688 c 128,-1,29
 466.23046875 1353.97460938 466.23046875 1353.97460938 463.869140625 1353.00878906 c 128,-1,30
 461.5078125 1352.04394531 461.5078125 1352.04394531 459.168945312 1351.01171875 c 0,31,32
 454.48828125 1348.94726562 454.48828125 1348.94726562 449.900390625 1346.61523438 c 128,-1,33
 445.3125 1344.28417969 445.3125 1344.28417969 440.811523438 1341.68261719 c 0,34,35
 431.784179688 1336.46484375 431.784179688 1336.46484375 423.173828125 1330.20410156 c 0,36,37
 384.89453125 1302.03027344 384.89453125 1302.03027344 365.80078125 1257.71582031 c 0,38,39
 356.079101562 1235.15429688 356.079101562 1235.15429688 351.1875 1208.16992188 c 128,-1,40
 346.296875 1181.18457031 346.296875 1181.18457031 346.389648438 1149.55273438 c 0,41,42
 346.024414062 1039.38085938 346.024414062 1039.38085938 475.10546875 919.297851562 c 1,43,-1
 581.23828125 814.342773438 l 2,44,45
 730.75390625 670.470703125 730.75390625 670.470703125 730.75390625 530.497070312 c 2,46,-1
 730.75390625 457.916015625 l 1,47,-1
 512.53515625 457.916015625 l 1,48,-1
 512.53515625 537.234375 l 2,49,50
 512.749023438 566.1328125 512.749023438 566.1328125 505.903320312 588.953125 c 0,51,52
 499.325195312 610.884765625 499.325195312 610.884765625 486.005859375 627.344726562 c 0,53,54
 475.260742188 641.09765625 475.260742188 641.09765625 463.083984375 655.149414062 c 0,55,56
 456.979492188 662.193359375 456.979492188 662.193359375 450.490234375 669.346679688 c 128,-1,57
 444 676.5 444 676.5 437.125976562 683.759765625 c 0,58,59
 423.349609375 698.307617188 423.349609375 698.307617188 408.0625 713.248046875 c 2,60,-1
 304.306640625 814.6484375 l 1,61,62
 144.993164062 964.6640625 144.993164062 964.6640625 145.19921875 1172.5546875 c 0,63,64
 145.095703125 1266.39160156 145.095703125 1266.39160156 178.236328125 1342.74609375 c 128,-1,65
 211.376953125 1419.1015625 211.376953125 1419.1015625 277.223632812 1475.96484375 c 0,66,67
 294.576171875 1491.09472656 294.576171875 1491.09472656 313.416015625 1503.77832031 c 128,-1,68
 332.254882812 1516.46191406 332.254882812 1516.46191406 352.522460938 1526.65332031 c 128,-1,69
 372.7890625 1536.84472656 372.7890625 1536.84472656 394.366210938 1544.47753906 c 0,70,71
 458.856445312 1567.28808594 458.856445312 1567.28808594 535.591796875 1567.59960938 c 0,72,73
 597.926757812 1568.02050781 597.926757812 1568.02050781 676.373046875 1539.61816406 c 0,74,75
 749.510742188 1514.10546875 749.510742188 1514.10546875 807.859375 1457.45605469 c 0,76,77
 836.791992188 1429.3671875 836.791992188 1429.3671875 861.90234375 1393.77441406 c 128,-1,78
 887.013671875 1358.18261719 887.013671875 1358.18261719 908.384765625 1315.16308594 c 2,79,-1
 908.610351562 1314.70996094 l 1,80,-1
 955.030273438 1208.05664062 l 1,81,-1
 800.025390625 1127.18457031 l 1,82,-1
 791.889648438 1147.89941406 l 2,83,84
 790.713867188 1150.890625 790.713867188 1150.890625 789.584960938 1153.69140625 c 128,-1,85
 788.455078125 1156.49121094 788.455078125 1156.49121094 787.373046875 1159.09570312 c 0,86,87
 785.208007812 1164.30664062 785.208007812 1164.30664062 783.064453125 1169.16113281 c 128,-1,88
 780.904296875 1174.05273438 780.904296875 1174.05273438 778.426757812 1179.38183594 c 0,21,22
EndSplineSet
EndChar

StartChar: uni0621
Encoding: 1569 1569 6
Width: 764
VWidth: 2309
GlyphClass: 2
Flags: W
AnchorPoint: "Anchor-7" 376.254 -213.511 basechar 0
AnchorPoint: "Anchor-10" 325.904 1049.48 basechar 0
LayerCount: 2
Fore
SplineSet
471.280273438 322.815429688 m 0,0,1
 560.842773438 322.990234375 560.842773438 322.990234375 638.359375 365.641601562 c 2,2,-1
 668.000976562 381.951171875 l 1,3,-1
 668.000976562 198.049804688 l 1,4,-1
 653.790039062 193.752929688 l 2,5,6
 404.126953125 118.260742188 404.126953125 118.260742188 103.930664062 -20.580078125 c 2,7,-1
 75.53515625 -33.712890625 l 1,8,-1
 75.53515625 139.561523438 l 1,9,-1
 85.7841796875 145.28515625 l 2,10,11
 178.1875 196.883789062 178.1875 196.883789062 259.819335938 229.333007812 c 1,12,13
 170.666992188 258.809570312 170.666992188 258.809570312 124.928710938 323.870117188 c 128,-1,14
 79.1904296875 388.930664062 79.1904296875 388.930664062 79.34765625 485.461914062 c 0,15,16
 78.97265625 643.551757812 78.97265625 643.551757812 239.514648438 735.915039062 c 0,17,18
 305.705078125 774.030273438 305.705078125 774.030273438 385.477539062 773.583007812 c 0,19,20
 446.1796875 774.03125 446.1796875 774.03125 497.229492188 751.305664062 c 0,21,22
 591 710.05078125 591 710.05078125 591 607 c 2,23,-1
 591 580.641601562 l 1,24,-1
 565.615234375 587.73828125 l 2,25,26
 552.612304688 591.374023438 552.612304688 591.374023438 540.51171875 594.522460938 c 128,-1,27
 528.411132812 597.670898438 528.411132812 597.670898438 517.751953125 600.205078125 c 128,-1,28
 507.092773438 602.740234375 507.092773438 602.740234375 497.459960938 604.78515625 c 128,-1,29
 487.828125 606.829101562 487.828125 606.829101562 479.608398438 608.303710938 c 128,-1,30
 471.389648438 609.77734375 471.389648438 609.77734375 464.33203125 610.754882812 c 128,-1,31
 457.274414062 611.732421875 457.274414062 611.732421875 451.602539062 612.182617188 c 128,-1,32
 445.9296875 612.6328125 445.9296875 612.6328125 441.543945312 612.58203125 c 0,33,34
 382.80859375 612.967773438 382.80859375 612.967773438 349.553710938 595.750976562 c 0,35,36
 302.5078125 572.3046875 302.5078125 572.3046875 280.805664062 542.951171875 c 128,-1,37
 259.102539062 513.598632812 259.102539062 513.598632812 259.178710938 476.572265625 c 0,38,39
 259.139648438 448.770507812 259.139648438 448.770507812 267.967773438 426.122070312 c 128,-1,40
 276.795898438 403.473632812 276.795898438 403.473632812 295.384765625 384.890625 c 128,-1,41
 313.97265625 366.307617188 313.97265625 366.307617188 343.399414062 352.364257812 c 128,-1,42
 372.826171875 338.421875 372.826171875 338.421875 413.375976562 328.994140625 c 0,43,44
 439.336914062 322.987304688 439.336914062 322.987304688 471.280273438 322.815429688 c 0,0,1
EndSplineSet
EndChar

StartChar: uni0627
Encoding: 1575 1575 12
Width: 455
VWidth: 2287
GlyphClass: 2
Flags: W
AnchorPoint: "Anchor-10" 221.033 1575.03 basechar 0
AnchorPoint: "Anchor-7" 228.453 -262.144 basechar 0
LayerCount: 2
Fore
SplineSet
277.522460938 1446.76171875 m 2,0,-1
 324.1796875 1470.91308594 l 1,1,-1
 324.1796875 211 l 2,2,3
 323.999023438 72.447265625 323.999023438 72.447265625 217.099609375 2.66796875 c 2,4,-1
 187.764648438 -16.48046875 l 1,5,-1
 136.393554688 1074.48925781 l 2,6,7
 123.193359375 1366.6484375 123.193359375 1366.6484375 277.522460938 1446.76171875 c 2,0,-1
EndSplineSet
Substitution2: "'fina' Terminal Forms in Arabic lookup 9 subtable" uniFE8E
EndChar

StartChar: uni062D
Encoding: 1581 1581 18
Width: 1288
VWidth: 2311
GlyphClass: 2
Flags: W
AnchorPoint: "Anchor-10" 479.88 1292.22 basechar 0
AnchorPoint: "Anchor-7" 323.835 -775.086 basechar 0
LayerCount: 2
Fore
SplineSet
1170.21582031 563.327148438 m 1,0,1
 830 548 830 548 587.01171875 407.881835938 c 0,2,3
 306 245 306 245 270.9140625 -30.783203125 c 0,4,5
 248 -213 248 -213 464.918945312 -303.34375 c 0,6,7
 598 -359 598 -359 813.126953125 -359.01953125 c 128,-1,8
 1028.24609375 -359 1028.24609375 -359 1171.59277344 -318.745117188 c 2,9,-1
 1209.58105469 -308.077148438 l 1,10,11
 1165 -517 1165 -517 994 -583 c 0,12,13
 892.525390625 -621.0078125 892.525390625 -621.0078125 739.549804688 -621.064453125 c 0,14,15
 364 -621 364 -621 200.17578125 -429.931640625 c 0,16,17
 92 -303 92 -303 91.755859375 -108.317382812 c 0,18,19
 92 167 92 167 259.375976562 346.643554688 c 0,20,21
 481 583 481 583 817.607421875 649.254882812 c 1,22,23
 735 676 735 676 679.921875 700.704101562 c 0,24,25
 535 764 535 764 440.716796875 751.264648438 c 0,26,27
 323 736 323 736 227.206054688 544.353515625 c 1,28,-1
 206.100585938 544.635742188 l 2,29,30
 189 545 189 545 185.556640625 554.103515625 c 0,31,32
 182 563 182 563 180.501953125 569.889648438 c 0,33,34
 179 577 179 577 180.548828125 587.108398438 c 0,35,36
 182 598 182 598 183.30078125 606.208984375 c 0,37,38
 185 615 185 615 188.3203125 627.821289062 c 0,39,40
 192 641 192 641 194.431640625 649.487304688 c 128,-1,41
 197 658 197 658 201.196289062 671.8359375 c 0,42,43
 205 686 205 686 207.483398438 692.60546875 c 0,44,45
 284 957 284 957 471.53515625 951.510742188 c 0,46,47
 606 948 606 948 772.595703125 855.006835938 c 0,48,49
 991.3828125 731.348632812 991.3828125 731.348632812 1176.5703125 732.319335938 c 2,50,-1
 1200.61425781 732.4453125 l 1,51,-1
 1170.21582031 563.327148438 l 1,0,1
EndSplineSet
Substitution2: "'fina' Terminal Forms in Arabic lookup 9 subtable" uniFEA2
Substitution2: "'medi' Medial Forms in Arabic lookup 11 subtable" uniFEA4
Substitution2: "'init' Initial Forms in Arabic lookup 13 subtable" uniFEA3
EndChar

StartChar: uni062F
Encoding: 1583 1583 20
Width: 960
VWidth: 2305
GlyphClass: 2
Flags: W
AnchorPoint: "Anchor-10" 255.131 1163.75 basechar 0
AnchorPoint: "Anchor-7" 307.202 -226.157 basechar 0
LayerCount: 2
Fore
SplineSet
818.0625 150.760742188 m 0,0,1
 654 -48 654 -48 304.5234375 -27.0869140625 c 0,2,3
 186 -20 186 -20 123.052734375 37.44140625 c 128,-1,4
 60.2275390625 94.7919921875 60.2275390625 94.7919921875 60.2275390625 198.825195312 c 2,5,-1
 60.2275390625 306.801757812 l 1,6,-1
 88.0732421875 294.926757812 l 2,7,8
 205 245 205 245 366.083984375 242.05859375 c 0,9,10
 530 239 530 239 650.205078125 298.693359375 c 0,11,12
 722 335 722 335 692.998046875 376.247070312 c 2,13,-1
 541 592 l 6,14,15
 385 814 385 814 541.140625 897.279296875 c 2,16,-1
 579.127929688 917.450195312 l 1,17,-1
 835.950195312 462.245117188 l 1,18,19
 924 279 924 279 818.0625 150.760742188 c 0,0,1
EndSplineSet
Substitution2: "'fina' Terminal Forms in Arabic lookup 9 subtable" uniFEAA
EndChar

StartChar: uni0631
Encoding: 1585 1585 22
Width: 954
VWidth: 2334
GlyphClass: 2
Flags: W
AnchorPoint: "Anchor-7" 502.396 -647.687 basechar 0
AnchorPoint: "Anchor-10" 507.274 1016.23 basechar 0
LayerCount: 2
Fore
SplineSet
845.297851562 74.873046875 m 0,0,1
 804.01171875 -170.124023438 804.01171875 -170.124023438 679.413085938 -298.60546875 c 128,-1,2
 554.814453125 -427.086914062 554.814453125 -427.086914062 348.766601562 -434.985351562 c 0,3,4
 185.059570312 -441.268554688 185.059570312 -441.268554688 51.6240234375 -315.98046875 c 2,5,-1
 20.076171875 -286.358398438 l 1,6,-1
 63.0810546875 -281.525390625 l 2,7,8
 399.265625 -243.741210938 399.265625 -243.741210938 555.213867188 -137.646484375 c 128,-1,9
 711.163085938 -31.55078125 711.163085938 -31.55078125 697.633789062 140.622070312 c 0,10,11
 693.875 188.55078125 693.875 188.55078125 651.159179688 294.327148438 c 0,12,13
 610.052734375 394.658203125 610.052734375 394.658203125 623.087890625 475.326171875 c 128,-1,14
 636.122070312 555.994140625 636.122070312 555.994140625 704.56640625 608.133789062 c 2,15,-1
 763.803710938 653.259765625 l 1,16,-1
 773.064453125 627.643554688 l 2,17,18
 885.486328125 316.68359375 885.486328125 316.68359375 845.297851562 74.873046875 c 0,0,1
EndSplineSet
PairPos2: "'kern' Horizontal Kerning lookup 15-1" uniFB7C dx=-150 dy=0 dh=-150 dv=0 dx=0 dy=0 dh=0 dv=0
PairPos2: "'kern' Horizontal Kerning lookup 15-1" uniFB90 dx=-350 dy=0 dh=-350 dv=0 dx=0 dy=0 dh=0 dv=0
PairPos2: "'kern' Horizontal Kerning lookup 15-1" uniFB8E dx=-350 dy=0 dh=-350 dv=0 dx=0 dy=0 dh=0 dv=0
PairPos2: "'kern' Horizontal Kerning lookup 15-1" uni06A9 dx=-350 dy=0 dh=-350 dv=0 dx=0 dy=0 dh=0 dv=0
PairPos2: "'kern' Horizontal Kerning lookup 15-1" uni064A dx=-100 dy=0 dh=-100 dv=0 dx=0 dy=0 dh=0 dv=0
PairPos2: "'kern' Horizontal Kerning lookup 15-1" afii57414 dx=-100 dy=0 dh=-100 dv=0 dx=0 dy=0 dh=0 dv=0
PairPos2: "'kern' Horizontal Kerning lookup 15-1" uni0649 dx=-100 dy=0 dh=-100 dv=0 dx=0 dy=0 dh=0 dv=0
PairPos2: "'kern' Horizontal Kerning lookup 15-1" uni0648 dx=-80 dy=0 dh=-80 dv=0 dx=0 dy=0 dh=0 dv=0
PairPos2: "'kern' Horizontal Kerning lookup 15-1" afii57412 dx=-80 dy=0 dh=-80 dv=0 dx=0 dy=0 dh=0 dv=0
PairPos2: "'kern' Horizontal Kerning lookup 15-1" uniFEEB dx=-250 dy=0 dh=-250 dv=0 dx=0 dy=0 dh=0 dv=0
PairPos2: "'kern' Horizontal Kerning lookup 15-1" uni0647 dx=-250 dy=0 dh=-250 dv=0 dx=0 dy=0 dh=0 dv=0
PairPos2: "'kern' Horizontal Kerning lookup 15-1" uniFEE7 dx=-250 dy=0 dh=-250 dv=0 dx=0 dy=0 dh=0 dv=0
PairPos2: "'kern' Horizontal Kerning lookup 15-1" uni0646 dx=-100 dy=0 dh=-100 dv=0 dx=0 dy=0 dh=0 dv=0
PairPos2: "'kern' Horizontal Kerning lookup 15-1" uniFEE3 dx=-250 dy=0 dh=-250 dv=0 dx=0 dy=0 dh=0 dv=0
PairPos2: "'kern' Horizontal Kerning lookup 15-1" uni0645 dx=-250 dy=0 dh=-250 dv=0 dx=0 dy=0 dh=0 dv=0
PairPos2: "'kern' Horizontal Kerning lookup 15-1" uniFEFB dx=-250 dy=0 dh=-250 dv=0 dx=0 dy=0 dh=0 dv=0
PairPos2: "'kern' Horizontal Kerning lookup 15-1" uniFEDF dx=-250 dy=0 dh=-250 dv=0 dx=0 dy=0 dh=0 dv=0
PairPos2: "'kern' Horizontal Kerning lookup 15-1" uni0644 dx=-80 dy=0 dh=-80 dv=0 dx=0 dy=0 dh=0 dv=0
PairPos2: "'kern' Horizontal Kerning lookup 15-1" uniFEDB dx=-350 dy=0 dh=-350 dv=0 dx=0 dy=0 dh=0 dv=0
PairPos2: "'kern' Horizontal Kerning lookup 15-1" uni0643 dx=-250 dy=0 dh=-250 dv=0 dx=0 dy=0 dh=0 dv=0
PairPos2: "'kern' Horizontal Kerning lookup 15-1" uniFED7 dx=-250 dy=0 dh=-250 dv=0 dx=0 dy=0 dh=0 dv=0
PairPos2: "'kern' Horizontal Kerning lookup 15-1" uni0642 dx=-80 dy=0 dh=-80 dv=0 dx=0 dy=0 dh=0 dv=0
PairPos2: "'kern' Horizontal Kerning lookup 15-1" uniFED3 dx=-250 dy=0 dh=-250 dv=0 dx=0 dy=0 dh=0 dv=0
PairPos2: "'kern' Horizontal Kerning lookup 15-1" uni0641 dx=-250 dy=0 dh=-250 dv=0 dx=0 dy=0 dh=0 dv=0
PairPos2: "'kern' Horizontal Kerning lookup 15-1" uniFECF dx=-250 dy=0 dh=-250 dv=0 dx=0 dy=0 dh=0 dv=0
PairPos2: "'kern' Horizontal Kerning lookup 15-1" uniFECB dx=-250 dy=0 dh=-250 dv=0 dx=0 dy=0 dh=0 dv=0
PairPos2: "'kern' Horizontal Kerning lookup 15-1" uniFEC7 dx=-250 dy=0 dh=-250 dv=0 dx=0 dy=0 dh=0 dv=0
PairPos2: "'kern' Horizontal Kerning lookup 15-1" uni0638 dx=-250 dy=0 dh=-250 dv=0 dx=0 dy=0 dh=0 dv=0
PairPos2: "'kern' Horizontal Kerning lookup 15-1" uniFEC3 dx=-250 dy=0 dh=-250 dv=0 dx=0 dy=0 dh=0 dv=0
PairPos2: "'kern' Horizontal Kerning lookup 15-1" uni0637 dx=-250 dy=0 dh=-250 dv=0 dx=0 dy=0 dh=0 dv=0
PairPos2: "'kern' Horizontal Kerning lookup 15-1" uniFEBF dx=-250 dy=0 dh=-250 dv=0 dx=0 dy=0 dh=0 dv=0
PairPos2: "'kern' Horizontal Kerning lookup 15-1" uni0636 dx=-250 dy=0 dh=-250 dv=0 dx=0 dy=0 dh=0 dv=0
PairPos2: "'kern' Horizontal Kerning lookup 15-1" uniFEBB dx=-250 dy=0 dh=-250 dv=0 dx=0 dy=0 dh=0 dv=0
PairPos2: "'kern' Horizontal Kerning lookup 15-1" uni0635 dx=-250 dy=0 dh=-250 dv=0 dx=0 dy=0 dh=0 dv=0
PairPos2: "'kern' Horizontal Kerning lookup 15-1" uniFEB7 dx=-250 dy=0 dh=-250 dv=0 dx=0 dy=0 dh=0 dv=0
PairPos2: "'kern' Horizontal Kerning lookup 15-1" uni0634 dx=-250 dy=0 dh=-250 dv=0 dx=0 dy=0 dh=0 dv=0
PairPos2: "'kern' Horizontal Kerning lookup 15-1" uniFEB3 dx=-250 dy=0 dh=-250 dv=0 dx=0 dy=0 dh=0 dv=0
PairPos2: "'kern' Horizontal Kerning lookup 15-1" uni0633 dx=-250 dy=0 dh=-250 dv=0 dx=0 dy=0 dh=0 dv=0
PairPos2: "'kern' Horizontal Kerning lookup 15-1" uni0632 dx=-80 dy=0 dh=-80 dv=0 dx=0 dy=0 dh=0 dv=0
PairPos2: "'kern' Horizontal Kerning lookup 15-1" uni0631 dx=-80 dy=0 dh=-80 dv=0 dx=0 dy=0 dh=0 dv=0
PairPos2: "'kern' Horizontal Kerning lookup 15-1" uni0630 dx=-250 dy=0 dh=-250 dv=0 dx=0 dy=0 dh=0 dv=0
PairPos2: "'kern' Horizontal Kerning lookup 15-1" uni062F dx=-250 dy=0 dh=-250 dv=0 dx=0 dy=0 dh=0 dv=0
PairPos2: "'kern' Horizontal Kerning lookup 15-1" uniFEA7 dx=-250 dy=0 dh=-250 dv=0 dx=0 dy=0 dh=0 dv=0
PairPos2: "'kern' Horizontal Kerning lookup 15-1" uniFEA3 dx=-250 dy=0 dh=-250 dv=0 dx=0 dy=0 dh=0 dv=0
PairPos2: "'kern' Horizontal Kerning lookup 15-1" uniFE9F dx=-250 dy=0 dh=-250 dv=0 dx=0 dy=0 dh=0 dv=0
PairPos2: "'kern' Horizontal Kerning lookup 15-1" uniFE9B dx=-250 dy=0 dh=-250 dv=0 dx=0 dy=0 dh=0 dv=0
PairPos2: "'kern' Horizontal Kerning lookup 15-1" uni062B dx=-250 dy=0 dh=-250 dv=0 dx=0 dy=0 dh=0 dv=0
PairPos2: "'kern' Horizontal Kerning lookup 15-1" uniFE97 dx=-250 dy=0 dh=-250 dv=0 dx=0 dy=0 dh=0 dv=0
PairPos2: "'kern' Horizontal Kerning lookup 15-1" uni062A dx=-250 dy=0 dh=-250 dv=0 dx=0 dy=0 dh=0 dv=0
PairPos2: "'kern' Horizontal Kerning lookup 15-1" uni0629 dx=-250 dy=0 dh=-250 dv=0 dx=0 dy=0 dh=0 dv=0
PairPos2: "'kern' Horizontal Kerning lookup 15-1" uniFE91 dx=-50 dy=0 dh=-50 dv=0 dx=0 dy=0 dh=0 dv=0
PairPos2: "'kern' Horizontal Kerning lookup 15-1" uni0628 dx=-250 dy=0 dh=-250 dv=0 dx=0 dy=0 dh=0 dv=0
PairPos2: "'kern' Horizontal Kerning lookup 15-1" uni0627 dx=-250 dy=0 dh=-250 dv=0 dx=0 dy=0 dh=0 dv=0
PairPos2: "'kern' Horizontal Kerning lookup 15-1" uni0623 dx=-250 dy=0 dh=-250 dv=0 dx=0 dy=0 dh=0 dv=0
PairPos2: "'kern' Horizontal Kerning lookup 15-1" uni0622 dx=-250 dy=0 dh=-250 dv=0 dx=0 dy=0 dh=0 dv=0
PairPos2: "'kern' Horizontal Kerning lookup 15-1" uni0621 dx=-250 dy=0 dh=-250 dv=0 dx=0 dy=0 dh=0 dv=0
PairPos2: "'kern' Horizontal Kerning lookup 15-1" uniFB94 dx=-350 dy=0 dh=-350 dv=0 dx=0 dy=0 dh=0 dv=0
PairPos2: "'kern' Horizontal Kerning lookup 15-1" uniFB92 dx=-350 dy=0 dh=-350 dv=0 dx=0 dy=0 dh=0 dv=0
PairPos2: "'kern' Horizontal Kerning lookup 15-1" afii57509 dx=-350 dy=0 dh=-350 dv=0 dx=0 dy=0 dh=0 dv=0
PairPos2: "'kern' Horizontal Kerning lookup 15-1" afii57508 dx=-80 dy=0 dh=-80 dv=0 dx=0 dy=0 dh=0 dv=0
PairPos2: "'kern' Horizontal Kerning lookup 15-1" afii57506 dx=-250 dy=0 dh=-250 dv=0 dx=0 dy=0 dh=0 dv=0
PairPos2: "'kern' Horizontal Kerning lookup 15-1" afii57440 dx=-250 dy=0 dh=-250 dv=0 dx=0 dy=0 dh=0 dv=0
PairPos2: "'kern' Horizontal Kerning lookup 15-1" uniFE8B dx=-250 dy=0 dh=-250 dv=0 dx=0 dy=0 dh=0 dv=0
Substitution2: "'fina' Terminal Forms in Arabic lookup 9 subtable" uniFEAE
EndChar

StartChar: uni0633
Encoding: 1587 1587 24
Width: 2293
VWidth: 2336
GlyphClass: 2
Flags: W
AnchorPoint: "Anchor-7" 316.459 -690.369 basechar 0
AnchorPoint: "Anchor-10" 519.989 910.793 basechar 0
LayerCount: 2
Fore
SplineSet
1656.72167969 138.185546875 m 1,0,1
 1589.01660156 -0.966796875 1589.01660156 -0.966796875 1446.25 -0.966796875 c 2,2,-1
 1431.75585938 -0.966796875 l 2,3,4
 1348 -1 1348 -1 1298.75 33.8125 c 1,5,6
 1292 -182 1292 -182 1169.15429688 -319.131835938 c 0,7,8
 1009 -499 1009 -499 673 -505 c 128,-1,9
 337 -511 337 -511 177.419921875 -304.13671875 c 0,10,11
 52 -140 52 -140 106.401367188 129.986328125 c 0,12,13
 126 227 126 227 178.305664062 340.442382812 c 0,14,15
 212 413 212 413 264.138671875 398.123046875 c 0,16,17
 316 383 316 383 284.921875 298.141601562 c 0,18,19
 216 109 216 109 257.309570312 -25.474609375 c 0,20,21
 325 -247 325 -247 663.776367188 -245.803710938 c 0,22,23
 1130 -244 1130 -244 1152.90820312 7.80078125 c 0,24,25
 1161 95 1161 95 1096.53027344 251.323242188 c 0,26,27
 1076 302 1076 302 1058 367 c 128,-1,28
 1040 432 1040 432 1061.56347656 492.176757812 c 128,-1,29
 1083.12695312 552.353515625 1083.12695312 552.353515625 1149.6953125 569.669921875 c 2,30,-1
 1202.98632812 583.532226562 l 1,31,-1
 1209.97851562 562.528320312 l 2,32,33
 1268.40136719 387.030273438 1268.40136719 387.030273438 1278 353 c 0,34,35
 1306 258 1306 258 1411.11816406 259.389648438 c 2,36,-1
 1449.56445312 260.026367188 l 1,37,38
 1546.99804688 259 1546.99804688 259 1579.57421875 397.158203125 c 2,39,-1
 1593.58886719 456.594726562 l 2,40,41
 1614.94726562 545.78125 1614.94726562 545.78125 1724.36035156 545.78125 c 2,42,-1
 1758.31835938 545.78125 l 1,43,-1
 1750.44726562 504.466796875 l 2,44,45
 1729 390 1729 390 1780 324.5 c 0,46,47
 1821 272 1821 272 1916.5 269 c 128,-1,48
 2012 266 2012 266 2035.14648438 335.641601562 c 0,49,50
 2050 379 2050 379 2022.5 453.5 c 128,-1,51
 1995 528 1995 528 1974.5 576 c 128,-1,52
 1954 624 1954 624 1981.95605469 683.665039062 c 128,-1,53
 2010.08789062 743.186523438 2010.08789062 743.186523438 2084.5546875 778.778320312 c 2,54,-1
 2120.37402344 795.8984375 l 1,55,-1
 2127.52050781 774.37890625 l 2,56,57
 2191 583 2191 583 2201.5 403.5 c 0,58,59
 2212 223 2212 223 2116.5 112 c 128,-1,60
 2021 1 2021 1 1876 -0.5 c 128,-1,61
 1731 -2 1731 -2 1656.72167969 138.185546875 c 1,0,1
EndSplineSet
Substitution2: "'fina' Terminal Forms in Arabic lookup 9 subtable" uniFEB2
Substitution2: "'medi' Medial Forms in Arabic lookup 11 subtable" uniFEB4
Substitution2: "'init' Initial Forms in Arabic lookup 13 subtable" uniFEB3
EndChar

StartChar: uni0635
Encoding: 1589 1589 26
Width: 2437
VWidth: 2311
GlyphClass: 2
Flags: W
AnchorPoint: "Anchor-10" 408.398 912.124 basechar 0
AnchorPoint: "Anchor-7" 371.298 -728.756 basechar 0
LayerCount: 2
Fore
SplineSet
1560.34960938 269.098632812 m 1,0,-1
 1707.29492188 269.098632812 l 2,1,2
 2210.73632812 268.768554688 2210.73632812 268.768554688 2187.1875 469.387695312 c 0,3,4
 2170.51367188 611.44921875 2170.51367188 611.44921875 2021.72167969 596.1484375 c 128,-1,5
 1872.93066406 580.84765625 1872.93066406 580.84765625 1658.89257812 373.61328125 c 0,6,7
 1605.95800781 322.36328125 1605.95800781 322.36328125 1560.34960938 269.098632812 c 1,0,-1
1298.88476562 38.248046875 m 1,8,9
 1293 -180 1293 -180 1169.15429688 -319.131835938 c 0,10,11
 1009 -499 1009 -499 673.2265625 -505.075195312 c 0,12,13
 337 -511 337 -511 177.419921875 -304.13671875 c 0,14,15
 52 -140 52 -140 106.401367188 129.986328125 c 0,16,17
 126 227 126 227 178.305664062 340.442382812 c 0,18,19
 212 413 212 413 264.138671875 398.123046875 c 0,20,21
 316 383 316 383 284.921875 298.141601562 c 0,22,23
 216 109 216 109 257.309570312 -25.474609375 c 0,24,25
 325 -247 325 -247 663.776367188 -245.803710938 c 0,26,27
 1130 -244 1130 -244 1152.90820312 7.80078125 c 0,28,29
 1161 93 1161 93 1096.53027344 251.323242188 c 0,30,31
 985.061523438 526.84765625 985.061523438 526.84765625 1149.6953125 569.669921875 c 2,32,-1
 1204.40136719 583.899414062 l 1,33,-1
 1210.18164062 561.228515625 l 6,34,35
 1239 448 1239 448 1279.40820312 347.625 c 0,36,37
 1298 302 1298 302 1376.359375 313.353515625 c 1,38,39
 1500 462 1500 462 1628.70507812 577.6015625 c 0,40,41
 1867 792 1867 792 2045.90429688 794.2421875 c 0,42,43
 2306 797 2306 797 2346.70703125 506.219726562 c 0,44,45
 2385.29003906 226.8984375 2385.29003906 226.8984375 2146.09277344 86.5068359375 c 0,46,47
 1995.48730469 -1.298828125 1995.48730469 -1.298828125 1768.48046875 -0.7109375 c 2,48,-1
 1493.94824219 0 l 2,49,50
 1357 0 1357 0 1298.88476562 38.248046875 c 1,8,9
EndSplineSet
Substitution2: "'fina' Terminal Forms in Arabic lookup 9 subtable" uniFEBA
Substitution2: "'medi' Medial Forms in Arabic lookup 11 subtable" uniFEBC
Substitution2: "'init' Initial Forms in Arabic lookup 13 subtable" uniFEBB
EndChar

StartChar: uni0637
Encoding: 1591 1591 28
Width: 1454
VWidth: 2311
GlyphClass: 2
Flags: W
AnchorPoint: "Anchor-10" 306.828 1534.61 basechar 0
AnchorPoint: "Anchor-7" 754.148 -297.606 basechar 0
LayerCount: 2
Fore
SplineSet
576.188476562 269.6953125 m 1,0,-1
 723.313476562 269.6953125 l 2,1,2
 873.962890625 270.012695312 873.962890625 270.012695312 980.810546875 287.212890625 c 128,-1,3
 1087.65917969 304.412109375 1087.65917969 304.412109375 1149.66699219 351.26171875 c 128,-1,4
 1211.67480469 398.110351562 1211.67480469 398.110351562 1203.25390625 469.857421875 c 0,5,6
 1186.66015625 611.247070312 1186.66015625 611.247070312 1033.59863281 596.583007812 c 0,7,8
 925.924804688 585.69921875 925.924804688 585.69921875 765.586914062 456.45703125 c 0,9,10
 664.899414062 374.541992188 664.899414062 374.541992188 576.188476562 269.6953125 c 1,0,-1
423.080078125 350.280273438 m 1,11,12
 802 791 802 791 1065.77441406 795.022460938 c 0,13,14
 1193 797 1193 797 1267.83398438 723.0546875 c 0,15,16
 1343 650 1343 650 1362.75976562 506.81640625 c 0,17,18
 1401 232 1401 232 1162.19628906 87.1337890625 c 0,19,20
 1017.46484375 -0.7177734375 1017.46484375 -0.7177734375 784.533203125 -0.1142578125 c 2,21,-1
 510.057617188 0.5966796875 l 1,22,-1
 363.783203125 0.1416015625 l 2,23,24
 80.6962890625 -1.0009765625 80.6962890625 -1.0009765625 80.6962890625 234 c 2,25,-1
 80.6962890625 268.955078125 l 1,26,-1
 285.999023438 268.98828125 l 1,27,-1
 223.384765625 1077.28125 l 6,28,29
 202.041992188 1349.46289062 202.041992188 1349.46289062 374.1953125 1443.64550781 c 6,30,-1
 423.774414062 1470.76953125 l 5,31,-1
 423.080078125 350.280273438 l 1,11,12
EndSplineSet
Substitution2: "'fina' Terminal Forms in Arabic lookup 9 subtable" uniFEC2
Substitution2: "'medi' Medial Forms in Arabic lookup 11 subtable" uniFEC4
Substitution2: "'init' Initial Forms in Arabic lookup 13 subtable" uniFEC3
EndChar

StartChar: uni0639
Encoding: 1593 1593 30
Width: 1354
VWidth: 2311
GlyphClass: 2
Flags: W
AnchorPoint: "Anchor-10" 503.969 1502.94 basechar 0
AnchorPoint: "Anchor-7" 257.953 -765.751 basechar 0
LayerCount: 2
Fore
SplineSet
1261.3828125 -394.877929688 m 6,0,1
 1150.74316406 -653.02734375 1150.74316406 -653.02734375 877.3046875 -682.327148438 c 0,2,3
 814 -689 814 -689 739.549804688 -689.064453125 c 0,4,5
 364 -689 364 -689 200.174804688 -497.931640625 c 0,6,7
 92 -371 92 -371 91.755859375 -176.317382812 c 0,8,9
 92 106 92 106 273.232421875 304.806640625 c 0,10,11
 348 386 348 386 430.330078125 438.8125 c 1,12,13
 357 482 357 482 289.166992188 570.014648438 c 0,14,15
 222 658 222 658 229.498046875 772.171875 c 0,16,17
 236.846679688 884.654296875 236.846679688 884.654296875 300.241210938 966.315429688 c 0,18,19
 424 1126 424 1126 628.65234375 1126.21679688 c 0,20,21
 779.586914062 1126.00488281 779.586914062 1126.00488281 854.862304688 1035.07324219 c 0,22,23
 908.774414062 970.271484375 908.774414062 970.271484375 911.989257812 870.64453125 c 2,24,-1
 913.567382812 821.74609375 l 1,25,-1
 878.186523438 855.536132812 l 2,26,27
 795 935 795 935 668.713867188 935 c 0,28,29
 542 935 542 935 478.77734375 879.973632812 c 0,30,31
 415 825 415 825 416.11328125 742.34765625 c 0,32,33
 417 641 417 641 565.234375 529.509765625 c 1,34,35
 644 558 644 558 771.407226562 578.408203125 c 0,36,37
 898 599 898 599 951.735351562 598.999023438 c 0,38,39
 1058.52539062 599 1058.52539062 599 1073.20996094 522.767578125 c 2,40,-1
 1093.93457031 415.180664062 l 1,41,-1
 1069.80664062 415.08984375 l 2,42,43
 783 414 783 414 627.344726562 344.322265625 c 0,44,45
 471 275 471 275 406.33203125 196.657226562 c 0,46,47
 291 60 291 60 275.302734375 -39.822265625 c 0,48,49
 260 -139 260 -139 287.508789062 -207.420898438 c 4,50,51
 377 -427 377 -427 823.83203125 -427.075195312 c 4,52,53
 1027.23730469 -427 1027.23730469 -427 1237.57714844 -367.749023438 c 6,54,-1
 1277.875 -356.397460938 l 5,55,-1
 1261.3828125 -394.877929688 l 6,0,1
EndSplineSet
Substitution2: "'fina' Terminal Forms in Arabic lookup 9 subtable" uniFECA
Substitution2: "'medi' Medial Forms in Arabic lookup 11 subtable" uniFECC
Substitution2: "'init' Initial Forms in Arabic lookup 13 subtable" uniFECB
EndChar

StartChar: afii57440
Encoding: 1600 1600 32
Width: 701
VWidth: 2326
GlyphClass: 2
Flags: W
AnchorPoint: "Anchor-10" 341 1365.9 basechar 0
AnchorPoint: "Anchor-7" 341 -108.56 basechar 0
LayerCount: 2
Fore
SplineSet
-22.8642578125 14.9306640625 m 1,0,-1
 -22.8642578125 214.048828125 l 1,1,-1
 704.864257812 214.048828125 l 1,2,-1
 704.864257812 -5.0693359375 l 1,3,-1
 -22.8642578125 -5.0693359375 l 2,4,5
 -22.8642578125 -4.2275390625 -22.8642578125 -4.2275390625 -25.833984375 -1.798828125 c 0,6,7
 -38.3642578125 8.447265625 -38.3642578125 8.447265625 -13.86328125 14.4345703125 c 0,8,9
 -1.484375 17.458984375 -1.484375 17.458984375 20 20 c 1024,10,-1
EndSplineSet
EndChar

StartChar: uni0643
Encoding: 1603 1603 35
Width: 1891
VWidth: 2287
GlyphClass: 2
Flags: W
AnchorPoint: "Anchor-10" 578.028 1400.98 basechar 0
AnchorPoint: "Anchor-7" 522.908 -261.096 basechar 0
LayerCount: 2
Fore
SplineSet
507.342773438 292.850585938 m 0,0,1
 630 270 630 270 867.541992188 268.743164062 c 0,2,3
 1105 267 1105 267 1205.63867188 275.844726562 c 0,4,5
 1591.6640625 308.971679688 1591.6640625 308.971679688 1606.75976562 485.138671875 c 2,6,-1
 1610.78320312 532.09375 l 1,7,-1
 1565.08300781 1123.21582031 l 2,8,9
 1546.02148438 1364.72558594 1546.02148438 1364.72558594 1715.86132812 1448.16113281 c 2,10,-1
 1760.71972656 1470.19824219 l 1,11,-1
 1760.71972656 450.095703125 l 2,12,13
 1761 344 1761 344 1735.73828125 273.774414062 c 0,14,15
 1703 179 1703 179 1562.3046875 102.077148438 c 0,16,17
 1374 -1 1374 -1 949.563476562 -0.6484375 c 0,18,19
 710 -1 710 -1 637.663085938 3.79296875 c 0,20,21
 394 20 394 20 279.225585938 93.150390625 c 0,22,23
 61 233 61 233 97.5595703125 548.995117188 c 0,24,25
 106 622 106 622 131.32421875 680.979492188 c 0,26,27
 157 740 157 740 196.96875 734.84765625 c 0,28,29
 248 728 248 728 231.623046875 644.106445312 c 0,30,31
 175 355 175 355 507.342773438 292.850585938 c 0,0,1
895.451171875 637.499023438 m 128,-1,33
 794 637 794 637 719.918945312 649.293945312 c 1,34,-1
 719.918945312 750.999023438 l 1,35,-1
 742.532226562 748.018554688 l 2,36,37
 803 740 803 740 865.073242188 739.701171875 c 0,38,39
 925 740 925 740 972.177734375 758.46875 c 0,40,41
 1049 788 1049 788 1048.83984375 833.4296875 c 0,42,43
 1049 879 1049 879 972.018554688 891.114257812 c 0,44,45
 818 916 818 916 820.862304688 1049.5546875 c 0,46,47
 823 1143 823 1143 910.3203125 1186.12890625 c 0,48,49
 1002.16796875 1230.56542969 1002.16796875 1230.56542969 1115.61425781 1237.75976562 c 2,50,-1
 1136.87988281 1239.10839844 l 1,51,-1
 1136.87988281 1144.15917969 l 1,52,53
 994 1134 994 1134 940.408203125 1087.20898438 c 0,54,55
 919 1069 919 1069 919.111328125 1045.10644531 c 0,56,57
 919 1022 919 1022 933.783203125 1002.48046875 c 0,58,59
 948 983 948 983 1024.93945312 972.201171875 c 0,60,61
 1147 954 1147 954 1146.70996094 854.46875 c 0,62,63
 1147 764 1147 764 1071.79589844 701.155273438 c 0,64,32
 997 638 997 638 895.451171875 637.499023438 c 128,-1,33
EndSplineSet
Substitution2: "'fina' Terminal Forms in Arabic lookup 9 subtable" uniFEDA
Substitution2: "'medi' Medial Forms in Arabic lookup 11 subtable" uniFEDC
Substitution2: "'init' Initial Forms in Arabic lookup 13 subtable" uniFEDB
EndChar

StartChar: uni0644
Encoding: 1604 1604 36
Width: 1340
VWidth: 2299
GlyphClass: 2
Flags: W
AnchorPoint: "Anchor-10" 497.887 979.06 basechar 0
AnchorPoint: "Anchor-7" 351.854 -575.884 basechar 0
LayerCount: 2
Fore
SplineSet
1209.83007812 419.497070312 m 2,0,1
 1209.83007812 51.810546875 1209.83007812 51.810546875 1206.75488281 30.27734375 c 0,2,3
 1156 -461 1156 -461 634.224609375 -483.979492188 c 0,4,5
 290 -499 290 -499 146.028320312 -294.182617188 c 0,6,7
 34 -134 34 -134 92.48046875 130.357421875 c 0,8,9
 138 333 138 333 193.314453125 397.029296875 c 0,10,11
 216 423 216 423 245.564453125 417.720703125 c 0,12,13
 299 407 299 407 270.2578125 325.375 c 0,14,15
 187 86 187 86 253.698242188 -44.353515625 c 0,16,17
 341 -217 341 -217 582.989257812 -221.875 c 0,18,19
 1063 -231 1063 -231 1076.13671875 24.4111328125 c 0,20,21
 1082 138.994140625 1082 138.994140625 1077.88964844 194.08203125 c 2,22,-1
 1014.73046875 1040.60742188 l 6,23,24
 991.029296875 1356.60839844 991.029296875 1356.60839844 1153.37011719 1441.17773438 c 6,25,-1
 1209.83007812 1470.58984375 l 5,26,-1
 1209.83007812 419.497070312 l 2,0,1
EndSplineSet
Substitution2: "'fina' Terminal Forms in Arabic lookup 9 subtable" uniFEDE
Substitution2: "'medi' Medial Forms in Arabic lookup 11 subtable" uniFEE0
Substitution2: "'init' Initial Forms in Arabic lookup 13 subtable" uniFEDF
EndChar

StartChar: uni0645
Encoding: 1605 1605 37
Width: 1153
VWidth: 2328
GlyphClass: 2
Flags: W
AnchorPoint: "Anchor-10" 619.117 1133.54 basechar 0
AnchorPoint: "Anchor-7" 181.476 -661.894 basechar 0
LayerCount: 2
Fore
SplineSet
510.76171875 448.884765625 m 5,0,1
 571.600585938 442.5859375 571.600585938 442.5859375 683.682617188 440.8046875 c 132,-1,2
 795.764648438 439.0234375 795.764648438 439.0234375 822.958007812 446.3984375 c 132,-1,3
 850.151367188 453.7734375 850.151367188 453.7734375 868.522460938 499.912109375 c 4,4,5
 912.029296875 605.473632812 912.029296875 605.473632812 709.510742188 693.421875 c 4,6,7
 604.908203125 738.924804688 604.908203125 738.924804688 553.048828125 670.248046875 c 132,-1,8
 501.190429688 601.571289062 501.190429688 601.571289062 510.76171875 448.884765625 c 5,0,1
935.385742188 210.303710938 m 0,9,10
 870 180 870 180 709.388671875 186.1796875 c 0,11,12
 548 192 548 192 425.60546875 192.095703125 c 0,13,14
 303 192 303 192 265.825195312 119.561523438 c 0,15,16
 228.885742188 46.7744140625 228.885742188 46.7744140625 244.19921875 -77.22265625 c 2,17,-1
 270.291015625 -288.493164062 l 2,18,19
 297.046875 -503.37890625 297.046875 -503.37890625 149.432617188 -587.297851562 c 2,20,-1
 91.9072265625 -620.000976562 l 1,21,-1
 91.9072265625 -30.64453125 l 2,22,23
 92 185 92 185 145.515625 287.44921875 c 4,24,25
 199 389 199 389 337.2890625 417.303710938 c 5,26,27
 328 675 328 675 451.845703125 810.06640625 c 4,28,29
 606 976 606 976 839.525390625 821.405273438 c 4,30,31
 1099 650 1099 650 1062.35058594 506.883789062 c 4,32,33
 1025 363 1025 363 993.65234375 292.79296875 c 0,34,35
 962 222 962 222 935.385742188 210.303710938 c 0,9,10
EndSplineSet
Substitution2: "'init' Initial Forms in Arabic lookup 13 subtable" uniFEE3
Substitution2: "'medi' Medial Forms in Arabic lookup 11 subtable" uniFEE4
Substitution2: "'fina' Terminal Forms in Arabic lookup 9 subtable" uniFEE2
EndChar

StartChar: uni0647
Encoding: 1607 1607 39
Width: 868
VWidth: 2306
GlyphClass: 2
Flags: W
AnchorPoint: "Anchor-10" 398.637 1131.82 basechar 0
AnchorPoint: "Anchor-7" 290.113 -189.192 basechar 0
LayerCount: 2
Fore
SplineSet
426.319335938 659.94921875 m 1,0,1
 132.4296875 336.23828125 132.4296875 336.23828125 342.590820312 264.125 c 0,2,3
 437.458984375 230.895507812 437.458984375 230.895507812 527.348632812 266.220703125 c 0,4,5
 635.412109375 308.677734375 635.412109375 308.677734375 582.625 442.224609375 c 0,6,7
 538.6953125 554.529296875 538.6953125 554.529296875 426.319335938 659.94921875 c 1,0,1
223.3125 47.3544921875 m 0,8,9
 117 116 117 116 97.484375 228.967773438 c 0,10,11
 72 380 72 380 145.357421875 529.334960938 c 0,12,13
 213 666 213 666 346.431640625 794.798828125 c 1,14,15
 321.818359375 833.284179688 321.818359375 833.284179688 369.8984375 933.708007812 c 2,16,-1
 385.830078125 966.984375 l 1,17,-1
 405.76953125 948.017578125 l 2,18,19
 811 562 811 562 755.702148438 238.733398438 c 0,20,21
 739 141 739 141 663.37890625 71.1416015625 c 0,22,23
 588 1 588 1 438.330078125 2.484375 c 0,24,25
 289 4 289 4 223.3125 47.3544921875 c 0,8,9
EndSplineSet
Substitution2: "'fina' Terminal Forms in Arabic lookup 9 subtable" uniFEEA
Substitution2: "'medi' Medial Forms in Arabic lookup 11 subtable" uniFEEC
Substitution2: "'init' Initial Forms in Arabic lookup 13 subtable" uniFEEB
EndChar

StartChar: uni0648
Encoding: 1608 1608 40
Width: 938
VWidth: 2327
GlyphClass: 2
Flags: W
AnchorPoint: "Anchor-10" 475.024 1110.03 basechar 0
AnchorPoint: "Anchor-7" 396.608 -649.098 basechar 0
LayerCount: 2
Fore
SplineSet
689.971679688 255.228515625 m 5,0,1
 677.041015625 542.932617188 677.041015625 542.932617188 545.798828125 539.658203125 c 4,2,3
 454.697265625 538.241210938 454.697265625 538.241210938 414.388671875 376.08984375 c 4,4,5
 393.098632812 293.551757812 393.098632812 293.551757812 466.09375 266.858398438 c 4,6,7
 498.467773438 255.01953125 498.467773438 255.01953125 536.873046875 253.428710938 c 132,-1,8
 575.279296875 251.837890625 575.279296875 251.837890625 689.971679688 255.228515625 c 5,0,1
833.860351562 15.7099609375 m 4,9,10
 739 -420 739 -420 349.7734375 -434.985351562 c 4,11,12
 186.086914062 -440.997070312 186.086914062 -440.997070312 52.6416015625 -315.997070312 c 6,13,-1
 20.7021484375 -286.079101562 l 5,14,-1
 64.9111328125 -281.4375 l 6,15,16
 588 -227 588 -227 679.022460938 2.009765625 c 5,17,18
 612 2 612 2 544.600585938 0.8427734375 c 4,19,20
 355 -2 355 -2 278.94140625 122.559570312 c 4,21,22
 219 219 219 219 251.384765625 379.903320312 c 4,23,24
 292 583 292 583 411.453125 679.575195312 c 4,25,26
 490 743 490 743 587.78125 735.955078125 c 4,27,28
 686 729 686 729 739.529296875 663.602539062 c 4,29,30
 793 598 793 598 821.07421875 508.013671875 c 4,31,32
 892 284 892 284 833.860351562 15.7099609375 c 4,9,10
EndSplineSet
PairPos2: "'kern' Horizontal Kerning lookup 15-1" uniFB90 dx=-150 dy=0 dh=-150 dv=0 dx=0 dy=0 dh=0 dv=0
PairPos2: "'kern' Horizontal Kerning lookup 15-1" uniFB8E dx=-150 dy=0 dh=-150 dv=0 dx=0 dy=0 dh=0 dv=0
PairPos2: "'kern' Horizontal Kerning lookup 15-1" uni06A9 dx=-150 dy=0 dh=-150 dv=0 dx=0 dy=0 dh=0 dv=0
PairPos2: "'kern' Horizontal Kerning lookup 15-1" uni064A dx=-50 dy=0 dh=-50 dv=0 dx=0 dy=0 dh=0 dv=0
PairPos2: "'kern' Horizontal Kerning lookup 15-1" afii57414 dx=-50 dy=0 dh=-50 dv=0 dx=0 dy=0 dh=0 dv=0
PairPos2: "'kern' Horizontal Kerning lookup 15-1" uni0649 dx=-50 dy=0 dh=-50 dv=0 dx=0 dy=0 dh=0 dv=0
PairPos2: "'kern' Horizontal Kerning lookup 15-1" uni0648 dx=-50 dy=0 dh=-50 dv=0 dx=0 dy=0 dh=0 dv=0
PairPos2: "'kern' Horizontal Kerning lookup 15-1" afii57412 dx=-50 dy=0 dh=-50 dv=0 dx=0 dy=0 dh=0 dv=0
PairPos2: "'kern' Horizontal Kerning lookup 15-1" uniFEEB dx=-50 dy=0 dh=-50 dv=0 dx=0 dy=0 dh=0 dv=0
PairPos2: "'kern' Horizontal Kerning lookup 15-1" uni0647 dx=-50 dy=0 dh=-50 dv=0 dx=0 dy=0 dh=0 dv=0
PairPos2: "'kern' Horizontal Kerning lookup 15-1" uniFEE7 dx=-50 dy=0 dh=-50 dv=0 dx=0 dy=0 dh=0 dv=0
PairPos2: "'kern' Horizontal Kerning lookup 15-1" uni0646 dx=-50 dy=0 dh=-50 dv=0 dx=0 dy=0 dh=0 dv=0
PairPos2: "'kern' Horizontal Kerning lookup 15-1" uniFEE3 dx=-50 dy=0 dh=-50 dv=0 dx=0 dy=0 dh=0 dv=0
PairPos2: "'kern' Horizontal Kerning lookup 15-1" uni0645 dx=-50 dy=0 dh=-50 dv=0 dx=0 dy=0 dh=0 dv=0
PairPos2: "'kern' Horizontal Kerning lookup 15-1" uniFEFB dx=-50 dy=0 dh=-50 dv=0 dx=0 dy=0 dh=0 dv=0
PairPos2: "'kern' Horizontal Kerning lookup 15-1" uniFEDF dx=-50 dy=0 dh=-50 dv=0 dx=0 dy=0 dh=0 dv=0
PairPos2: "'kern' Horizontal Kerning lookup 15-1" uni0644 dx=-50 dy=0 dh=-50 dv=0 dx=0 dy=0 dh=0 dv=0
PairPos2: "'kern' Horizontal Kerning lookup 15-1" uniFEDB dx=-150 dy=0 dh=-150 dv=0 dx=0 dy=0 dh=0 dv=0
PairPos2: "'kern' Horizontal Kerning lookup 15-1" uni0643 dx=-50 dy=0 dh=-50 dv=0 dx=0 dy=0 dh=0 dv=0
PairPos2: "'kern' Horizontal Kerning lookup 15-1" uniFED7 dx=-50 dy=0 dh=-50 dv=0 dx=0 dy=0 dh=0 dv=0
PairPos2: "'kern' Horizontal Kerning lookup 15-1" uni0642 dx=-50 dy=0 dh=-50 dv=0 dx=0 dy=0 dh=0 dv=0
PairPos2: "'kern' Horizontal Kerning lookup 15-1" uniFED3 dx=-50 dy=0 dh=-50 dv=0 dx=0 dy=0 dh=0 dv=0
PairPos2: "'kern' Horizontal Kerning lookup 15-1" uni0641 dx=-50 dy=0 dh=-50 dv=0 dx=0 dy=0 dh=0 dv=0
PairPos2: "'kern' Horizontal Kerning lookup 15-1" uniFECF dx=-50 dy=0 dh=-50 dv=0 dx=0 dy=0 dh=0 dv=0
PairPos2: "'kern' Horizontal Kerning lookup 15-1" uniFECB dx=-50 dy=0 dh=-50 dv=0 dx=0 dy=0 dh=0 dv=0
PairPos2: "'kern' Horizontal Kerning lookup 15-1" uniFEC7 dx=-50 dy=0 dh=-50 dv=0 dx=0 dy=0 dh=0 dv=0
PairPos2: "'kern' Horizontal Kerning lookup 15-1" uni0638 dx=-50 dy=0 dh=-50 dv=0 dx=0 dy=0 dh=0 dv=0
PairPos2: "'kern' Horizontal Kerning lookup 15-1" uniFEC3 dx=-50 dy=0 dh=-50 dv=0 dx=0 dy=0 dh=0 dv=0
PairPos2: "'kern' Horizontal Kerning lookup 15-1" uni0637 dx=-50 dy=0 dh=-50 dv=0 dx=0 dy=0 dh=0 dv=0
PairPos2: "'kern' Horizontal Kerning lookup 15-1" uniFEBF dx=-50 dy=0 dh=-50 dv=0 dx=0 dy=0 dh=0 dv=0
PairPos2: "'kern' Horizontal Kerning lookup 15-1" uni0636 dx=-50 dy=0 dh=-50 dv=0 dx=0 dy=0 dh=0 dv=0
PairPos2: "'kern' Horizontal Kerning lookup 15-1" uniFEBB dx=-50 dy=0 dh=-50 dv=0 dx=0 dy=0 dh=0 dv=0
PairPos2: "'kern' Horizontal Kerning lookup 15-1" uni0635 dx=-50 dy=0 dh=-50 dv=0 dx=0 dy=0 dh=0 dv=0
PairPos2: "'kern' Horizontal Kerning lookup 15-1" uniFEB7 dx=-50 dy=0 dh=-50 dv=0 dx=0 dy=0 dh=0 dv=0
PairPos2: "'kern' Horizontal Kerning lookup 15-1" uni0634 dx=-50 dy=0 dh=-50 dv=0 dx=0 dy=0 dh=0 dv=0
PairPos2: "'kern' Horizontal Kerning lookup 15-1" uniFEB3 dx=-50 dy=0 dh=-50 dv=0 dx=0 dy=0 dh=0 dv=0
PairPos2: "'kern' Horizontal Kerning lookup 15-1" uni0633 dx=-50 dy=0 dh=-50 dv=0 dx=0 dy=0 dh=0 dv=0
PairPos2: "'kern' Horizontal Kerning lookup 15-1" uni0632 dx=-50 dy=0 dh=-50 dv=0 dx=0 dy=0 dh=0 dv=0
PairPos2: "'kern' Horizontal Kerning lookup 15-1" uni0631 dx=-50 dy=0 dh=-50 dv=0 dx=0 dy=0 dh=0 dv=0
PairPos2: "'kern' Horizontal Kerning lookup 15-1" uni0630 dx=-50 dy=0 dh=-50 dv=0 dx=0 dy=0 dh=0 dv=0
PairPos2: "'kern' Horizontal Kerning lookup 15-1" uni062F dx=-50 dy=0 dh=-50 dv=0 dx=0 dy=0 dh=0 dv=0
PairPos2: "'kern' Horizontal Kerning lookup 15-1" uniFEA7 dx=-50 dy=0 dh=-50 dv=0 dx=0 dy=0 dh=0 dv=0
PairPos2: "'kern' Horizontal Kerning lookup 15-1" uniFEA3 dx=-50 dy=0 dh=-50 dv=0 dx=0 dy=0 dh=0 dv=0
PairPos2: "'kern' Horizontal Kerning lookup 15-1" uniFE9F dx=-50 dy=0 dh=-50 dv=0 dx=0 dy=0 dh=0 dv=0
PairPos2: "'kern' Horizontal Kerning lookup 15-1" uniFE9B dx=-50 dy=0 dh=-50 dv=0 dx=0 dy=0 dh=0 dv=0
PairPos2: "'kern' Horizontal Kerning lookup 15-1" uni062B dx=-50 dy=0 dh=-50 dv=0 dx=0 dy=0 dh=0 dv=0
PairPos2: "'kern' Horizontal Kerning lookup 15-1" uniFE97 dx=-50 dy=0 dh=-50 dv=0 dx=0 dy=0 dh=0 dv=0
PairPos2: "'kern' Horizontal Kerning lookup 15-1" uni062A dx=-50 dy=0 dh=-50 dv=0 dx=0 dy=0 dh=0 dv=0
PairPos2: "'kern' Horizontal Kerning lookup 15-1" uni0629 dx=-50 dy=0 dh=-50 dv=0 dx=0 dy=0 dh=0 dv=0
PairPos2: "'kern' Horizontal Kerning lookup 15-1" uni0628 dx=-50 dy=0 dh=-50 dv=0 dx=0 dy=0 dh=0 dv=0
PairPos2: "'kern' Horizontal Kerning lookup 15-1" uni0627 dx=-50 dy=0 dh=-50 dv=0 dx=0 dy=0 dh=0 dv=0
PairPos2: "'kern' Horizontal Kerning lookup 15-1" uni0623 dx=-50 dy=0 dh=-50 dv=0 dx=0 dy=0 dh=0 dv=0
PairPos2: "'kern' Horizontal Kerning lookup 15-1" uni0622 dx=-100 dy=0 dh=-100 dv=0 dx=0 dy=0 dh=0 dv=0
PairPos2: "'kern' Horizontal Kerning lookup 15-1" uni0621 dx=-50 dy=0 dh=-50 dv=0 dx=0 dy=0 dh=0 dv=0
PairPos2: "'kern' Horizontal Kerning lookup 15-1" uniFB94 dx=-150 dy=0 dh=-150 dv=0 dx=0 dy=0 dh=0 dv=0
PairPos2: "'kern' Horizontal Kerning lookup 15-1" uniFB92 dx=-150 dy=0 dh=-150 dv=0 dx=0 dy=0 dh=0 dv=0
PairPos2: "'kern' Horizontal Kerning lookup 15-1" afii57509 dx=-150 dy=0 dh=-150 dv=0 dx=0 dy=0 dh=0 dv=0
PairPos2: "'kern' Horizontal Kerning lookup 15-1" afii57508 dx=-50 dy=0 dh=-50 dv=0 dx=0 dy=0 dh=0 dv=0
PairPos2: "'kern' Horizontal Kerning lookup 15-1" uniFB7C dx=-50 dy=0 dh=-50 dv=0 dx=0 dy=0 dh=0 dv=0
PairPos2: "'kern' Horizontal Kerning lookup 15-1" afii57506 dx=-50 dy=0 dh=-50 dv=0 dx=0 dy=0 dh=0 dv=0
PairPos2: "'kern' Horizontal Kerning lookup 15-1" uniFE8B dx=-50 dy=0 dh=-50 dv=0 dx=0 dy=0 dh=0 dv=0
Substitution2: "'fina' Terminal Forms in Arabic lookup 9 subtable" uniFEEE
EndChar

StartChar: uni0649
Encoding: 1609 1609 41
Width: 1490
VWidth: 2324
GlyphClass: 2
Flags: W
AnchorPoint: "Anchor-10" 455.085 1041.11 basechar 0
AnchorPoint: "Anchor-7" 238.388 -557.419 basechar 0
LayerCount: 2
Fore
SplineSet
1325.94628906 -131.088867188 m 132,-1,1
 1251 -227 1251 -227 1158.5 -282 c 4,2,3
 976 -391 976 -391 700.431640625 -396.797851562 c 4,4,5
 425 -403 425 -403 278 -318 c 132,-1,6
 131 -233 131 -233 100.5 -67 c 132,-1,7
 70 99 70 99 121.374023438 292.638671875 c 4,8,9
 171 479 171 479 260.240234375 612.173828125 c 4,10,11
 299 670 299 670 342.19140625 649.874023438 c 4,12,13
 385 630 385 630 346.39453125 547.276367188 c 4,14,15
 308 465 308 465 267.39453125 300.276367188 c 4,16,17
 227 136 227 136 297.227539062 23.6064453125 c 4,18,19
 398 -138 398 -138 744.716796875 -133.001953125 c 4,20,21
 1017 -129 1017 -129 1161.32714844 -27.759765625 c 4,22,23
 1232 22 1232 22 1236 46 c 4,24,25
 1241 81 1241 81 1127.5 70 c 4,26,27
 964 54 964 54 878.618164062 127.716796875 c 4,28,29
 762 229 762 229 848 454 c 4,30,31
 976 788 976 788 1174.52929688 806.075195312 c 4,32,33
 1261 814 1261 814 1308.66015625 772.360351562 c 132,-1,34
 1356.31933594 730.720703125 1356.31933594 730.720703125 1367.27148438 588.37890625 c 6,35,-1
 1370.90429688 541.163085938 l 5,36,-1
 1346.89648438 543.8359375 l 6,37,38
 1130 568 1130 568 1034.0078125 456.91796875 c 4,39,40
 957 367 957 367 960.90234375 289.731445312 c 4,41,42
 963 241 963 241 1096.19335938 241.776367188 c 4,43,44
 1244 243 1244 243 1304.43945312 212.538085938 c 4,45,46
 1399 165 1399 165 1399.83789062 66.3017578125 c 4,47,48
 1401 -35 1401 -35 1325.94628906 -131.088867188 c 132,-1,1
EndSplineSet
Substitution2: "'fina' Terminal Forms in Arabic lookup 9 subtable" uniFEF0
Substitution2: "'medi' Medial Forms in Arabic lookup 11 subtable" uniFBE9
Substitution2: "'init' Initial Forms in Arabic lookup 13 subtable" uniFBE8
EndChar

StartChar: uni064B
Encoding: 1611 1611 43
Width: -21
VWidth: 1843
GlyphClass: 4
Flags: W
AnchorPoint: "Anchor-10" 487.615 889.456 mark 0
AnchorPoint: "Anchor-9" 487.615 889.456 mark 0
AnchorPoint: "Anchor-1" 455.615 1328.62 basemark 0
AnchorPoint: "Anchor-1" 487.615 889.456 mark 0
LayerCount: 2
Fore
SplineSet
241.612304688 846.409179688 m 1,0,-1
 241.612304688 938.201171875 l 1,1,-1
 644.543945312 1102.96289062 l 1,2,-1
 644.543945312 1011.16992188 l 1,3,-1
 241.612304688 846.409179688 l 1,0,-1
241.612304688 1065.21289062 m 1,4,-1
 241.612304688 1157.00390625 l 1,5,-1
 644.543945312 1321.765625 l 1,6,-1
 644.543945312 1229.97363281 l 1,7,-1
 241.612304688 1065.21289062 l 1,4,-1
EndSplineSet
EndChar

StartChar: uni064C
Encoding: 1612 1612 44
Width: -21
VWidth: 1843
GlyphClass: 4
Flags: W
AnchorPoint: "Anchor-10" 541.146 972.912 mark 0
AnchorPoint: "Anchor-9" 541.146 972.912 mark 0
AnchorPoint: "Anchor-1" 454.387 1526.68 basemark 0
AnchorPoint: "Anchor-1" 541.146 972.912 mark 0
LayerCount: 2
Fore
SplineSet
522.124023438 1386.29101562 m 0,0,1
 455.571289062 1386.29101562 455.571289062 1386.29101562 455.571289062 1326.91210938 c 0,2,3
 455.571289062 1283.86523438 455.571289062 1283.86523438 505.1640625 1264.02832031 c 0,4,5
 523.676757812 1256.62402344 523.676757812 1256.62402344 560.025390625 1245.42871094 c 1,6,-1
 570.47265625 1269.80273438 l 2,7,8
 579.752929688 1291.45800781 579.752929688 1291.45800781 579.752929688 1322.47753906 c 128,-1,9
 579.752929688 1353.49707031 579.752929688 1353.49707031 559.83984375 1369.89453125 c 128,-1,10
 539.92578125 1386.29101562 539.92578125 1386.29101562 522.124023438 1386.29101562 c 0,0,1
269.788085938 1109.39160156 m 0,11,12
 305.247070312 1033.41308594 305.247070312 1033.41308594 359.63671875 1033.41308594 c 128,-1,13
 414.025390625 1033.41308594 414.025390625 1033.41308594 474.21484375 1091.66210938 c 0,14,15
 509.388671875 1125.88574219 509.388671875 1125.88574219 529.4453125 1166 c 2,16,-1
 537.647460938 1182.40820312 l 1,17,-1
 519.700195312 1186.21582031 l 2,18,19
 445.576171875 1201.92773438 445.576171875 1201.92773438 405.114257812 1257.77148438 c 0,20,21
 382.6953125 1288.71289062 382.6953125 1288.71289062 382.6953125 1312.94238281 c 128,-1,22
 382.6953125 1337.17089844 382.6953125 1337.17089844 383.84765625 1346.81542969 c 0,23,24
 388.455078125 1385.38378906 388.455078125 1385.38378906 417.099609375 1421.37207031 c 128,-1,25
 445.744140625 1457.359375 445.744140625 1457.359375 509.552734375 1457.359375 c 128,-1,26
 573.361328125 1457.359375 573.361328125 1457.359375 612.091796875 1419.44433594 c 128,-1,27
 650.822265625 1381.52929688 650.822265625 1381.52929688 650.822265625 1316.06445312 c 0,28,29
 650.822265625 1282.99414062 650.822265625 1282.99414062 640.6328125 1250.72851562 c 2,30,-1
 635.115234375 1233.26074219 l 1,31,-1
 653.412109375 1232.30078125 l 2,32,33
 672.018554688 1231.31738281 672.018554688 1231.31738281 704.154296875 1230.6171875 c 1,34,-1
 704.154296875 1159.4609375 l 1,35,36
 673.32421875 1159.72265625 673.32421875 1159.72265625 659.130859375 1161.14648438 c 2,37,-1
 601.794921875 1166.65820312 l 1,38,39
 575.193359375 1104.31445312 575.193359375 1104.31445312 524.059570312 1051.65039062 c 128,-1,40
 472.924804688 998.986328125 472.924804688 998.986328125 435.029296875 980.666015625 c 128,-1,41
 397.134765625 962.345703125 397.134765625 962.345703125 357.666015625 962.345703125 c 0,42,43
 264.548828125 962.345703125 264.548828125 962.345703125 217.31640625 1092.24511719 c 0,44,45
 205.642578125 1124.14648438 205.642578125 1124.14648438 204.690429688 1212.39257812 c 1,46,-1
 257.685546875 1212.39257812 l 1,47,48
 258.626953125 1133.57421875 258.626953125 1133.57421875 269.788085938 1109.39160156 c 0,11,12
683.59375 1231.37597656 m 2,49,-1
 683.510742188 1231.38085938 l 2,50,51
 683.552734375 1231.37792969 683.552734375 1231.37792969 683.59375 1231.37597656 c 2,49,-1
EndSplineSet
EndChar

StartChar: uni064D
Encoding: 1613 1613 45
Width: -21
VWidth: 1843
GlyphClass: 4
Flags: W
AnchorPoint: "Anchor-7" 442.099 60.582 mark 0
AnchorPoint: "Anchor-6" 442.099 60.582 mark 0
AnchorPoint: "Anchor-0" 508.415 -374.489 basemark 0
AnchorPoint: "Anchor-0" 442.099 60.582 mark 0
LayerCount: 2
Fore
SplineSet
245.836914062 -412.342773438 m 1,0,-1
 245.836914062 -320.55078125 l 1,1,-1
 648.767578125 -155.790039062 l 1,2,-1
 648.767578125 -247.581054688 l 1,3,-1
 245.836914062 -412.342773438 l 1,0,-1
245.836914062 -193.540039062 m 1,4,-1
 245.836914062 -101.748046875 l 1,5,-1
 648.767578125 63.013671875 l 1,6,-1
 648.767578125 -28.7783203125 l 1,7,-1
 245.836914062 -193.540039062 l 1,4,-1
EndSplineSet
EndChar

StartChar: uni064E
Encoding: 1614 1614 46
Width: -21
VWidth: 1843
GlyphClass: 4
Flags: W
AnchorPoint: "Anchor-10" 462.271 1088.92 mark 0
AnchorPoint: "Anchor-9" 462.271 1088.92 mark 0
AnchorPoint: "Anchor-1" 430.271 1348.9 basemark 0
AnchorPoint: "Anchor-1" 462.271 1088.92 mark 0
LayerCount: 2
Fore
SplineSet
217.11328125 1064.3671875 m 1,0,-1
 217.11328125 1156.15917969 l 1,1,-1
 620.044921875 1320.92089844 l 1,2,-1
 620.044921875 1229.12890625 l 1,3,-1
 217.11328125 1064.3671875 l 1,0,-1
EndSplineSet
EndChar

StartChar: uni064F
Encoding: 1615 1615 47
Width: -21
VWidth: 1843
GlyphClass: 4
Flags: W
AnchorPoint: "Anchor-10" 492.498 1024.81 mark 0
AnchorPoint: "Anchor-9" 492.498 1024.81 mark 0
AnchorPoint: "Anchor-1" 437.215 1538.56 basemark 0
AnchorPoint: "Anchor-1" 492.498 1024.81 mark 0
LayerCount: 2
Fore
SplineSet
658.181640625 1171.37988281 m 1,0,1
 612.799804688 1172 612.799804688 1172 552.587890625 1178.41601562 c 1,2,3
 510.400390625 1119.20019531 510.400390625 1119.20019531 450.702148438 1082.39941406 c 0,4,5
 356 1023.20019531 356 1023.20019531 248.799804688 1019.20019531 c 1,6,-1
 248.799804688 1090.19335938 l 1,7,8
 353.599609375 1093.59960938 353.599609375 1093.59960938 416.251953125 1145.92773438 c 0,9,10
 444 1168.79980469 444 1168.79980469 455.759765625 1181.67578125 c 2,11,-1
 473.024414062 1199.86035156 l 1,12,-1
 448.551757812 1205.29296875 l 2,13,14
 443.200195312 1206.40039062 443.200195312 1206.40039062 411.861328125 1222.51464844 c 0,15,16
 381.599609375 1238.40039062 381.599609375 1238.40039062 359.088867188 1269.25585938 c 0,17,18
 336.799804688 1300 336.799804688 1300 336.723632812 1337.42578125 c 0,19,20
 336.799804688 1410.40039062 336.799804688 1410.40039062 393.420898438 1453.09179688 c 0,21,22
 415.200195312 1469.59960938 415.200195312 1469.59960938 471.169921875 1469.23730469 c 0,23,24
 527.200195312 1469.59960938 527.200195312 1469.59960938 566.120117188 1431.32226562 c 0,25,26
 604.799804688 1393.59960938 604.799804688 1393.59960938 604.849609375 1327.94335938 c 0,27,28
 604.799804688 1301.00097656 604.799804688 1301.00097656 592.834960938 1262.55175781 c 2,29,-1
 587.451171875 1245.24902344 l 1,30,-1
 605.544921875 1244.1796875 l 2,31,32
 636 1242.40039062 636 1242.40039062 658.181640625 1242.42285156 c 1,33,-1
 658.181640625 1171.37988281 l 1,0,1
514.053710938 1257.30761719 m 1,34,-1
 524.500976562 1281.6796875 l 2,35,36
 533.782226562 1303.33886719 533.782226562 1303.33886719 533.782226562 1334.35742188 c 128,-1,37
 533.782226562 1365.375 533.782226562 1365.375 513.865234375 1381.77246094 c 128,-1,38
 493.948242188 1398.16992188 493.948242188 1398.16992188 469.811523438 1398.16992188 c 128,-1,39
 445.674804688 1398.16992188 445.674804688 1398.16992188 427.637695312 1384.4296875 c 128,-1,40
 409.599609375 1370.68945312 409.599609375 1370.68945312 409.599609375 1333.21679688 c 128,-1,41
 409.599609375 1295.74414062 409.599609375 1295.74414062 459.192382812 1275.90527344 c 0,42,43
 477.728515625 1268.4921875 477.728515625 1268.4921875 514.053710938 1257.30761719 c 1,34,-1
EndSplineSet
EndChar

StartChar: uni0650
Encoding: 1616 1616 48
Width: -21
VWidth: 1843
GlyphClass: 4
Flags: W
AnchorPoint: "Anchor-7" 453.913 -12.96 mark 0
AnchorPoint: "Anchor-6" 453.913 -12.96 mark 0
AnchorPoint: "Anchor-0" 492.019 -261.556 basemark 0
AnchorPoint: "Anchor-0" 453.913 -12.96 mark 0
LayerCount: 2
Fore
SplineSet
254.28515625 -282.244140625 m 1,0,-1
 254.28515625 -190.451171875 l 1,1,-1
 657.215820312 -25.6904296875 l 1,2,-1
 657.215820312 -117.482421875 l 1,3,-1
 254.28515625 -282.244140625 l 1,0,-1
EndSplineSet
EndChar

StartChar: uni0651
Encoding: 1617 1617 49
Width: -21
VWidth: 1843
GlyphClass: 4
Flags: W
AnchorPoint: "Anchor-10" 487.615 1112.18 mark 0
AnchorPoint: "Anchor-9" 487.615 1112.18 mark 0
AnchorPoint: "Anchor-1" 463.077 1472.27 basemark 0
AnchorPoint: "Anchor-1" 487.615 1112.18 mark 0
LayerCount: 2
Fore
SplineSet
461.92578125 1225.53710938 m 1,0,1
 437.599609375 1093.59960938 437.599609375 1093.59960938 321.987304688 1093.50097656 c 0,2,3
 206.400390625 1093.59960938 206.400390625 1093.59960938 205.749023438 1242.31445312 c 0,4,5
 205.599609375 1272 205.599609375 1272 218.169921875 1354.91113281 c 1,6,-1
 278.260742188 1354.91113281 l 1,7,8
 268 1283.20019531 268 1283.20019531 268 1260.79980469 c 0,9,10
 268 1170.40039062 268 1170.40039062 331.959960938 1170.46191406 c 0,11,12
 420 1170.40039062 420 1170.40039062 424.484375 1285.96191406 c 0,13,14
 425.599609375 1317.59960938 425.599609375 1317.59960938 425.5 1355.29296875 c 0,15,16
 425.599609375 1392.79980469 425.599609375 1392.79980469 425.490234375 1399.96484375 c 1,17,-1
 484.8984375 1399.96484375 l 1,18,19
 486.400390625 1371.20019531 486.400390625 1371.20019531 486.629882812 1332.79296875 c 0,20,21
 486.400390625 1220.16308594 486.400390625 1220.16308594 584.364257812 1220.32519531 c 2,22,-1
 584.869140625 1220.32617188 l 2,23,24
 644 1220.79980469 644 1220.79980469 644.177734375 1315.59765625 c 0,25,26
 644.799804688 1400 644.799804688 1400 635.458984375 1449.86816406 c 1,27,-1
 699.154296875 1449.86816406 l 1,28,29
 708 1386.40039062 708 1386.40039062 708 1311.20019531 c 0,30,31
 708 1188.79980469 708 1188.79980469 640.5234375 1159.93359375 c 0,32,33
 614.400390625 1148.79980469 614.400390625 1148.79980469 588.799804688 1148 c 0,34,35
 532 1145.59960938 532 1145.59960938 502.400390625 1167.20019531 c 0,36,37
 466.400390625 1193.59960938 466.400390625 1193.59960938 461.92578125 1225.53710938 c 1,0,1
EndSplineSet
EndChar

StartChar: uni0652
Encoding: 1618 1618 50
Width: -27
VWidth: 2304
GlyphClass: 4
Flags: W
AnchorPoint: "Anchor-10" 588.527 1187.7 mark 0
AnchorPoint: "Anchor-9" 588.527 1187.7 mark 0
AnchorPoint: "Anchor-1" 573.743 1793.31 basemark 0
AnchorPoint: "Anchor-1" 588.527 1187.7 mark 0
LayerCount: 2
Fore
SplineSet
707.344726562 1457.10253906 m 0,0,1
 707.344726562 1505.78320312 707.344726562 1505.78320312 673.299804688 1539.828125 c 128,-1,2
 639.258789062 1573.87304688 639.258789062 1573.87304688 589.884765625 1573.87304688 c 0,3,4
 539.819335938 1573.87304688 539.819335938 1573.87304688 506.124023438 1540.17675781 c 128,-1,5
 472.427734375 1506.48046875 472.427734375 1506.48046875 472.427734375 1457.10253906 c 0,6,7
 472.427734375 1407.03808594 472.427734375 1407.03808594 506.124023438 1373.34277344 c 128,-1,8
 539.819335938 1339.64648438 539.819335938 1339.64648438 589.884765625 1339.64648438 c 0,9,10
 639.260742188 1339.64648438 639.260742188 1339.64648438 673.299804688 1373.69140625 c 128,-1,11
 707.344726562 1407.73535156 707.344726562 1407.73535156 707.344726562 1457.10253906 c 0,0,1
779.41796875 1457.21875 m 128,-1,13
 779.41796875 1377.71484375 779.41796875 1377.71484375 724.528320312 1322.47265625 c 128,-1,14
 669.673828125 1267.2734375 669.673828125 1267.2734375 590.212890625 1267.2734375 c 0,15,16
 563.655273438 1267.2734375 563.655273438 1267.2734375 539.920898438 1273.39550781 c 128,-1,17
 516.186523438 1279.51757812 516.186523438 1279.51757812 495.203125 1291.77636719 c 128,-1,18
 474.220703125 1304.03515625 474.220703125 1304.03515625 455.8984375 1322.47265625 c 0,19,20
 428.400390625 1350.14648438 428.400390625 1350.14648438 414.704101562 1383.76074219 c 128,-1,21
 401.006835938 1417.375 401.006835938 1417.375 401.006835938 1457.21875 c 0,22,23
 401.006835938 1536.6953125 401.006835938 1536.6953125 455.8671875 1591.56542969 c 128,-1,24
 510.7265625 1646.42480469 510.7265625 1646.42480469 590.212890625 1646.42480469 c 128,-1,25
 669.698242188 1646.42480469 669.698242188 1646.42480469 724.556640625 1591.56542969 c 128,-1,12
 779.41796875 1536.6953125 779.41796875 1536.6953125 779.41796875 1457.21875 c 128,-1,13
EndSplineSet
EndChar

StartChar: uni0653
Encoding: 1619 1619 51
Width: -3
VWidth: 2277
GlyphClass: 4
Flags: W
AnchorPoint: "Anchor-10" 466.962 1309.68 mark 0
AnchorPoint: "Anchor-9" 466.962 1309.68 mark 0
AnchorPoint: "Anchor-1" 466.962 1694.04 basemark 0
AnchorPoint: "Anchor-1" 466.962 1309.68 mark 0
LayerCount: 2
Fore
SplineSet
537.189284981 1380.22612459 m 0,0,1
 489.017705476 1366.90615586 489.017705476 1366.90615586 320.676276496 1378.7500774 c 0,2,3
 235.902247954 1384.71448527 235.902247954 1384.71448527 169.096142205 1316.95400658 c 0,4,5
 152.231723059 1300.08958744 152.231723059 1300.08958744 137.891656154 1302.50911504 c 128,-1,6
 123.551589248 1304.92864264 123.551589248 1304.92864264 136.576665918 1358.29020969 c 128,-1,7
 149.601742588 1411.65177674 149.601742588 1411.65177674 192.612094288 1456.25111517 c 128,-1,8
 235.622445988 1500.85045359 235.622445988 1500.85045359 277.98813229 1502.43623678 c 128,-1,9
 320.353818591 1504.02201996 320.353818591 1504.02201996 359.933350158 1499.51482644 c 128,-1,10
 399.512881724 1495.00763292 399.512881724 1495.00763292 507.683056459 1496.49588149 c 128,-1,11
 615.853231194 1497.98413005 615.853231194 1497.98413005 638.515670404 1502.89664154 c 128,-1,12
 661.178109614 1507.80915302 661.178109614 1507.80915302 670.406141066 1502.69376785 c 128,-1,13
 679.494773077 1497.65565612 679.494773077 1497.65565612 670.037074613 1482.45009381 c 0,14,15
 615.201643666 1401.31765374 615.201643666 1401.31765374 537.189284981 1380.22612459 c 0,0,1
EndSplineSet
EndChar

StartChar: uni0657
Encoding: 1623 1623 54
Width: -29
VWidth: 2488
GlyphClass: 4
Flags: W
AnchorPoint: "Anchor-10" 615.08 1455.92 mark 0
AnchorPoint: "Anchor-9" 615.08 1455.92 mark 0
AnchorPoint: "Anchor-1" 615.08 2249.13 basemark 0
AnchorPoint: "Anchor-1" 615.08 1455.92 mark 0
LayerCount: 2
Fore
SplineSet
711.864257812 1733.08398438 m 0,0,1
 711.719726562 1545.40039062 711.719726562 1545.40039062 530.360351562 1547.06835938 c 0,2,3
 454.6796875 1547.55957031 454.6796875 1547.55957031 402.1796875 1598.25488281 c 0,4,5
 349.919921875 1649.08007812 349.919921875 1649.08007812 349.893554688 1737.81640625 c 0,6,7
 349.919921875 1774.046875 349.919921875 1774.046875 366.11328125 1826.09472656 c 2,8,-1
 373.381835938 1849.45410156 l 1,9,-1
 348.954101562 1850.89648438 l 2,10,11
 309.959960938 1853.20019531 309.959960938 1853.20019531 277.895507812 1853.26855469 c 1,12,-1
 277.895507812 1949.17675781 l 1,13,14
 339.120117188 1948.24023438 339.120117188 1948.24023438 420.448242188 1939.67871094 c 1,15,16
 477.360351562 2020.59960938 477.360351562 2020.59960938 557.994140625 2069.30078125 c 0,17,18
 753.83984375 2189.08007812 753.83984375 2189.08007812 847.799804688 2194.20019531 c 1,19,-1
 847.799804688 2098.36035156 l 1,20,21
 747.360351562 2095.12011719 747.360351562 2095.12011719 604.5 1983.53613281 c 0,22,23
 575.639648438 1961.20019531 575.639648438 1961.20019531 551.166015625 1935.27832031 c 2,24,-1
 527.861328125 1910.74414062 l 1,25,-1
 560.892578125 1903.39355469 l 2,26,27
 570.240234375 1901.79980469 570.240234375 1901.79980469 610.428710938 1880.14453125 c 0,28,29
 651.240234375 1858.59960938 651.240234375 1858.59960938 681.670898438 1817.04296875 c 0,30,31
 711.719726562 1775.44042969 711.719726562 1775.44042969 711.864257812 1733.08398438 c 0,0,1
518.581054688 1643.01171875 m 0,32,33
 613.481445312 1643.01171875 613.481445312 1643.01171875 613.481445312 1723.17285156 c 0,34,35
 613.481445312 1781.28417969 613.481445312 1781.28417969 546.533203125 1808.06640625 c 0,36,37
 521.615234375 1818.03808594 521.615234375 1818.03808594 472.469726562 1833.17578125 c 1,38,-1
 458.366210938 1800.27246094 l 2,39,40
 445.834960938 1771.03710938 445.834960938 1771.03710938 445.834960938 1729.16699219 c 128,-1,41
 445.834960938 1687.296875 445.834960938 1687.296875 472.719726562 1665.15429688 c 128,-1,42
 499.603515625 1643.01171875 499.603515625 1643.01171875 518.581054688 1643.01171875 c 0,32,33
EndSplineSet
EndChar

StartChar: uni065A
Encoding: 1626 1626 55
Width: 1219
VWidth: 2488
GlyphClass: 4
Flags: W
AnchorPoint: "Anchor-10" 615.08 1455.92 mark 0
AnchorPoint: "Anchor-9" 615.08 1455.92 mark 0
AnchorPoint: "Anchor-1" 612.64 2005.07 basemark 0
AnchorPoint: "Anchor-1" 615.08 1455.92 mark 0
LayerCount: 2
Fore
SplineSet
535.634765625 1550.72949219 m 1,0,-1
 320.578125 1910.25976562 l 1,1,-1
 446.194335938 1910.25976562 l 1,2,-1
 615.080078125 1656.92382812 l 1,3,-1
 783.965820312 1910.25976562 l 1,4,-1
 909.583007812 1910.25976562 l 1,5,-1
 694.5234375 1550.72949219 l 1,6,-1
 535.634765625 1550.72949219 l 1,0,-1
EndSplineSet
EndChar

StartChar: afii57392
Encoding: 1632 1632 56
Width: 800
VWidth: 2295
GlyphClass: 2
Flags: W
LayerCount: 2
Fore
SplineSet
299.487304688 623.79296875 m 0,0,1
 299.487304688 603.826171875 299.487304688 603.826171875 306.673828125 586.609375 c 0,2,3
 309.071289062 580.8671875 309.071289062 580.8671875 312.216796875 575.497070312 c 128,-1,4
 315.362304688 570.125976562 315.362304688 570.125976562 319.369140625 564.986328125 c 128,-1,5
 323.375976562 559.846679688 323.375976562 559.846679688 328.231445312 554.990234375 c 0,6,7
 342.580078125 540.642578125 342.580078125 540.642578125 359.8515625 533.432617188 c 128,-1,8
 377.068359375 526.245117188 377.068359375 526.245117188 397.03515625 526.245117188 c 0,9,10
 437.090820312 526.245117188 437.090820312 526.245117188 465.8359375 554.989257812 c 0,11,12
 468.264648438 557.41796875 468.264648438 557.41796875 470.479492188 559.91796875 c 128,-1,13
 472.6953125 562.418945312 472.6953125 562.418945312 474.69140625 564.983398438 c 128,-1,14
 476.688476562 567.547851562 476.688476562 567.547851562 478.47265625 570.172851562 c 128,-1,15
 480.2578125 572.797851562 480.2578125 572.797851562 481.850585938 575.51171875 c 0,16,17
 483.12109375 577.674804688 483.12109375 577.674804688 484.260742188 579.877929688 c 128,-1,18
 485.400390625 582.081054688 485.400390625 582.081054688 486.413085938 584.330078125 c 128,-1,19
 487.424804688 586.580078125 487.424804688 586.580078125 488.311523438 588.879882812 c 128,-1,20
 489.198242188 591.1796875 489.198242188 591.1796875 489.959960938 593.530273438 c 128,-1,21
 490.721679688 595.881835938 490.721679688 595.881835938 491.361328125 598.294921875 c 0,22,23
 494.583007812 610.432617188 494.583007812 610.432617188 494.583007812 623.79296875 c 0,24,25
 494.583007812 630.510742188 494.583007812 630.510742188 493.765625 636.928710938 c 0,26,27
 493.495117188 639.056640625 493.495117188 639.056640625 493.135742188 641.142578125 c 128,-1,28
 492.77734375 643.228515625 492.77734375 643.228515625 492.333007812 645.263671875 c 128,-1,29
 491.889648438 647.299804688 491.889648438 647.299804688 491.357421875 649.302734375 c 0,30,31
 489.767578125 655.290039062 489.767578125 655.290039062 487.388671875 660.987304688 c 0,32,33
 486.793945312 662.412109375 486.793945312 662.412109375 486.15234375 663.815429688 c 128,-1,34
 485.509765625 665.217773438 485.509765625 665.217773438 484.818359375 666.6015625 c 128,-1,35
 484.126953125 667.985351562 484.126953125 667.985351562 483.385742188 669.350585938 c 128,-1,36
 482.645507812 670.715820312 482.645507812 670.715820312 481.854492188 672.063476562 c 0,37,38
 478.67578125 677.477539062 478.67578125 677.477539062 474.693359375 682.592773438 c 128,-1,39
 470.666015625 687.763671875 470.666015625 687.763671875 465.8359375 692.594726562 c 0,40,41
 437.090820312 721.340820312 437.090820312 721.340820312 397.03515625 721.340820312 c 0,42,43
 386.930664062 721.340820312 386.930664062 721.340820312 377.69921875 719.544921875 c 128,-1,44
 368.466796875 717.749023438 368.466796875 717.749023438 359.852539062 714.153320312 c 0,45,46
 354.110351562 711.755859375 354.110351562 711.755859375 348.739257812 708.610351562 c 128,-1,47
 343.369140625 705.46484375 343.369140625 705.46484375 338.228515625 701.458007812 c 128,-1,48
 333.088867188 697.451171875 333.088867188 697.451171875 328.232421875 692.594726562 c 0,49,50
 313.540039062 677.901367188 313.540039062 677.901367188 306.513671875 661.059570312 c 128,-1,51
 299.487304688 644.216796875 299.487304688 644.216796875 299.487304688 623.79296875 c 0,0,1
130.5859375 620.561523438 m 0,52,53
 130.5859375 732.543945312 130.5859375 732.543945312 209.638671875 812.05859375 c 0,54,55
 249.181640625 851.83203125 249.181640625 851.83203125 296.701171875 871.68359375 c 128,-1,56
 344.25 891.547851562 344.25 891.547851562 399.947265625 891.547851562 c 0,57,58
 437.005859375 891.547851562 437.005859375 891.547851562 470.447265625 882.756835938 c 128,-1,59
 504.084960938 873.916015625 504.084960938 873.916015625 534.115234375 856.159179688 c 0,60,61
 549.064453125 847.3203125 549.064453125 847.3203125 563.106445312 836.282226562 c 128,-1,62
 577.1484375 825.243164062 577.1484375 825.243164062 590.255859375 812.05859375 c 0,63,64
 669.306640625 732.54296875 669.306640625 732.54296875 669.306640625 620.561523438 c 128,-1,65
 669.306640625 508.571289062 669.306640625 508.571289062 590.254882812 429.065429688 c 128,-1,66
 511.223632812 349.578125 511.223632812 349.578125 399.947265625 349.578125 c 0,67,68
 386.10546875 349.578125 386.10546875 349.578125 372.734375 350.806640625 c 128,-1,69
 359.362304688 352.036132812 359.362304688 352.036132812 346.482421875 354.502929688 c 0,70,71
 320.602539062 359.459960938 320.602539062 359.459960938 296.708007812 369.440429688 c 0,72,73
 292.723632812 371.104492188 292.723632812 371.104492188 288.794921875 372.909179688 c 128,-1,74
 284.865234375 374.713867188 284.865234375 374.713867188 280.997070312 376.655273438 c 128,-1,75
 277.12890625 378.59765625 277.12890625 378.59765625 273.318359375 380.677734375 c 128,-1,76
 269.508789062 382.7578125 269.508789062 382.7578125 265.758789062 384.974609375 c 128,-1,77
 262.008789062 387.192382812 262.008789062 387.192382812 258.3203125 389.544921875 c 128,-1,78
 254.631835938 391.897460938 254.631835938 391.897460938 251.00390625 394.38671875 c 0,79,80
 229.340820312 409.249023438 229.340820312 409.249023438 209.639648438 429.065429688 c 0,81,82
 170.411132812 468.521484375 170.411132812 468.521484375 150.499023438 516.75390625 c 128,-1,83
 130.5859375 564.987304688 130.5859375 564.987304688 130.5859375 620.561523438 c 0,52,53
EndSplineSet
EndChar

StartChar: afii57393
Encoding: 1633 1633 57
Width: 777
VWidth: 2149
GlyphClass: 2
Flags: W
LayerCount: 2
Fore
SplineSet
301.805664062 1435.47753906 m 1,0,1
 506.895507812 1043.14257812 506.895507812 1043.14257812 547.389648438 576.477539062 c 128,-1,2
 587.883789062 109.8125 587.883789062 109.8125 438.022460938 20.3505859375 c 1,3,-1
 393.283203125 -6.767578125 l 1,4,-1
 392.474609375 37.14453125 l 1,5,6
 381.9609375 690.216796875 381.9609375 690.216796875 182.556640625 1183.58886719 c 0,7,8
 109.142764385 1366.85109518 109.142764385 1366.85109518 258.211914062 1423.05175781 c 1,9,-1
 297.625 1438.84960938 l 1,10,-1
 301.805664062 1435.47753906 l 1,0,1
EndSplineSet
EndChar

StartChar: afii57394
Encoding: 1634 1634 58
Width: 1079
VWidth: 2149
GlyphClass: 2
Flags: W
LayerCount: 2
Fore
SplineSet
216.905273438 1439.046875 m 1,0,1
 266.892885685 1317.92354251 266.892885685 1317.92354251 305.275390625 1244.73632812 c 0,2,3
 391.180137292 1084.93945312 391.180137292 1084.93945312 582.942284388 1088.80371094 c 0,4,5
 709.922706892 1091.56358532 709.922706892 1091.56358532 761.468203136 1204.98242188 c 0,6,7
 776.455078125 1238.80273438 776.455078125 1238.80273438 790.17969789 1296.854015 c 0,8,9
 803.904317655 1354.90529563 803.904317655 1354.90529563 849.966318984 1386.43848766 c 128,-1,10
 896.028320312 1417.97167969 896.028320312 1417.97167969 964.368164062 1401.58886719 c 2,11,-1
 1008.74707031 1390.95019531 l 1,12,13
 998.828342516 1105.01241434 998.828342516 1105.01241434 854.995117188 973.223632812 c 0,14,15
 755.808101779 882.825195312 755.808101779 882.825195312 590.632984189 874.772460938 c 0,16,17
 502.968417797 871.12109375 502.968417797 871.12109375 427.449592126 886.399414062 c 1,18,19
 561.953526403 138.335787547 561.953526403 138.335787547 356.549482815 21.41015625 c 1,20,-1
 310.278320312 -5.2509765625 l 1,21,-1
 309.469726562 46.2705078125 l 2,22,23
 298.956054688 692.614257812 298.956054688 692.614257812 99.5517578125 1180.90234375 c 0,24,25
 64.4265147343 1266.85117991 64.4265147343 1266.85117991 83.1663823671 1330.21758214 c 128,-1,26
 101.90625 1393.58398438 101.90625 1393.58398438 175.20703125 1422.5625 c 2,27,-1
 216.905273438 1439.046875 l 1,0,1
EndSplineSet
EndChar

StartChar: afii57395
Encoding: 1635 1635 59
Width: 1248
VWidth: 2149
GlyphClass: 2
Flags: W
LayerCount: 2
Fore
SplineSet
718.069177427 993.883789062 m 1,0,1
 618.690313448 866.526635272 618.690313448 866.526635272 418.947733587 919.34375 c 1,2,3
 456.92988634 722.881835938 456.92988634 722.881835938 471.152367306 549.024414062 c 0,4,5
 509.658585918 89.783203125 509.658585918 89.783203125 357.292748476 19.0791015625 c 1,6,-1
 313.791992188 -1.5927734375 l 1,7,-1
 313.005859375 36.7197265625 l 1,8,9
 300.897460938 734.578125 300.897460938 734.578125 101.063476562 1180.3515625 c 0,10,11
 63.3125 1265.87011719 63.3125 1265.87011719 84.7724609375 1332.77246094 c 0,12,13
 107.103515625 1395.84765625 107.103515625 1395.84765625 186.806640625 1429.11230469 c 1,14,-1
 216.223632812 1442.15136719 l 1,15,-1
 220.346679688 1438.15625 l 1,16,17
 288.1640625 1291.12695312 288.1640625 1291.12695312 297.552734375 1268.6015625 c 0,18,19
 363.989268051 1102.01113801 363.989268051 1102.01113801 465.36441836 1099.03613281 c 0,20,21
 553.670020449 1096.90429688 553.670020449 1096.90429688 583.235816876 1139.37207031 c 0,22,23
 625.78788683 1197.78119826 625.78788683 1197.78119826 627.743043964 1365.40234375 c 1,24,-1
 795.825808366 1397.20703125 l 1,25,-1
 796.320591161 1370.94335938 l 2,26,27
 798.614160118 1207.90597621 798.614160118 1207.90597621 808.690362128 1181.76402326 c 0,28,29
 840.974502394 1098.00523449 840.974502394 1098.00523449 902.517135228 1099.03808594 c 0,30,31
 992.4609375 1100.91503906 992.4609375 1100.91503906 1000.30078125 1274.21191406 c 0,32,33
 1005.28515625 1382.27441406 1005.28515625 1382.27441406 1076.36132812 1410.6796875 c 0,34,35
 1101.53516504 1419.49565828 1101.53516504 1419.49565828 1136.15039062 1413.8984375 c 2,36,-1
 1173.36914062 1407.79394531 l 1,37,38
 1177.0018019 1335.55770928 1177.0018019 1335.55770928 1176.82617188 1282.09863281 c 0,39,40
 1170.02148438 999.909179688 1170.02148438 999.909179688 1020.88476562 930.213867188 c 0,41,42
 840.564181049 846.701117999 840.564181049 846.701117999 718.069177427 993.883789062 c 1,0,1
EndSplineSet
EndChar

StartChar: afii57396
Encoding: 1636 1636 60
Width: 940
VWidth: 2452
GlyphClass: 2
Flags: W
LayerCount: 2
Fore
SplineSet
259.053710938 350.547851562 m 1,0,1
 435.147157156 292.358817224 435.147157156 292.358817224 839.891601562 333.549804688 c 1,2,-1
 877.885742188 53.3955078125 l 1,3,-1
 846.100585938 51.095703125 l 1,4,5
 344.815084232 16.1414587009 344.815084232 16.1414587009 65.7001953125 230.89453125 c 1,6,7
 87.2796281108 491.625985439 87.2796281108 491.625985439 339.226936622 708.01953125 c 1,8,9
 139.204736217 809.112377433 139.204736217 809.112377433 78.06640625 892.6171875 c 1,10,11
 134.481957208 1236.0198111 134.481957208 1236.0198111 584.108677871 1408.14550781 c 1,12,-1
 608.889623985 1417.52636719 l 1,13,-1
 623.134527949 1396.65722656 l 1,14,15
 654.026516073 1349.49781959 654.026516073 1349.49781959 660.657226562 1197.83496094 c 1,16,-1
 654.940429688 1194.95605469 l 1,17,18
 335.642015993 1043.45996094 335.642015993 1043.45996094 264.916992188 958.267578125 c 1,19,20
 427.054208186 890.5058287 427.054208186 890.5058287 727.80859375 840.43359375 c 1,21,22
 719.276520893 750.013012543 719.276520893 750.013012543 714.140625 676.008789062 c 1,23,24
 443.36086534 519.427954628 443.36086534 519.427954628 364.951428764 454.996203877 c 128,-1,25
 286.541992188 390.564453125 286.541992188 390.564453125 259.053710938 350.547851562 c 1,0,1
EndSplineSet
EndChar

StartChar: afii57397
Encoding: 1637 1637 61
Width: 1233
VWidth: 2271
GlyphClass: 2
Flags: W
LayerCount: 2
Fore
SplineSet
926.56640625 559.272460938 m 0,0,1
 901.769658773 771.704323171 901.769658773 771.704323171 702.805664062 979.169433594 c 0,2,3
 644.854492188 1039.59667969 644.854492188 1039.59667969 610.010742188 1063.10253906 c 1,4,5
 321.222953183 803.058187498 321.222953183 803.058187498 314.323242188 503.88671875 c 1,6,7
 312.364342646 225.309049663 312.364342646 225.309049663 667.844726562 222.78515625 c 0,8,9
 833.628275557 222.051475863 833.628275557 222.051475863 889.168141685 312.956890275 c 128,-1,10
 944.708007812 403.862304688 944.708007812 403.862304688 926.56640625 559.272460938 c 0,0,1
201.903320312 854.538085938 m 0,11,12
 321.53125 1062.96289062 321.53125 1062.96289062 441.662109375 1175.28710938 c 1,13,14
 413.517578125 1199.19824219 413.517578125 1199.19824219 421.439237604 1240.32311604 c 128,-1,15
 429.360897083 1281.44798989 429.360897083 1281.44798989 511.650390625 1392.60644531 c 1,16,-1
 536.372070312 1378.44140625 l 2,17,18
 833.619025773 1207.81913741 833.619025773 1207.81913741 1018.05078125 888.225585938 c 0,19,20
 1120.87890983 709.797521831 1120.87890983 709.797521831 1128.99707031 545.786132812 c 0,21,22
 1142.19921875 271.500976562 1142.19921875 271.500976562 1019.24951172 143.748046875 c 128,-1,23
 896.299804688 15.9951171875 896.299804688 15.9951171875 658.501953125 17 c 0,24,25
 339.4453125 17 339.4453125 17 206.4921875 168.196777344 c 128,-1,26
 73.5390625 319.393554688 73.5390625 319.393554688 103.53515625 558.963867188 c 0,27,28
 123.325195312 716.952148438 123.325195312 716.952148438 201.903320312 854.538085938 c 0,11,12
EndSplineSet
EndChar

StartChar: afii57398
Encoding: 1638 1638 62
Width: 1205
VWidth: 2270
GlyphClass: 2
Flags: W
LayerCount: 2
Fore
SplineSet
746.629855895 1160.80175781 m 1,0,1
 543.008882537 1106.421875 543.008882537 1106.421875 244.45703125 1147.91796875 c 0,2,3
 70.494140625 1173.57143681 70.494140625 1173.57143681 70.494140625 1335.62988281 c 2,4,-1
 70.494140625 1404.34863281 l 1,5,-1
 107.829101562 1394.93261719 l 1,6,7
 480.158332626 1306.89160156 480.158332626 1306.89160156 919.115234375 1396.28710938 c 1,8,-1
 955.349609375 1404.296875 l 1,9,-1
 955.58984375 1376.88769531 l 1,10,11
 958.993164062 868.985351562 958.993164062 868.985351562 1046.62402344 427.640625 c 0,12,13
 1083.39257812 246.211914062 1083.39257812 246.211914062 1132.25195312 42.2578125 c 1,14,-1
 1141.05175781 12.990234375 l 1,15,-1
 1103.06738281 12.9921875 l 2,16,17
 970.325195312 13 970.325195312 13 893.351693408 190.228253097 c 0,18,19
 816.378191503 367.456506193 816.378191503 367.456506193 783.106408328 696.970609288 c 0,20,21
 749.834625152 1026.48471238 749.834625152 1026.48471238 746.629855895 1160.80175781 c 1,0,1
EndSplineSet
EndChar

StartChar: afii57399
Encoding: 1639 1639 63
Width: 1173
VWidth: 2290
GlyphClass: 2
Flags: W
LayerCount: 2
Fore
SplineSet
483.441426352 10.849609375 m 1,0,1
 465.839710958 205.929278697 465.839710958 205.929278697 350.11175001 615.521768255 c 128,-1,2
 234.383789062 1025.11425781 234.383789062 1025.11425781 58.2158203125 1329.33398438 c 1,3,-1
 42.4619140625 1352.79882812 l 1,4,-1
 82.7783203125 1373.27050781 l 1,5,6
 245.6513271 1453.95564531 245.6513271 1453.95564531 318.697078325 1305.1015625 c 0,7,8
 475.022793183 972.296147159 475.022793183 972.296147159 587.62986674 559.790039062 c 0,9,10
 589.565005573 552.701171875 589.565005573 552.701171875 590.495205399 548.642578125 c 1,11,12
 710.774824503 1009.97439878 710.774824503 1009.97439878 866.906962008 1314.20507812 c 0,13,14
 941.108371745 1450.97397425 941.108371745 1450.97397425 1093.88183594 1375.3359375 c 1,15,-1
 1138.28710938 1352.75878906 l 1,16,-1
 1122.39160156 1329.23730469 l 1,17,18
 855.490506621 872.012094249 855.490506621 872.012094249 718.201238551 133.890625 c 0,19,20
 704.828984816 61.84375 704.828984816 61.84375 697.879250832 10.849609375 c 1,21,-1
 483.441426352 10.849609375 l 1,0,1
EndSplineSet
EndChar

StartChar: afii57400
Encoding: 1640 1640 64
Width: 1199
VWidth: 2290
GlyphClass: 2
Flags: W
LayerCount: 2
Fore
SplineSet
497.224247313 1414.15039062 m 1,0,-1
 711.378490626 1414.15039062 l 1,1,2
 747.924908263 1136.48242188 747.924908263 1136.48242188 845.022725316 808.529296875 c 0,3,4
 977.762695312 354.610351562 977.762695312 354.610351562 1148.42382812 80.7548828125 c 1,5,-1
 1167.6484375 53.787109375 l 1,6,-1
 1118.62304688 35.4375 l 1,7,8
 997.954926246 -11.1376598745 997.954926246 -11.1376598745 927.885742188 42.92578125 c 0,9,10
 904.629332533 60.650390625 904.629332533 60.650390625 890.063197916 88.8291015625 c 0,11,12
 697.516160659 491.087890625 697.516160659 491.087890625 604.104747327 889.150390625 c 1,13,14
 510.637876608 490.069335938 510.637876608 490.069335938 317.18234653 86.822265625 c 0,15,16
 288.683299818 31.0576171875 288.683299818 31.0576171875 227.713720222 18.3637695312 c 128,-1,17
 166.744140625 5.669921875 166.744140625 5.669921875 90.4345703125 35.0712890625 c 2,18,-1
 41.041015625 53.5390625 l 1,19,-1
 58.892578125 79.9150390625 l 1,20,21
 189.443359375 303.627929688 189.443359375 303.627929688 363.260376414 808.776367188 c 0,22,23
 471.553527307 1119.61523438 471.553527307 1119.61523438 497.224247313 1414.15039062 c 1,0,-1
EndSplineSet
EndChar

StartChar: afii57401
Encoding: 1641 1641 65
Width: 1182
VWidth: 2290
GlyphClass: 2
Flags: W
LayerCount: 2
Fore
SplineSet
840.46564874 279.764648438 m 0,0,1
 777.387910256 577.1796875 777.387910256 577.1796875 765.599581697 661.252929688 c 1,2,3
 298.840820312 631.895507812 298.840820312 631.895507812 157.189453125 794.59375 c 0,4,5
 71 894.001953125 71 894.001953125 71 1018.45996094 c 0,6,7
 71 1204.23730469 71 1204.23730469 182.283920294 1325.11865252 c 0,8,9
 293.567840589 1446.00000035 293.567840589 1446.00000035 492.988025862 1446.01171875 c 0,10,11
 762.845223585 1446 762.845223585 1446 879.935546875 1251.10449219 c 0,12,13
 932.795898438 1158.99414062 932.795898438 1158.99414062 945.37084164 998.277311124 c 0,14,15
 957.945784842 837.560481623 957.945784842 837.560481623 984.171134609 654.043424405 c 128,-1,16
 1010.39648438 470.526367188 1010.39648438 470.526367188 1109.94335938 47.505859375 c 2,17,-1
 1118.48046875 11.228515625 l 1,18,-1
 1072.28417969 11.228515625 l 2,19,20
 896.578125 10.990234375 896.578125 10.990234375 840.46564874 279.764648438 c 0,0,1
271.565429688 1042.91308594 m 0,21,22
 260.806132369 823.377375841 260.806132369 823.377375841 743.321595818 868.34375 c 1,23,-1
 737.421860016 951.942382812 l 2,24,25
 726.966644835 1101.55273438 726.966644835 1101.55273438 691.350940645 1150.79638672 c 0,26,27
 619.585008097 1250.02274523 619.585008097 1250.02274523 510.330573573 1250.50209527 c 128,-1,28
 401.076139049 1250.98144531 401.076139049 1250.98144531 338.061206818 1191.87597656 c 0,29,30
 276.759765625 1132.5625 276.759765625 1132.5625 271.565429688 1042.91308594 c 0,21,22
EndSplineSet
EndChar

StartChar: afii57381
Encoding: 1642 1642 66
Width: 1177
VWidth: 2206
GlyphClass: 2
Flags: W
LayerCount: 2
Fore
SplineSet
479.389648438 1307.04980469 m 2,0,-1
 479.389648438 1178.04980469 l 2,1,2
 479.389648438 1153.73535156 479.389648438 1153.73535156 466.1640625 1137.39160156 c 128,-1,3
 452.939453125 1121.04785156 452.939453125 1121.04785156 429.388671875 1121.04003906 c 2,4,-1
 302.390625 1121.04980469 l 2,5,6
 285.872070312 1121.04980469 285.872070312 1121.04980469 273.495117188 1128.66601562 c 128,-1,7
 261.118164062 1136.28222656 261.118164062 1136.28222656 254.75390625 1149.35742188 c 128,-1,8
 248.389648438 1162.43164062 248.389648438 1162.43164062 248.389648438 1179.04980469 c 2,9,-1
 248.389648438 1307.04980469 l 2,10,11
 248.389648438 1331.3046875 248.389648438 1331.3046875 264.873046875 1345.17773438 c 128,-1,12
 281.356445312 1359.04980469 281.356445312 1359.04980469 306.389648438 1359.04980469 c 2,13,-1
 421.389648438 1359.04980469 l 2,14,15
 437.655273438 1359.04980469 437.655273438 1359.04980469 450.6484375 1353.15625 c 128,-1,16
 463.640625 1347.26269531 463.640625 1347.26269531 471.515625 1335.28613281 c 128,-1,17
 479.389648438 1323.30957031 479.389648438 1323.30957031 479.389648438 1307.04980469 c 2,0,-1
931.192382812 253.848632812 m 2,18,-1
 931.192382812 124.848632812 l 2,19,20
 931.192382812 100.536132812 931.192382812 100.536132812 917.963867188 84.19140625 c 128,-1,21
 904.735351562 67.84765625 904.735351562 67.84765625 881.192382812 67.84765625 c 2,22,-1
 754.192382812 67.84765625 l 2,23,24
 729.362304688 67.84765625 729.362304688 67.84765625 714.77734375 84.1396484375 c 128,-1,25
 700.192382812 100.432617188 700.192382812 100.432617188 700.192382812 125.84765625 c 2,26,-1
 700.192382812 253.848632812 l 2,27,28
 700.192382812 266.06640625 700.192382812 266.06640625 704.727539062 276.013671875 c 128,-1,29
 709.263671875 285.9609375 709.263671875 285.9609375 717.159179688 292.42578125 c 128,-1,30
 725.0546875 298.889648438 725.0546875 298.889648438 735.5703125 302.369140625 c 128,-1,31
 746.0859375 305.84765625 746.0859375 305.84765625 758.192382812 305.84765625 c 2,32,-1
 873.192382812 305.84765625 l 2,33,34
 898.2265625 305.84765625 898.2265625 305.84765625 914.708984375 292.004882812 c 128,-1,35
 931.192382812 278.162109375 931.192382812 278.162109375 931.192382812 253.848632812 c 2,18,-1
862.830078125 1420.41015625 m 1,36,-1
 1009.98242188 1344.59765625 l 1,37,-1
 309.328125 -7.3974609375 l 1,38,-1
 163.25 72.8798828125 l 1,39,-1
 862.830078125 1420.41015625 l 1,36,-1
EndSplineSet
EndChar

StartChar: uni066B
Encoding: 1643 1643 67
Width: 711
VWidth: 2206
GlyphClass: 2
Flags: W
LayerCount: 2
Fore
SplineSet
431.942382812 542.223632812 m 1,0,-1
 603.443359375 540.9453125 l 1,1,-1
 586.081054688 511.13671875 l 2,2,3
 359.958007812 122.924804688 359.958007812 122.924804688 147.000976562 -220.798828125 c 2,4,-1
 141.041015625 -230.418945312 l 1,5,-1
 -34.1083984375 -228.013671875 l 1,6,-1
 -15.380859375 -197.931640625 l 2,7,8
 77.732421875 -48.3671875 77.732421875 -48.3671875 426.06640625 532.42578125 c 2,9,-1
 431.942382812 542.223632812 l 1,0,-1
EndSplineSet
EndChar

StartChar: uni066C
Encoding: 1644 1644 68
Width: 696
VWidth: 2206
GlyphClass: 2
Flags: W
LayerCount: 2
Fore
SplineSet
271.200195312 1620.00976562 m 1,0,-1
 510.969726562 1620.00976562 l 1,1,-1
 510.969726562 1448.6796875 l 1,2,-1
 332.763671875 1102.04003906 l 1,3,-1
 181.43359375 1102.04003906 l 1,4,-1
 271.200195312 1451.25976562 l 1,5,-1
 271.200195312 1620.00976562 l 1,0,-1
EndSplineSet
EndChar

StartChar: afii63167
Encoding: 1645 1645 69
Width: 1194
VWidth: 2206
GlyphClass: 2
Flags: W
LayerCount: 2
Fore
SplineSet
71.6533203125 834.629882812 m 1,0,-1
 472.150390625 834.629882812 l 1,1,-1
 597.061523438 1214.93261719 l 1,2,-1
 721.969726562 834.629882812 l 1,3,-1
 1122.46777344 834.629882812 l 1,4,-1
 798.95703125 598.1328125 l 1,5,-1
 922.80078125 217.671875 l 1,6,-1
 597.060546875 453.053710938 l 1,7,-1
 271.319335938 217.671875 l 1,8,-1
 395.163085938 598.1328125 l 1,9,-1
 71.6533203125 834.629882812 l 1,0,-1
EndSplineSet
EndChar

StartChar: uni066E
Encoding: 1646 1646 70
Width: 1741
VWidth: 2308
GlyphClass: 2
Flags: W
AnchorPoint: "Anchor-10" 782.278 1112.71 basechar 0
AnchorPoint: "Anchor-7" 538.479 -223.424 basechar 0
LayerCount: 2
Fore
SplineSet
569.659179688 283.630859375 m 0,0,1
 692 271 692 271 894.842773438 269.040039062 c 0,2,3
 1360 264 1360 264 1483.44726562 358.684570312 c 0,4,5
 1543 404 1543 404 1490 508 c 0,6,7
 1449 587 1449 587 1444 602 c 0,8,9
 1397 739 1397 739 1532.08398438 803.568359375 c 2,10,-1
 1567.85058594 820.666992188 l 1,11,-1
 1575.03417969 799.219726562 l 2,12,13
 1639 608 1639 608 1649.12304688 436.66015625 c 0,14,15
 1664 198 1664 198 1531.21777344 119.306640625 c 0,16,17
 1411 48 1411 48 1185.24316406 16.921875 c 0,18,19
 1049 -2 1049 -2 872.586914062 0.6318359375 c 0,20,21
 679 3 679 3 636.557617188 3.7509765625 c 0,22,23
 366 13 366 13 227.482421875 131.161132812 c 0,24,25
 89 249 89 249 91.0009765625 472.169921875 c 0,26,27
 92 594 92 594 128.631835938 679.913085938 c 0,28,29
 155 740 155 740 200.701171875 733.943359375 c 0,30,31
 247 728 247 728 227.961914062 632.827148438 c 0,32,33
 198 480 198 480 282.36328125 395.403320312 c 0,34,35
 375 303 375 303 569.659179688 283.630859375 c 0,0,1
EndSplineSet
Substitution2: "'init' Initial Forms in Arabic lookup 13 subtable" uni066E.init
Substitution2: "'medi' Medial Forms in Arabic lookup 11 subtable" uni066E.medi
Substitution2: "'fina' Terminal Forms in Arabic lookup 9 subtable" uni066E.fina
EndChar

StartChar: uni066F
Encoding: 1647 1647 71
Width: 1361
VWidth: 2327
GlyphClass: 2
Flags: W
AnchorPoint: "Anchor-10" 328.703 1191.86 basechar 0
AnchorPoint: "Anchor-7" 460.144 -555.547 basechar 0
LayerCount: 2
Fore
SplineSet
968.375976562 628.577148438 m 4,0,1
 869.305664062 619.8046875 869.305664062 619.8046875 841.126953125 459.400390625 c 4,2,3
 830.30078125 397.41796875 830.30078125 397.41796875 875.9140625 371.524414062 c 132,-1,4
 921.528320312 345.630859375 921.528320312 345.630859375 984.923828125 345.572265625 c 132,-1,5
 1048.3203125 345.513671875 1048.3203125 345.513671875 1138.50195312 359.186523438 c 5,6,7
 1123.28320312 498.68359375 1123.28320312 498.68359375 1087.56542969 567.069335938 c 132,-1,8
 1051.84863281 635.455078125 1051.84863281 635.455078125 968.375976562 628.577148438 c 4,0,1
1134.82519531 102.571289062 m 1,9,10
 842 43 842 43 730.744140625 196.045898438 c 0,11,12
 650 307 650 307 707.852539062 547.380859375 c 4,13,14
 741 685 741 685 818.569335938 757.413085938 c 132,-1,15
 896 830 896 830 995.551757812 831.50390625 c 4,16,17
 1275 836 1275 836 1283.99707031 309.841796875 c 4,18,19
 1287 132 1287 132 1268.5 31 c 128,-1,20
 1250 -70 1250 -70 1230.88769531 -113.771484375 c 0,21,22
 1212 -158 1212 -158 1186.21777344 -195.540039062 c 0,23,24
 1032 -422 1032 -422 648.435546875 -429.359375 c 0,25,26
 317 -435 317 -435 157.419921875 -228.13671875 c 0,27,28
 32 -64 32 -64 86.4013671875 205.986328125 c 0,29,30
 106 303 106 303 158.305664062 416.442382812 c 0,31,32
 192 489 192 489 244.138183594 474.122558594 c 0,33,34
 296 459 296 459 264.921875 374.141601562 c 0,35,36
 196 185 196 185 237.309570312 50.525390625 c 0,37,38
 305 -171 305 -171 643.776367188 -169.803710938 c 0,39,40
 1102.94982087 -168.023457051 1102.94982087 -168.023457051 1132.91894531 83.912109375 c 0,41,42
 1134 93 1134 93 1134.82519531 102.571289062 c 1,9,10
EndSplineSet
Substitution2: "'init' Initial Forms in Arabic lookup 13 subtable" uni066F.init
Substitution2: "'medi' Medial Forms in Arabic lookup 11 subtable" uni066F.medi
Substitution2: "'fina' Terminal Forms in Arabic lookup 9 subtable" uni066F.fina
EndChar

StartChar: uni0670
Encoding: 1648 1648 72
Width: 0
VWidth: 2459
GlyphClass: 4
Flags: W
AnchorPoint: "Anchor-10" 625.055 1448.93 mark 0
AnchorPoint: "Anchor-9" 625.055 1448.93 mark 0
AnchorPoint: "Anchor-1" 615.334 2078.23 basemark 0
AnchorPoint: "Anchor-1" 625.055 1448.93 mark 0
LayerCount: 2
Fore
SplineSet
607.185546875 1494.64257812 m 1,0,-1
 561.697265625 1964.45800781 l 5,1,-1
 668.90625 2027.59375 l 5,2,-1
 668.90625 1494.64257812 l 1,3,-1
 607.185546875 1494.64257812 l 1,0,-1
EndSplineSet
EndChar

StartChar: uni0674
Encoding: 1652 1652 73
Width: 639
VWidth: 2186
GlyphClass: 2
Flags: W
LayerCount: 2
Fore
SplineSet
133.54 1523.2152231 m 1,0,-1
 225.415427214 1544.41609629 l 1,1,2
 180.511383904 1570.62051775 180.511383904 1570.62051775 158.095691952 1607.66061511 c 128,-1,3
 135.68 1644.70071248 135.68 1644.70071248 135.68 1692.52 c 0,4,5
 135.68 1783.31400737 135.68 1783.31400737 199.406030624 1839.5179999 c 0,6,7
 217.452166322 1855.25860419 217.452166322 1855.25860419 239.604726761 1865.78347867 c 128,-1,8
 261.7572872 1876.30835315 261.7572872 1876.30835315 287.539935406 1881.56455076 c 128,-1,9
 313.322583612 1886.82074837 313.322583612 1886.82074837 342.969769476 1887 c 0,10,11
 413.549104372 1887 413.549104372 1887 467.155049108 1855.42648864 c 2,12,-1
 472.08 1852.52572841 l 1,13,-1
 472.08 1753.62044363 l 1,14,-1
 457.608251453 1760.8555344 l 2,15,16
 395.591428406 1791.86058832 395.591428406 1791.86058832 333.072748502 1785.05770597 c 0,17,18
 236.788687637 1774.66889814 236.788687637 1774.66889814 230.222903813 1700.21944924 c 0,19,20
 223.306797175 1620.14921019 223.306797175 1620.14921019 333.06063378 1586.90037742 c 0,21,22
 366.714290877 1576.70398947 366.714290877 1576.70398947 482.296925643 1603.43287719 c 2,23,-1
 494.55 1606.2664434 l 1,24,-1
 494.55 1503.39617094 l 1,25,-1
 133.54 1422.34598004 l 1,26,-1
 133.54 1523.2152231 l 1,0,-1
EndSplineSet
EndChar

StartChar: uni06A1
Encoding: 1697 1697 77
Width: 1719
VWidth: 2327
GlyphClass: 2
Flags: W
AnchorPoint: "Anchor-10" 486.273 1290.83 basechar 0
AnchorPoint: "Anchor-7" 599.693 -170.024 basechar 0
LayerCount: 2
Fore
SplineSet
1203.98535156 696.125976562 m 0,0,1
 1203.75976562 574.024414062 1203.75976562 574.024414062 1503.46191406 618.463867188 c 1,2,3
 1487.96484375 758.166015625 1487.96484375 758.166015625 1452.25390625 826.538085938 c 128,-1,4
 1416.54296875 894.91015625 1416.54296875 894.91015625 1333.38183594 887.802734375 c 0,5,6
 1234.6328125 879.317382812 1234.6328125 879.317382812 1206.11816406 718.573242188 c 0,7,8
 1204.00488281 706.658203125 1204.00488281 706.658203125 1203.98535156 696.125976562 c 0,0,1
1046.05566406 0 m 1,9,-1
 929.875 -0.6474609375 l 1,10,11
 759 -5 759 -5 617.776367188 3.78515625 c 0,12,13
 376 18 376 18 259.189453125 93.173828125 c 0,14,15
 41 233 41 233 77.5595703125 548.995117188 c 0,16,17
 93 681 93 681 139.395507812 722.112304688 c 0,18,19
 156 737 156 737 179.48046875 734.345703125 c 0,20,21
 229 728 229 728 214 678.5 c 128,-1,22
 199 629 199 629 201.470703125 544.146484375 c 4,23,24
 208 333 208 333 552.5 283.528320312 c 4,25,26
 646 270 646 270 963.206054688 268.172851562 c 5,27,-1
 1045.88574219 269.119140625 l 5,28,-1
 1206.89160156 269.119140625 l 6,29,30
 1470 269 1470 269 1496.94433594 361.114257812 c 1,31,32
 1205 303 1205 303 1095.66796875 455.375976562 c 0,33,34
 1036 539 1036 539 1056.31152344 709.909179688 c 0,35,36
 1090 999 1090 999 1267.21191406 1072.16503906 c 0,37,38
 1357 1109 1357 1109 1445.33300781 1077.51074219 c 0,39,40
 1484 1064 1484 1064 1512.71191406 1035.07226562 c 0,41,42
 1681.00369162 864.9856037 1681.00369162 864.9856037 1647.31347656 392.693359375 c 0,43,44
 1631 164 1631 164 1448.87304688 60.3662109375 c 0,45,46
 1342 0 1342 0 1199.96777344 0 c 2,47,-1
 1046.05566406 0 l 1,9,-1
EndSplineSet
Substitution2: "'init' Initial Forms in Arabic lookup 13 subtable" uni06A1.init
Substitution2: "'medi' Medial Forms in Arabic lookup 11 subtable" uni06A1.medi
Substitution2: "'fina' Terminal Forms in Arabic lookup 9 subtable" uni06A1.fina
EndChar

StartChar: uni06A9
Encoding: 1705 1705 78
Width: 1912
VWidth: 2308
GlyphClass: 2
Flags: W
AnchorPoint: "Anchor-10" 288.771 1250.92 basechar 0
AnchorPoint: "Anchor-7" 411.73 -273.384 basechar 0
LayerCount: 2
Fore
SplineSet
950.879882812 -0.646484375 m 0,0,1
 780 -5 780 -5 638.776367188 3.78515625 c 0,2,3
 397 18 397 18 280.189453125 93.173828125 c 0,4,5
 92 214 92 214 94.0009765625 472.169921875 c 0,6,7
 95 594 95 594 131.631835938 679.913085938 c 0,8,9
 158 740 158 740 203.702148438 733.943359375 c 0,10,11
 250 728 250 728 231.052734375 633.305664062 c 0,12,13
 201 483 201 483 285.126953125 397.90234375 c 0,14,15
 398 284 398 284 734.774414062 273.208984375 c 0,16,17
 837 270 837 270 977.954101562 269.419921875 c 0,18,19
 1260 269 1260 269 1368.12695312 323.611328125 c 0,20,21
 1445.90234375 362.448242188 1445.90234375 362.448242188 1396 420 c 0,22,23
 1125 727 1125 727 1029.90429688 935.529296875 c 0,24,25
 958.063476562 1090.50878906 958.063476562 1090.50878906 1162.91601562 1182.29296875 c 2,26,-1
 1871.17089844 1499.23925781 l 1,27,-1
 1871.17089844 1445.99414062 l 2,28,29
 1871 1284.36816406 1871 1284.36816406 1638.78320312 1186.26367188 c 2,30,-1
 1213.66308594 1006.66308594 l 5,31,32
 1338 799 1338 799 1557.69042969 499.70703125 c 0,33,34
 1603.703125 437.432617188 1603.703125 437.432617188 1592.84082031 353.485351562 c 0,35,36
 1550 15 1550 15 950.879882812 -0.646484375 c 0,0,1
EndSplineSet
Substitution2: "'init' Initial Forms in Arabic lookup 13 subtable" uniFB90
Substitution2: "'medi' Medial Forms in Arabic lookup 11 subtable" uniFB91
Substitution2: "'fina' Terminal Forms in Arabic lookup 9 subtable" uniFB8F
EndChar

StartChar: afii57514
Encoding: 1722 1722 80
Width: 1351
VWidth: 2336
GlyphClass: 2
Flags: W
AnchorPoint: "Anchor-10" 587.961 1016.99 basechar 0
AnchorPoint: "Anchor-7" 305.838 -737.488 basechar 0
LayerCount: 2
Fore
SplineSet
1261.69726562 275.439453125 m 0,0,1
 1296 45 1296 45 1262.25878906 -95.7451171875 c 0,2,3
 1213 -295 1213 -295 1058.28808594 -397.9296875 c 0,4,5
 903 -501 903 -501 648.435546875 -505.359375 c 0,6,7
 317 -511 317 -511 157.418945312 -304.135742188 c 0,8,9
 32 -140 32 -140 86.4013671875 129.986328125 c 0,10,11
 106 227 106 227 158.3046875 340.442382812 c 0,12,13
 192 413 192 413 241.956054688 398.741210938 c 0,14,15
 296 383 296 383 264.921875 298.141601562 c 0,16,17
 196 109 196 109 237.309570312 -25.4755859375 c 0,18,19
 305 -247 305 -247 643.77734375 -245.803710938 c 0,20,21
 879 -245 879 -245 999.172851562 -168.919921875 c 0,22,23
 1140.87258436 -79.1419977243 1140.87258436 -79.1419977243 1132.90820312 57.80078125 c 0,24,25
 1129 125 1129 125 1058.39355469 299.803710938 c 0,26,27
 1014.8930616 417.712942214 1014.8930616 417.712942214 1041.44921875 492.005859375 c 4,28,29
 1063.12708301 552.353780021 1063.12708301 552.353780021 1129.6953125 569.669921875 c 2,30,-1
 1180.75976562 582.953125 l 1,31,-1
 1186.42675781 564.735351562 l 2,32,33
 1216 468 1216 468 1235.20605469 396.193359375 c 0,34,35
 1254 324 1254 324 1261.69726562 275.439453125 c 0,0,1
EndSplineSet
Substitution2: "'init' Initial Forms in Arabic lookup 13 subtable" uni06BA.init
Substitution2: "'medi' Medial Forms in Arabic lookup 11 subtable" uni06BA.medi
Substitution2: "'fina' Terminal Forms in Arabic lookup 9 subtable" uniFB9F
EndChar

StartChar: uni06F4
Encoding: 1780 1780 87
Width: 1110
VWidth: 2290
GlyphClass: 2
Flags: W
LayerCount: 2
Fore
SplineSet
1040.12988281 749.153320312 m 1,0,1
 804.909868402 719.062654795 804.909868402 719.062654795 724.327680621 718.959061772 c 0,2,3
 552.666172265 718.738381062 552.666172265 718.738381062 430.358893202 787.544921875 c 1,4,5
 485.623496523 536.52734375 485.623496523 536.52734375 475.761105914 296.457063887 c 0,6,7
 465.898715306 56.3867840232 465.898715306 56.3867840232 346.379058675 17.845703125 c 2,8,-1
 306.475585938 4.6875 l 1,9,-1
 305.842773438 45.3876953125 l 2,10,11
 295.23828125 704.219726562 295.23828125 704.219726562 96.4794921875 1182.52539062 c 0,12,13
 40.923828125 1318.44042969 40.923828125 1318.44042969 183.567382812 1411.05761719 c 2,14,-1
 231.099609375 1441.91992188 l 1,15,-1
 243.796875 1405.62792969 l 2,16,17
 302.25312211 1238.57411948 302.25312211 1238.57411948 325.53515625 1168.98730469 c 1,18,19
 451.243161438 1467.42675781 451.243161438 1467.42675781 791.484015849 1441.90332031 c 0,20,21
 966.16796875 1427.3984375 966.16796875 1427.3984375 973.163085938 1300.60644531 c 2,22,-1
 977.7265625 1217.87011719 l 1,23,-1
 938.89453125 1226.66601562 l 1,24,25
 665.908056621 1287.16113281 665.908056621 1287.16113281 561.69075304 1187.82666016 c 128,-1,26
 457.47344946 1088.4921875 457.47344946 1088.4921875 521.6432737 991.329101562 c 0,27,28
 568.108755652 920.260742188 568.108755652 920.260742188 767.911552274 920.318359375 c 0,29,30
 805.591906961 920.262249369 805.591906961 920.262249369 855.835541423 926.557591563 c 0,31,32
 906.079175884 932.852933757 906.079175884 932.852933757 915.173828125 933.620117188 c 0,33,34
 971.444335938 936.248046875 971.444335938 936.248046875 1002.94677734 901.908203125 c 128,-1,35
 1034.44921875 867.568359375 1034.44921875 867.568359375 1037.34277344 807.25 c 2,36,-1
 1040.12988281 749.153320312 l 1,0,1
EndSplineSet
EndChar

StartChar: uni06F5
Encoding: 1781 1781 88
Width: 1245
VWidth: 2150
GlyphClass: 2
Flags: W
LayerCount: 2
Fore
SplineSet
573.2578125 351.044921875 m 0,0,1
 576 375 576 375 588.219726562 396.282226562 c 4,2,3
 601 419 601 419 639.5 418 c 128,-1,4
 678 417 678 417 694.973865508 364.932483787 c 128,-1,5
 712 313 712 313 734.73828125 285.943359375 c 0,6,7
 780 233 780 233 867.419921875 233 c 0,8,9
 1017 233 1017 233 964.58984375 484.9609375 c 1,10,11
 893 783 893 783 607.735351562 1033.55859375 c 1,12,13
 321 699 321 699 283.227539062 436.024414062 c 0,14,15
 267 321 267 321 302.526367188 278.913574219 c 0,16,17
 339 237 339 237 413.4609375 233.677734375 c 0,18,19
 558 228 558 228 573.2578125 351.044921875 c 0,0,1
1174.17871094 304.567382812 m 0,20,21
 1150.43428832 1.14393928425 1150.43428832 1.14393928425 861.923339844 10.9096679688 c 0,22,23
 714.856445312 15.8876953125 714.856445312 15.8876953125 638.573242188 143.73046875 c 1,24,25
 559.85546875 9.9990234375 559.85546875 9.9990234375 406.515625 9.9716796875 c 0,26,27
 95.7581342132 9.997807668 95.7581342132 9.997807668 71.689453125 300.284179688 c 0,28,29
 42.9150390625 649.94921875 42.9150390625 649.94921875 454.572265625 1145.89941406 c 1,30,31
 430.618164062 1169.01367188 430.618164062 1169.01367188 436.065917969 1206.94042969 c 128,-1,32
 441.513671875 1244.8671875 441.513671875 1244.8671875 490.073242188 1342.01757812 c 2,33,-1
 506.22265625 1374.328125 l 1,34,-1
 536.46875 1353.09375 l 2,35,36
 612.028666547 1299.78768813 612.028666547 1299.78768813 639.7265625 1275.00292969 c 0,37,38
 1210.32324219 752.104492188 1210.32324219 752.104492188 1174.17871094 304.567382812 c 0,20,21
EndSplineSet
EndChar

StartChar: uni06F6
Encoding: 1782 1782 89
Width: 1058
VWidth: 2290
GlyphClass: 2
Flags: W
LayerCount: 2
Fore
SplineSet
64.9716796875 6 m 1,0,-1
 75.6416015625 43.5458984375 l 2,1,2
 111.852539062 170.966796875 111.852539062 170.966796875 234.306635647 359.842285156 c 128,-1,3
 356.760732232 548.717773438 356.760732232 548.717773438 437.93260375 623.782226562 c 1,4,5
 188.177945894 710.961905907 188.177945894 710.961905907 190.53125 976.180664062 c 0,6,7
 192.221679688 1139.06640625 192.221679688 1139.06640625 277.1328125 1243.76953125 c 0,8,9
 422.081081832 1414.18652344 422.081081832 1414.18652344 681.627360462 1380.72753906 c 0,10,11
 886.836405739 1354.70372703 886.836405739 1354.70372703 913.149414062 1158.36425781 c 2,12,-1
 919.989257812 1107.33007812 l 1,13,-1
 871.830078125 1127.21289062 l 1,14,15
 591.106726606 1240.73966931 591.106726606 1240.73966931 466.5861362 1101.83496094 c 0,16,17
 423.50435062 1053.7765407 423.50435062 1053.7765407 413.947188238 971.580653162 c 128,-1,18
 404.390025857 889.384765625 404.390025857 889.384765625 468.32330331 838.244140625 c 128,-1,19
 532.255557093 787.103515625 532.255557093 787.103515625 674.510810228 772.107421875 c 1,20,21
 780.77734375 781.9375 780.77734375 781.9375 895.567382812 828.141601562 c 0,22,23
 949.31640625 849.35546875 949.31640625 849.35546875 970.211425781 830.571777344 c 128,-1,24
 991.106445312 811.788085938 991.106445312 811.788085938 991.106445312 786.596679688 c 2,25,-1
 991.106445312 640.81640625 l 1,26,27
 748.429154722 572.849805848 748.429154722 572.849805848 578.623689917 412.698242188 c 0,28,29
 455.512079752 297.28125 455.512079752 297.28125 381.408646002 199.059570312 c 0,30,31
 238.333984375 6 238.333984375 6 135.856445312 6 c 2,32,-1
 64.9716796875 6 l 1,0,-1
EndSplineSet
EndChar

StartChar: uniFB8F
Encoding: 64399 64399 104
Width: 1871
VWidth: 2308
GlyphClass: 2
Flags: W
AnchorPoint: "Anchor-10" 414.756 1220.86 basechar 0
AnchorPoint: "Anchor-7" 498.496 -248.828 basechar 0
LayerCount: 2
Fore
SplineSet
1497.53027344 186.940429688 m 1,0,1
 1369 -0 1369 -0 935.831054688 -0.6875 c 1,2,3
 760 -5 760 -5 618.776367188 3.78515625 c 0,4,5
 377 18 377 18 260.189453125 93.173828125 c 0,6,7
 72 214 72 214 74.0009765625 472.169921875 c 0,8,9
 75 594 75 594 111.631835938 679.913085938 c 0,10,11
 138 740 138 740 183.7109375 733.941894531 c 0,12,13
 230 728 230 728 213.549316406 646.222167969 c 0,14,15
 197 564 197 564 198.9921875 503.573242188 c 0,16,17
 205 290 205 290 696.833007812 273.568359375 c 0,18,19
 1023 262 1023 262 1152.04199219 280.086914062 c 128,-1,20
 1281 298 1281 298 1339.36132812 326.838867188 c 0,21,22
 1397 356 1397 356 1376.54199219 403.880859375 c 0,23,24
 1362.0460742 437.483616771 1362.0460742 437.483616771 1343.25878906 459.427734375 c 4,25,26
 1145 691 1145 691 998.635742188 936.276367188 c 0,27,28
 908.692862054 1085.36291888 908.692862054 1085.36291888 1126.74316406 1183.36328125 c 2,29,-1
 1834.0546875 1501.25683594 l 1,30,-1
 1834.0546875 1447.97363281 l 2,31,32
 1834.00008769 1284.26293316 1834.00008769 1284.26293316 1597.33496094 1184.56835938 c 2,33,-1
 1178.31347656 1008.05664062 l 1,34,35
 1337.98178702 726.449933164 1337.98178702 726.449933164 1637.82910156 357.26953125 c 4,36,37
 1710.35918611 268.560692882 1710.35918611 268.560692882 1846.07714844 268.918945312 c 2,38,-1
 1901.5703125 269.065429688 l 1,39,-1
 1901.5703125 0 l 1,40,-1
 1814 0 l 2,41,42
 1648 0 1648 0 1497.53027344 186.940429688 c 1,0,1
EndSplineSet
EndChar

StartChar: uniFB9F
Encoding: 64415 64415 112
Width: 1418
VWidth: 2336
GlyphClass: 2
Flags: W
AnchorPoint: "Anchor-10" 337.69 773.27 basechar 0
AnchorPoint: "Anchor-7" 237.648 -724.038 basechar 0
LayerCount: 2
Fore
SplineSet
1278.76757812 34.3447265625 m 1,0,1
 1277 -37 1277 -37 1262.25 -95.783203125 c 0,2,3
 1163 -497 1163 -497 648.435546875 -505.359375 c 0,4,5
 317 -511 317 -511 157.418945312 -304.135742188 c 0,6,7
 32 -140 32 -140 86.4013671875 129.986328125 c 0,8,9
 106 227 106 227 158.3046875 340.442382812 c 0,10,11
 192 413 192 413 244 398 c 128,-1,12
 296 383 296 383 264.921875 298.141601562 c 0,13,14
 196 109 196 109 237.309570312 -25.4755859375 c 0,15,16
 305 -247 305 -247 643.77734375 -245.803710938 c 0,17,18
 879 -245 879 -245 1001.5 -167.5 c 128,-1,19
 1124 -90 1124 -90 1132.5 2.5 c 128,-1,20
 1141 95 1141 95 1076.53027344 251.323242188 c 0,21,22
 1060 292 1060 292 1039.85826927 362.160718367 c 0,23,24
 1020 432 1020 432 1041.56351789 492.176824261 c 128,-1,25
 1063.126691 552.353558836 1063.126691 552.353558836 1129.6953125 569.669921875 c 2,26,-1
 1182.94433594 583.521484375 l 1,27,-1
 1189.97070312 562.568359375 l 6,28,29
 1220.23727308 453.754333498 1220.23727308 453.754333498 1257.80175781 346.590820312 c 0,30,31
 1285.1139921 268.674804688 1285.1139921 268.674804688 1384.11035156 268.674804688 c 2,32,-1
 1448.88964844 268.674804688 l 1,33,-1
 1448.88964844 -0.337890625 l 1,34,-1
 1417.36132812 -0.337890625 l 2,35,36
 1329 -0 1329 -0 1278.76757812 34.3447265625 c 1,0,1
EndSplineSet
EndChar

StartChar: uniFBE8
Encoding: 64488 64488 115
Width: 541
VWidth: 2310
GlyphClass: 2
Flags: W
AnchorPoint: "Anchor-10" 224.879 1076.31 basechar 0
AnchorPoint: "Anchor-7" 230.02 -196.43 basechar 0
LayerCount: 2
Fore
SplineSet
16.673828125 -0.1796875 m 1,0,-1
 -10.111328125 -0.1796875 l 1,1,-1
 -10.111328125 268.938476562 l 1,2,-1
 31.0224609375 268.938476562 l 2,3,4
 328 269 328 269 300.66796875 399.736328125 c 0,5,6
 292 442 292 442 277.080078125 483.588867188 c 128,-1,7
 262 525 262 525 247.25 569.599609375 c 0,8,9
 201.06496445 706.807002362 201.06496445 706.807002362 352.14453125 779.040039062 c 2,10,-1
 387.927734375 796.1484375 l 1,11,-1
 395.09765625 774.670898438 l 2,12,13
 463 571 463 571 470.125976562 453.461914062 c 0,14,15
 484 226 484 226 383.76171875 109.4765625 c 0,16,17
 286 -4 286 -4 16.673828125 -0.1796875 c 1,0,-1
EndSplineSet
EndChar

StartChar: uniFBE9
Encoding: 64489 64489 116
Width: 664
VWidth: 2314
GlyphClass: 2
Flags: W
AnchorPoint: "Anchor-10" 315.928 1025.08 basechar 0
AnchorPoint: "Anchor-7" 296.848 -125.025 basechar 0
LayerCount: 2
Fore
SplineSet
58.783203125 0.70703125 m 2,0,-1
 -10.4423828125 -0.5869140625 l 1,1,-1
 -10.4423828125 268.82421875 l 1,2,-1
 46.78515625 268.82421875 l 2,3,4
 164 269 164 269 206 286 c 0,5,6
 254.532222332 304.818616823 254.532222332 304.818616823 281.79296875 407.141601562 c 2,7,-1
 294.168945312 453.594726562 l 2,8,9
 310 513 310 513 340.660709372 538.13078802 c 128,-1,10
 371.318997217 563.261483022 371.318997217 563.261483022 428.196289062 565.446289062 c 2,11,-1
 465.822265625 566.891601562 l 1,12,-1
 447.56640625 473.553710938 l 2,13,14
 429 379 429 379 483.7890625 331.657226562 c 0,15,16
 556.202583637 268.82421875 556.202583637 268.82421875 662.561523438 268.82421875 c 2,17,-1
 674.702148438 268.82421875 l 1,18,-1
 674.702148438 0 l 1,19,-1
 645.212890625 0 l 2,20,21
 454 0 454 0 364.31640625 136.391601562 c 1,22,23
 255 4 255 4 58.783203125 0.70703125 c 2,0,-1
EndSplineSet
EndChar

StartChar: uniFE73
Encoding: 65139 65139 124
Width: 573
VWidth: 2206
GlyphClass: 2
Flags: W
AnchorPoint: "Anchor-10" 210.79 1299.5 basechar 0
AnchorPoint: "Anchor-7" 210.79 -91.5 basechar 0
LayerCount: 2
Fore
SplineSet
316.23046875 370.740234375 m 2,0,1
 316.23046875 359.685546875 316.23046875 359.685546875 318.123046875 348.96875 c 128,-1,2
 320.015625 338.252929688 320.015625 338.252929688 323.938476562 327.5390625 c 128,-1,3
 327.861328125 316.82421875 327.861328125 316.82421875 333.829101562 306.338867188 c 128,-1,4
 339.795898438 295.853515625 339.795898438 295.853515625 348.001953125 285.333007812 c 128,-1,5
 356.208007812 274.811523438 356.208007812 274.811523438 366.610351562 264.41015625 c 0,6,7
 388.529296875 242.490234375 388.529296875 242.490234375 425.342773438 230.935546875 c 128,-1,8
 462.157226562 219.379882812 462.157226562 219.379882812 514.669921875 219.379882812 c 2,9,-1
 601.919921875 219.379882812 l 1,10,-1
 601.919921875 8.5 l 1,11,-1
 455.8203125 8.5 l 2,12,13
 300.981445312 8.5 300.981445312 8.5 200.491210938 108.991210938 c 0,14,15
 105.349609375 204.130859375 105.349609375 204.130859375 105.349609375 357.900390625 c 2,16,-1
 105.349609375 410.91015625 l 1,17,-1
 316.23046875 410.91015625 l 1,18,-1
 316.23046875 370.740234375 l 2,0,1
EndSplineSet
EndChar

StartChar: uniFE8E
Encoding: 65166 65166 150
Width: 557
VWidth: 2287
GlyphClass: 2
Flags: W
AnchorPoint: "Anchor-10" 210.257 1560.7 basechar 0
AnchorPoint: "Anchor-7" 263.297 -242.991 basechar 0
LayerCount: 2
Fore
SplineSet
161.69140625 552.801757812 m 2,0,-1
 130.779296875 1081.4453125 l 2,1,2
 114.97090032 1359.51185757 114.97090032 1359.51185757 278.211914062 1447.40917969 c 2,3,-1
 321.870117188 1470.91699219 l 1,4,-1
 323.1484375 1438.92871094 l 2,5,6
 331 1242 331 1242 321.99609375 723.587890625 c 0,7,8
 319 559 319 559 333.486328125 457.749023438 c 0,9,10
 348 356 348 356 376.260742188 326.342773438 c 0,11,12
 430.983219969 269.017578125 430.983219969 269.017578125 524.009765625 269.017578125 c 2,13,-1
 567.1953125 269.017578125 l 5,14,-1
 567.1953125 -0.1005859375 l 5,15,-1
 473.952148438 -0.1005859375 l 2,16,17
 275 -0 275 -0 215 195 c 0,18,19
 175 325 175 325 161.69140625 552.801757812 c 2,0,-1
EndSplineSet
EndChar

StartChar: uniFEA2
Encoding: 65186 65186 170
Width: 1248
VWidth: 2311
GlyphClass: 2
Flags: W
AnchorPoint: "Anchor-10" 578.238 1132.58 basechar 0
AnchorPoint: "Anchor-7" 322.979 -864.647 basechar 0
LayerCount: 2
Fore
SplineSet
1212.07226562 -0.638671875 m 2,0,1
 885.972698957 -0.638671875 885.972698957 -0.638671875 851.610351562 454.145507812 c 1,2,3
 620 394 620 394 464.111328125 270.647460938 c 0,4,5
 419 235 419 235 386.184570312 196.483398438 c 0,6,7
 271 63 271 63 255.305664062 -63.3696289062 c 0,8,9
 245 -151 245 -151 268.212890625 -209.263671875 c 0,10,11
 358 -427 358 -427 803.83203125 -427.075195312 c 0,12,13
 1008.24680076 -426.999909103 1008.24680076 -426.999909103 1151.59277344 -386.745117188 c 2,14,-1
 1189.58105469 -376.077148438 l 1,15,16
 1130 -589 1130 -589 1004.42285156 -642.202148438 c 0,17,18
 895 -689 895 -689 719.549804688 -689.064453125 c 0,19,20
 344 -689 344 -689 180.174804688 -497.931640625 c 0,21,22
 72 -371 72 -371 71.755859375 -176.317382812 c 0,23,24
 72 104 72 104 238.453125 280.725585938 c 0,25,26
 459 514 459 514 798.15625 581.075195312 c 1,27,28
 715 608 715 608 659.921875 632.704101562 c 0,29,30
 515 696 515 696 420.716796875 683.264648438 c 0,31,32
 303 668 303 668 207.206054688 476.353515625 c 1,33,-1
 186.100585938 476.635742188 l 2,34,35
 135 477 135 477 182.483398438 624.60546875 c 24,36,37
 267 889 267 889 451.53515625 883.510742188 c 0,38,39
 589 880 589 880 752.595214844 787.006835938 c 0,40,41
 966.441250311 663.323168072 966.441250311 663.323168072 1156.5703125 664.319335938 c 2,42,-1
 1180.61425781 664.4453125 l 1,43,-1
 1150.2109375 495.303710938 l 1,44,45
 1034 490 1034 490 990.504882812 483.624023438 c 1,46,47
 1011.96254064 269.374023438 1011.96254064 269.374023438 1205.29003906 269.374023438 c 2,48,-1
 1258.12011719 269.374023438 l 5,49,-1
 1258.12011719 -0.638671875 l 5,50,-1
 1212.07226562 -0.638671875 l 2,0,1
EndSplineSet
EndChar

StartChar: uniFEA3
Encoding: 65187 65187 171
Width: 1307
VWidth: 2311
GlyphClass: 2
Flags: W
AnchorPoint: "Anchor-10" 287.645 1115.46 basechar 0
AnchorPoint: "Anchor-7" 494.345 -221.447 basechar 0
LayerCount: 2
Fore
SplineSet
1174.07128906 342.236328125 m 1,0,1
 1017 327 1017 327 809.466796875 256.405761719 c 128,-1,2
 602 186 602 186 499.856445312 135.067382812 c 0,3,4
 223.108461264 -0.4365234375 223.108461264 -0.4365234375 49.5205078125 -0.4365234375 c 2,5,-1
 -9.9794921875 -0.4365234375 l 5,6,-1
 -9.9794921875 269.681640625 l 5,7,-1
 6.095703125 269.681640625 l 2,8,9
 253 270 253 270 539.1484375 391.39453125 c 0,10,11
 663 444 663 444 788.265625 472.153320312 c 1,12,13
 673 508 673 508 586.549804688 549.748046875 c 0,14,15
 420 631 420 631 335.862304688 619.7578125 c 0,16,17
 217 603 217 603 122.27734375 412.833984375 c 1,18,-1
 101.469726562 413.112304688 l 2,19,20
 61 414 61 414 102.509765625 560.990234375 c 0,21,22
 177 819 177 819 365.390625 824.991210938 c 0,23,24
 464 828 464 828 719.376953125 691.647460938 c 0,25,26
 878 607 878 607 1043.40429688 578.708007812 c 0,27,28
 1087.95285396 571.008148813 1087.95285396 571.008148813 1197.7578125 571.405273438 c 2,29,-1
 1224.21972656 571.500976562 l 1,30,-1
 1174.07128906 342.236328125 l 1,0,1
EndSplineSet
EndChar

StartChar: uniFEA4
Encoding: 65188 65188 172
Width: 1287
VWidth: 2311
GlyphClass: 2
Flags: W
AnchorPoint: "Anchor-10" 364.224 1137.15 basechar 0
AnchorPoint: "Anchor-7" 542.304 -229.39 basechar 0
LayerCount: 2
Fore
SplineSet
943.134765625 302.06640625 m 1,0,1
 949.964112626 269.172851562 949.964112626 269.172851562 1093.58007812 269.172851562 c 2,2,-1
 1297.5 269.172851562 l 1,3,-1
 1297.5 -0.900390625 l 1,4,-1
 1118.8984375 -0.900390625 l 2,5,6
 905 -1 905 -1 815.399414062 262.296875 c 1,7,8
 697 239 697 239 533.8984375 153.345703125 c 0,9,10
 237.157677063 -0.4365234375 237.157677063 -0.4365234375 49.5185546875 -0.4365234375 c 2,11,-1
 -9.9794921875 -0.4365234375 l 5,12,-1
 -9.9794921875 269.681640625 l 5,13,-1
 6.095703125 269.681640625 l 2,14,15
 268 270 268 270 538.8515625 391.264648438 c 0,16,17
 643 438 643 438 791.206054688 471.249023438 c 1,18,19
 674 507 674 507 586.549804688 549.748046875 c 0,20,21
 420 631 420 631 335.862304688 619.7578125 c 0,22,23
 217 603 217 603 122.27734375 412.833984375 c 1,24,-1
 101.469726562 413.112304688 l 2,25,26
 61 414 61 414 102.509765625 560.990234375 c 0,27,28
 177 819 177 819 365.390625 824.991210938 c 0,29,30
 464 828 464 828 719.376953125 691.647460938 c 0,31,32
 878 607 878 607 1043.40429688 578.708007812 c 0,33,34
 1087.95285396 571.008148813 1087.95285396 571.008148813 1197.7578125 571.405273438 c 2,35,-1
 1224.21972656 571.500976562 l 1,36,-1
 1174.10644531 342.360351562 l 1,37,38
 1010 325 1010 325 943.134765625 302.06640625 c 1,0,1
EndSplineSet
EndChar

StartChar: uniFEAA
Encoding: 65194 65194 178
Width: 1049
VWidth: 2305
GlyphClass: 2
Flags: W
AnchorPoint: "Anchor-10" 452.035 1191.14 basechar 0
AnchorPoint: "Anchor-7" 357.176 -256.449 basechar 0
LayerCount: 2
Fore
SplineSet
645 404 m 2,0,-1
 521 594 l 2,1,2
 374.35411249 818.457991087 374.35411249 818.457991087 524.690429688 898.279296875 c 2,3,-1
 562.630859375 918.423828125 l 1,4,-1
 808.797851562 487.435546875 l 2,5,6
 931.065734588 272.884651518 931.065734588 272.884651518 1041.14941406 268.69921875 c 2,7,-1
 1063.29003906 267.857421875 l 5,8,-1
 1063.29003906 -0.759765625 l 5,9,-1
 1038.70605469 -0.759765625 l 2,10,11
 890 -1 890 -1 775.19921875 140.008789062 c 1,12,13
 596 -49 596 -49 284.893554688 -28.78125 c 0,14,15
 166 -21 166 -21 103.4375 35.8623046875 c 0,16,17
 40.6171875 93.3503187025 40.6171875 93.3503187025 40.6171875 197.129882812 c 2,18,-1
 40.6171875 304.954101562 l 1,19,-1
 68.376953125 293.268554688 l 2,20,21
 183 245 183 245 330.650390625 241.001953125 c 0,22,23
 478 237 478 237 599.876953125 291.276367188 c 0,24,25
 672.480935249 323.329367596 672.480935249 323.329367596 652.890625 387.52734375 c 0,26,27
 650 396 650 396 645 404 c 2,0,-1
EndSplineSet
EndChar

StartChar: uniFEAE
Encoding: 65198 65198 182
Width: 994
VWidth: 2334
GlyphClass: 2
Flags: W
AnchorPoint: "Anchor-10" 529.796 884.783 basechar 0
AnchorPoint: "Anchor-7" 501.097 -641.14 basechar 0
LayerCount: 2
Fore
SplineSet
830 322 m 0,0,1
 846.05365566 268.822265625 846.05365566 268.822265625 962.7265625 268.822265625 c 2,2,-1
 1004.53222656 268.822265625 l 5,3,-1
 1004.53222656 -0.2939453125 l 5,4,-1
 1001.5234375 -0.294921875 l 2,5,6
 945 0 945 0 944.208984375 -0.291015625 c 0,7,8
 868 0 868 0 818.458984375 37.701171875 c 1,9,10
 773 -189 773 -189 649.731445312 -308.203125 c 0,11,12
 527 -427 527 -427 328.766601562 -434.985351562 c 0,13,14
 164.779896638 -441.008083726 164.779896638 -441.008083726 31.6240234375 -315.98046875 c 2,15,-1
 0.076171875 -286.358398438 l 1,16,-1
 43.0810546875 -281.525390625 l 2,17,18
 379 -244 379 -244 535.213867188 -137.646484375 c 0,19,20
 691 -32 691 -32 677.633789062 140.622070312 c 0,21,22
 674 189 674 189 631.159179688 294.327148438 c 0,23,24
 566.057048062 456.857576921 566.057048062 456.857576921 684.56640625 547.133789062 c 2,25,-1
 744.208984375 592.567382812 l 1,26,27
 789 458 789 458 830 322 c 0,0,1
EndSplineSet
PairPos2: "'kern' Horizontal Kerning lookup 15-1" uniFB7C dx=-150 dy=0 dh=-150 dv=0 dx=0 dy=0 dh=0 dv=0
PairPos2: "'kern' Horizontal Kerning lookup 15-1" uniFB90 dx=-350 dy=0 dh=-350 dv=0 dx=0 dy=0 dh=0 dv=0
PairPos2: "'kern' Horizontal Kerning lookup 15-1" uniFB8E dx=-350 dy=0 dh=-350 dv=0 dx=0 dy=0 dh=0 dv=0
PairPos2: "'kern' Horizontal Kerning lookup 15-1" uni06A9 dx=-350 dy=0 dh=-350 dv=0 dx=0 dy=0 dh=0 dv=0
PairPos2: "'kern' Horizontal Kerning lookup 15-1" uni064A dx=-100 dy=0 dh=-100 dv=0 dx=0 dy=0 dh=0 dv=0
PairPos2: "'kern' Horizontal Kerning lookup 15-1" afii57414 dx=-100 dy=0 dh=-100 dv=0 dx=0 dy=0 dh=0 dv=0
PairPos2: "'kern' Horizontal Kerning lookup 15-1" uni0649 dx=-100 dy=0 dh=-100 dv=0 dx=0 dy=0 dh=0 dv=0
PairPos2: "'kern' Horizontal Kerning lookup 15-1" uni0648 dx=-80 dy=0 dh=-80 dv=0 dx=0 dy=0 dh=0 dv=0
PairPos2: "'kern' Horizontal Kerning lookup 15-1" afii57412 dx=-80 dy=0 dh=-80 dv=0 dx=0 dy=0 dh=0 dv=0
PairPos2: "'kern' Horizontal Kerning lookup 15-1" uniFEEB dx=-250 dy=0 dh=-250 dv=0 dx=0 dy=0 dh=0 dv=0
PairPos2: "'kern' Horizontal Kerning lookup 15-1" uni0647 dx=-250 dy=0 dh=-250 dv=0 dx=0 dy=0 dh=0 dv=0
PairPos2: "'kern' Horizontal Kerning lookup 15-1" uniFEE7 dx=-250 dy=0 dh=-250 dv=0 dx=0 dy=0 dh=0 dv=0
PairPos2: "'kern' Horizontal Kerning lookup 15-1" uni0646 dx=-100 dy=0 dh=-200 dv=0 dx=0 dy=0 dh=0 dv=0
PairPos2: "'kern' Horizontal Kerning lookup 15-1" uniFEE3 dx=-250 dy=0 dh=-250 dv=0 dx=0 dy=0 dh=0 dv=0
PairPos2: "'kern' Horizontal Kerning lookup 15-1" uni0645 dx=-250 dy=0 dh=-250 dv=0 dx=0 dy=0 dh=0 dv=0
PairPos2: "'kern' Horizontal Kerning lookup 15-1" uniFEFB dx=-250 dy=0 dh=-250 dv=0 dx=0 dy=0 dh=0 dv=0
PairPos2: "'kern' Horizontal Kerning lookup 15-1" uniFEDF dx=-250 dy=0 dh=-250 dv=0 dx=0 dy=0 dh=0 dv=0
PairPos2: "'kern' Horizontal Kerning lookup 15-1" uni0644 dx=-80 dy=0 dh=-80 dv=0 dx=0 dy=0 dh=0 dv=0
PairPos2: "'kern' Horizontal Kerning lookup 15-1" uniFEDB dx=-350 dy=0 dh=-350 dv=0 dx=0 dy=0 dh=0 dv=0
PairPos2: "'kern' Horizontal Kerning lookup 15-1" uni0643 dx=-250 dy=0 dh=-250 dv=0 dx=0 dy=0 dh=0 dv=0
PairPos2: "'kern' Horizontal Kerning lookup 15-1" uniFED7 dx=-250 dy=0 dh=-250 dv=0 dx=0 dy=0 dh=0 dv=0
PairPos2: "'kern' Horizontal Kerning lookup 15-1" uni0642 dx=-100 dy=0 dh=-100 dv=0 dx=0 dy=0 dh=0 dv=0
PairPos2: "'kern' Horizontal Kerning lookup 15-1" uniFED3 dx=-250 dy=0 dh=-250 dv=0 dx=0 dy=0 dh=0 dv=0
PairPos2: "'kern' Horizontal Kerning lookup 15-1" uni0641 dx=-250 dy=0 dh=-250 dv=0 dx=0 dy=0 dh=0 dv=0
PairPos2: "'kern' Horizontal Kerning lookup 15-1" uniFECF dx=-250 dy=0 dh=-250 dv=0 dx=0 dy=0 dh=0 dv=0
PairPos2: "'kern' Horizontal Kerning lookup 15-1" uniFECB dx=-250 dy=0 dh=-250 dv=0 dx=0 dy=0 dh=0 dv=0
PairPos2: "'kern' Horizontal Kerning lookup 15-1" uniFEC7 dx=-250 dy=0 dh=-250 dv=0 dx=0 dy=0 dh=0 dv=0
PairPos2: "'kern' Horizontal Kerning lookup 15-1" uni0638 dx=-250 dy=0 dh=-250 dv=0 dx=0 dy=0 dh=0 dv=0
PairPos2: "'kern' Horizontal Kerning lookup 15-1" uniFEC3 dx=-250 dy=0 dh=-250 dv=0 dx=0 dy=0 dh=0 dv=0
PairPos2: "'kern' Horizontal Kerning lookup 15-1" uni0637 dx=-250 dy=0 dh=-250 dv=0 dx=0 dy=0 dh=0 dv=0
PairPos2: "'kern' Horizontal Kerning lookup 15-1" uniFEBF dx=-250 dy=0 dh=-250 dv=0 dx=0 dy=0 dh=0 dv=0
PairPos2: "'kern' Horizontal Kerning lookup 15-1" uni0636 dx=-250 dy=0 dh=-250 dv=0 dx=0 dy=0 dh=0 dv=0
PairPos2: "'kern' Horizontal Kerning lookup 15-1" uniFEBB dx=-250 dy=0 dh=-250 dv=0 dx=0 dy=0 dh=0 dv=0
PairPos2: "'kern' Horizontal Kerning lookup 15-1" uni0635 dx=-250 dy=0 dh=-250 dv=0 dx=0 dy=0 dh=0 dv=0
PairPos2: "'kern' Horizontal Kerning lookup 15-1" uniFEB7 dx=-250 dy=0 dh=-250 dv=0 dx=0 dy=0 dh=0 dv=0
PairPos2: "'kern' Horizontal Kerning lookup 15-1" uni0634 dx=-250 dy=0 dh=-250 dv=0 dx=0 dy=0 dh=0 dv=0
PairPos2: "'kern' Horizontal Kerning lookup 15-1" uniFEB3 dx=-250 dy=0 dh=-250 dv=0 dx=0 dy=0 dh=0 dv=0
PairPos2: "'kern' Horizontal Kerning lookup 15-1" uni0633 dx=-250 dy=0 dh=-250 dv=0 dx=0 dy=0 dh=0 dv=0
PairPos2: "'kern' Horizontal Kerning lookup 15-1" uni0632 dx=-80 dy=0 dh=-80 dv=0 dx=0 dy=0 dh=0 dv=0
PairPos2: "'kern' Horizontal Kerning lookup 15-1" uni0631 dx=-80 dy=0 dh=-80 dv=0 dx=0 dy=0 dh=0 dv=0
PairPos2: "'kern' Horizontal Kerning lookup 15-1" uni0630 dx=-250 dy=0 dh=-250 dv=0 dx=0 dy=0 dh=0 dv=0
PairPos2: "'kern' Horizontal Kerning lookup 15-1" uni062F dx=-250 dy=0 dh=-250 dv=0 dx=0 dy=0 dh=0 dv=0
PairPos2: "'kern' Horizontal Kerning lookup 15-1" uniFEA7 dx=-250 dy=0 dh=-250 dv=0 dx=0 dy=0 dh=0 dv=0
PairPos2: "'kern' Horizontal Kerning lookup 15-1" uniFEA3 dx=-250 dy=0 dh=-250 dv=0 dx=0 dy=0 dh=0 dv=0
PairPos2: "'kern' Horizontal Kerning lookup 15-1" uniFE9F dx=-250 dy=0 dh=-250 dv=0 dx=0 dy=0 dh=0 dv=0
PairPos2: "'kern' Horizontal Kerning lookup 15-1" uniFE9B dx=-250 dy=0 dh=-250 dv=0 dx=0 dy=0 dh=0 dv=0
PairPos2: "'kern' Horizontal Kerning lookup 15-1" uni062B dx=-250 dy=0 dh=-250 dv=0 dx=0 dy=0 dh=0 dv=0
PairPos2: "'kern' Horizontal Kerning lookup 15-1" uniFE97 dx=-250 dy=0 dh=-250 dv=0 dx=0 dy=0 dh=0 dv=0
PairPos2: "'kern' Horizontal Kerning lookup 15-1" uni062A dx=-250 dy=0 dh=-250 dv=0 dx=0 dy=0 dh=0 dv=0
PairPos2: "'kern' Horizontal Kerning lookup 15-1" uni0629 dx=-250 dy=0 dh=-250 dv=0 dx=0 dy=0 dh=0 dv=0
PairPos2: "'kern' Horizontal Kerning lookup 15-1" uniFE91 dx=-50 dy=0 dh=-50 dv=0 dx=0 dy=0 dh=0 dv=0
PairPos2: "'kern' Horizontal Kerning lookup 15-1" uni0628 dx=-250 dy=0 dh=-250 dv=0 dx=0 dy=0 dh=0 dv=0
PairPos2: "'kern' Horizontal Kerning lookup 15-1" uni0627 dx=-250 dy=0 dh=-250 dv=0 dx=0 dy=0 dh=0 dv=0
PairPos2: "'kern' Horizontal Kerning lookup 15-1" uni0623 dx=-250 dy=0 dh=-250 dv=0 dx=0 dy=0 dh=0 dv=0
PairPos2: "'kern' Horizontal Kerning lookup 15-1" uni0622 dx=-250 dy=0 dh=-250 dv=0 dx=0 dy=0 dh=0 dv=0
PairPos2: "'kern' Horizontal Kerning lookup 15-1" uni0621 dx=-250 dy=0 dh=-250 dv=0 dx=0 dy=0 dh=0 dv=0
PairPos2: "'kern' Horizontal Kerning lookup 15-1" uniFB94 dx=-350 dy=0 dh=-350 dv=0 dx=0 dy=0 dh=0 dv=0
PairPos2: "'kern' Horizontal Kerning lookup 15-1" uniFB92 dx=-350 dy=0 dh=-350 dv=0 dx=0 dy=0 dh=0 dv=0
PairPos2: "'kern' Horizontal Kerning lookup 15-1" afii57509 dx=-350 dy=0 dh=-350 dv=0 dx=0 dy=0 dh=0 dv=0
PairPos2: "'kern' Horizontal Kerning lookup 15-1" afii57508 dx=-80 dy=0 dh=-80 dv=0 dx=0 dy=0 dh=0 dv=0
PairPos2: "'kern' Horizontal Kerning lookup 15-1" afii57506 dx=-250 dy=0 dh=-250 dv=0 dx=0 dy=0 dh=0 dv=0
PairPos2: "'kern' Horizontal Kerning lookup 15-1" afii57440 dx=-250 dy=0 dh=-250 dv=0 dx=0 dy=0 dh=0 dv=0
PairPos2: "'kern' Horizontal Kerning lookup 15-1" uniFE8B dx=-250 dy=0 dh=-250 dv=0 dx=0 dy=0 dh=0 dv=0
EndChar

StartChar: uniFEB2
Encoding: 65202 65202 186
Width: 2456
VWidth: 2336
GlyphClass: 2
Flags: W
AnchorPoint: "Anchor-10" 580.867 951.321 basechar 0
AnchorPoint: "Anchor-7" 405.967 -726.659 basechar 0
LayerCount: 2
Fore
SplineSet
1433.30175781 1.4609375 m 6,0,1
 1339.45410156 1.4609375 1339.45410156 1.4609375 1298.81347656 35.7900390625 c 5,2,3
 1292 -181 1292 -181 1169.15429688 -319.131835938 c 4,4,5
 1009 -499 1009 -499 673.2265625 -505.075195312 c 4,6,7
 337 -511 337 -511 177.419921875 -304.13671875 c 4,8,9
 52 -140 52 -140 106.401367188 129.986328125 c 4,10,11
 126 227 126 227 178.305664062 340.442382812 c 4,12,13
 212 413 212 413 264.138671875 398.123046875 c 4,14,15
 316 383 316 383 284.921875 298.141601562 c 4,16,17
 216 109 216 109 257.309570312 -25.474609375 c 4,18,19
 325 -247 325 -247 663.776367188 -245.803710938 c 4,20,21
 1130 -244 1130 -244 1152.90820312 7.80078125 c 4,22,23
 1161 95 1161 95 1096.53027344 251.323242188 c 4,24,25
 1076 302 1076 302 1058.19824219 366.854492188 c 4,26,27
 1040 432 1040 432 1061.44921875 492.006835938 c 4,28,29
 1083.12695312 552.353515625 1083.12695312 552.353515625 1149.6953125 569.669921875 c 6,30,-1
 1202.98632812 583.532226562 l 5,31,-1
 1209.97851562 562.528320312 l 6,32,33
 1276 352 1276 352 1277.859375 346.423828125 c 4,34,35
 1307.04394531 259.869140625 1307.04394531 259.869140625 1424.63867188 261.817382812 c 6,36,-1
 1463.12695312 262.455078125 l 5,37,38
 1554.42382812 260.993164062 1554.42382812 260.993164062 1602.35253906 412.291992188 c 6,39,-1
 1620 468 l 6,40,41
 1646.10449219 550.329101562 1646.10449219 550.329101562 1749.1796875 550.329101562 c 6,42,-1
 1782.52636719 550.329101562 l 5,43,-1
 1775.00683594 469.943359375 l 6,44,45
 1763 346 1763 346 1812.39941406 298.805664062 c 4,46,47
 1857 255 1857 255 1927.30957031 259.076171875 c 4,48,49
 1997 263 1997 263 2029.62792969 305.422851562 c 4,50,51
 2061.82226562 347.766601562 2061.82226562 347.766601562 2065.90039062 437.770507812 c 6,52,-1
 2068.171875 487.90234375 l 6,53,54
 2073.97949219 625.514648438 2073.97949219 625.514648438 2189.99023438 625.514648438 c 6,55,-1
 2227.59375 625.514648438 l 5,56,-1
 2227.04003906 470.551757812 l 6,57,58
 2227 319.68359375 2227 319.68359375 2309.31445312 292.614257812 c 4,59,60
 2374.45996094 271.52734375 2374.45996094 271.52734375 2439.23828125 271.52734375 c 6,61,-1
 2466.48046875 271.52734375 l 5,62,-1
 2466.48046875 1.455078125 l 5,63,-1
 2445.71875 1.455078125 l 6,64,65
 2222 1 2222 1 2151.01953125 138.981445312 c 5,66,67
 2063 -9 2063 -9 1871.90234375 4.494140625 c 4,68,69
 1747 13 1747 13 1679.828125 148.09375 c 5,70,71
 1608.22460938 1.4609375 1608.22460938 1.4609375 1459.74023438 1.4609375 c 6,72,-1
 1433.30175781 1.4609375 l 6,0,1
EndSplineSet
EndChar

StartChar: uniFEB3
Encoding: 65203 65203 187
Width: 1390
VWidth: 2310
GlyphClass: 2
Flags: W
AnchorPoint: "Anchor-10" 640.331 1009.51 basechar 0
AnchorPoint: "Anchor-7" 619.53 -202.6 basechar 0
LayerCount: 2
Fore
SplineSet
283.278320312 137.534179688 m 1,0,1
 203.88516507 -0.19921875 203.88516507 -0.19921875 27.86328125 -0.19921875 c 2,2,-1
 -10.34375 -0.19921875 l 5,3,-1
 -10.34375 268.919921875 l 5,4,-1
 17.4736328125 268.919921875 l 2,5,6
 191.309199459 269.000142688 191.309199459 269.000142688 220.706054688 381.576171875 c 2,7,-1
 231.693359375 423.65234375 l 2,8,9
 263.883365835 546.5546875 263.883365835 546.5546875 359.99609375 546.5546875 c 2,10,-1
 399.8359375 546.5546875 l 1,11,-1
 385.322265625 467.381835938 l 2,12,13
 365 357 365 357 409.970703125 305.3203125 c 0,14,15
 448 262 448 262 504.94140625 260.96875 c 128,-1,16
 562 260 562 260 592.65234375 274.494140625 c 0,17,18
 644.608070984 298.278361898 644.608070984 298.278361898 676.491210938 397.932617188 c 2,19,-1
 695.5078125 457.37109375 l 2,20,21
 723.858439339 546.5546875 723.858439339 546.5546875 821.276367188 546.5546875 c 2,22,-1
 855.234375 546.5546875 l 1,23,-1
 847.359375 505.245117188 l 2,24,25
 826 392 826 392 877.102539062 325.55078125 c 0,26,27
 918 273 918 273 1013.640625 270.056640625 c 0,28,29
 1107 267 1107 267 1132.02148438 336.3125 c 0,30,31
 1147 379 1147 379 1117.60449219 458.791015625 c 0,32,33
 1087 542 1087 542 1072.62890625 595.75390625 c 0,34,35
 1042.02572698 712.901518265 1042.02572698 712.901518265 1181.46484375 779.551757812 c 2,36,-1
 1217.26757812 796.665039062 l 1,37,-1
 1224.42578125 775.16796875 l 2,38,39
 1291 575 1291 575 1298.61621094 454.484375 c 0,40,41
 1316 169 1316 169 1147.67871094 53.1474609375 c 0,42,43
 1073 2 1073 2 994.786780273 0.749778003512 c 0,44,45
 917 -0 917 -0 877.918945312 18.1962890625 c 0,46,47
 796 57 796 57 753.338867188 139.33203125 c 1,48,49
 681 1 681 1 518.394042969 0.28271484375 c 0,50,51
 356 -0 356 -0 283.278320312 137.534179688 c 1,0,1
EndSplineSet
EndChar

StartChar: uniFEB4
Encoding: 65204 65204 188
Width: 1546
VWidth: 2315
GlyphClass: 2
Flags: W
AnchorPoint: "Anchor-10" 606.883 1008.88 basechar 0
AnchorPoint: "Anchor-7" 705.463 -219.13 basechar 0
LayerCount: 2
Fore
SplineSet
1004.734375 257.078125 m 0,0,1
 1049 259 1049 259 1074.38476562 277.805664062 c 0,2,3
 1126.23091389 316.170872087 1126.23091389 316.170872087 1131.65039062 435.786132812 c 2,4,-1
 1133.921875 485.920898438 l 2,5,6
 1139.97932303 623.530273438 1139.97932303 623.530273438 1261.74023438 623.530273438 c 2,7,-1
 1310.34375 623.530273438 l 1,8,-1
 1303.79003906 485.530273438 l 6,9,10
 1296.99285157 338.479423214 1296.99285157 338.479423214 1378.56640625 298.658203125 c 4,11,12
 1438 270 1438 270 1515.9296875 269.54296875 c 2,13,-1
 1556.23046875 269.54296875 l 1,14,-1
 1556.23046875 -0.529296875 l 1,15,-1
 1522.46972656 -0.529296875 l 2,16,17
 1299 -1 1299 -1 1227.82421875 136.993164062 c 1,18,19
 1151 6 1151 6 992.208007812 1.728515625 c 0,20,21
 920 -0 920 -0 881.342773438 17.83203125 c 0,22,23
 802 56 802 56 756.643554688 146.126953125 c 1,24,25
 685 -1 685 -1 536.463867188 -0.5234375 c 0,26,27
 354 -0 354 -0 278.830078125 143.366210938 c 1,28,29
 196.934871574 6.8914663543 196.934871574 6.8914663543 29.724609375 0.4775390625 c 2,30,-1
 -9.9912109375 -1.0458984375 l 1,31,-1
 -9.9912109375 268.588867188 l 1,32,-1
 17.8125 268.588867188 l 2,33,34
 190.233090069 269.00055655 190.233090069 269.00055655 221.126953125 390.703125 c 2,35,-1
 238.427734375 458.857421875 l 2,36,37
 261.087290044 548.344726562 261.087290044 548.344726562 364.068359375 548.344726562 c 2,38,-1
 404.29296875 548.344726562 l 1,39,-1
 387.6328125 469.74609375 l 2,40,41
 364 358 364 358 415.106445312 305.805664062 c 0,42,43
 458 261 458 261 540.173828125 260.466796875 c 0,44,45
 627.717512948 259.004717855 627.717512948 259.004717855 679.102539062 410.306640625 c 2,46,-1
 700.436523438 473.124023438 l 2,47,48
 726.117693415 548.344726562 726.117693415 548.344726562 825.927734375 548.344726562 c 2,49,-1
 859.2734375 548.344726562 l 1,50,-1
 851.751953125 467.98046875 l 2,51,52
 831 250 831 250 1004.734375 257.078125 c 0,0,1
EndSplineSet
EndChar

StartChar: uniFEBA
Encoding: 65210 65210 194
Width: 2560
VWidth: 2311
GlyphClass: 2
Flags: W
AnchorPoint: "Anchor-10" 613.066 915.21 basechar 0
AnchorPoint: "Anchor-7" 382.286 -699.091 basechar 0
LayerCount: 2
Fore
SplineSet
1560.34960938 269.098632812 m 1,0,-1
 1707.29492188 269.098632812 l 2,1,2
 2210.73632812 268.768554688 2210.73632812 268.768554688 2187.1875 469.387695312 c 0,3,4
 2170.51367188 611.44921875 2170.51367188 611.44921875 2021.72167969 596.1484375 c 128,-1,5
 1872.93066406 580.84765625 1872.93066406 580.84765625 1658.89257812 373.61328125 c 0,6,7
 1605.95800781 322.36328125 1605.95800781 322.36328125 1560.34960938 269.098632812 c 1,0,-1
2217.99511719 136.600585938 m 1,8,9
 2179 106 2179 106 2146.05664062 86.4853515625 c 0,10,11
 1993.48955654 -1.2936821803 1993.48955654 -1.2936821803 1768.48046875 -0.7109375 c 2,12,-1
 1493.97363281 0 l 2,13,14
 1355 0 1355 0 1298.8828125 38.1533203125 c 1,15,16
 1293 -180 1293 -180 1169.15429688 -319.131835938 c 0,17,18
 1009 -499 1009 -499 673.2265625 -505.075195312 c 0,19,20
 337 -511 337 -511 177.419921875 -304.13671875 c 0,21,22
 52 -140 52 -140 106.401367188 129.986328125 c 0,23,24
 126 227 126 227 178.305664062 340.442382812 c 0,25,26
 212 413 212 413 264.138671875 398.123046875 c 0,27,28
 316 383 316 383 284.921875 298.141601562 c 0,29,30
 216 109 216 109 257.309570312 -25.474609375 c 0,31,32
 325 -247 325 -247 663.776367188 -245.803710938 c 0,33,34
 1130 -244 1130 -244 1152.90820312 7.80078125 c 0,35,36
 1161 95 1161 95 1096.53027344 251.323242188 c 0,37,38
 1076 302 1076 302 1058.19824219 366.854492188 c 0,39,40
 1040 432 1040 432 1061.44921875 492.006835938 c 0,41,42
 1083.12756118 552.355105393 1083.12756118 552.355105393 1149.6953125 569.669921875 c 2,43,-1
 1204.40136719 583.899414062 l 1,44,-1
 1211.18164062 561.228515625 l 2,45,46
 1260 397 1260 397 1279.40820312 347.625 c 0,47,48
 1298 302 1298 302 1376.359375 313.353515625 c 1,49,50
 1500 462 1500 462 1628.70507812 577.6015625 c 0,51,52
 1758 694 1758 694 1857.63183594 743.349609375 c 0,53,54
 1957 793 1957 793 2029.00976562 794.060546875 c 128,-1,55
 2101 795 2101 795 2143.37792969 783.315429688 c 0,56,57
 2315 737 2315 737 2346.7109375 506.189453125 c 0,58,59
 2357 433 2357 433 2329.15332031 332.716796875 c 1,60,61
 2387.15160749 268.833007812 2387.15160749 268.833007812 2524.0703125 268.833007812 c 2,62,-1
 2569.95996094 268.833007812 l 5,63,-1
 2569.95996094 -0.1806640625 l 5,64,-1
 2501.37207031 -0.1806640625 l 2,65,66
 2302 -0 2302 -0 2217.99511719 136.600585938 c 1,8,9
EndSplineSet
EndChar

StartChar: uniFEBB
Encoding: 65211 65211 195
Width: 1602
VWidth: 2291
GlyphClass: 2
Flags: W
AnchorPoint: "Anchor-10" 535.518 1133.87 basechar 0
AnchorPoint: "Anchor-7" 661.658 -268.295 basechar 0
LayerCount: 2
Fore
SplineSet
724.135742188 269.098632812 m 5,0,-1
 871.260742188 269.098632812 l 6,1,2
 1021.91015625 269.416015625 1021.91015625 269.416015625 1128.7578125 286.615234375 c 132,-1,3
 1235.60644531 303.815429688 1235.60644531 303.815429688 1297.61425781 350.665039062 c 132,-1,4
 1359.62207031 397.513671875 1359.62207031 397.513671875 1351.20117188 469.260742188 c 4,5,6
 1334.60742188 610.650390625 1334.60742188 610.650390625 1190.19433594 596.45703125 c 132,-1,7
 1045.78027344 582.264648438 1045.78027344 582.264648438 847.639648438 398.571289062 c 4,8,9
 782.915039062 338.567382812 782.915039062 338.567382812 724.135742188 269.098632812 c 5,0,-1
657.948242188 0 m 2,10,11
 429.296325907 0.592124370119 429.296325907 0.592124370119 319.849609375 151.239257812 c 1,12,13
 194.905678965 -0.1142578125 194.905678965 -0.1142578125 18.9697265625 -0.1142578125 c 2,14,-1
 -10.3046875 -0.1142578125 l 1,15,-1
 -10.3046875 269.00390625 l 5,16,-1
 7.5888671875 269.00390625 l 6,17,18
 114 269 114 269 169.981445312 297.53125 c 4,19,20
 214.043462881 320.022185113 214.043462881 320.022185113 234.505859375 391.610351562 c 6,21,-1
 246.077148438 432.092773438 l 2,22,23
 267 506 267 506 291.041992188 527.538085938 c 0,24,25
 328.084130296 561.076171875 328.084130296 561.076171875 390 561.076171875 c 2,26,-1
 421.638671875 561.076171875 l 1,27,-1
 404.05078125 453.674804688 l 6,28,29
 395 396 395 396 430 360.5 c 4,30,31
 463 327 463 327 542.577148438 316.01953125 c 5,32,33
 665 463 665 463 813.578125 596.278320312 c 4,34,35
 1031 792 1031 792 1213.72460938 794.42578125 c 4,36,37
 1470 798 1470 798 1510.70703125 506.219726562 c 4,38,39
 1549.17865382 229.715976916 1549.17865382 229.715976916 1310.09277344 86.5068359375 c 0,40,41
 1162.48468797 -1.30656383739 1162.48468797 -1.30656383739 932.48046875 -0.7109375 c 2,42,-1
 657.948242188 0 l 2,10,11
EndSplineSet
EndChar

StartChar: uniFEBC
Encoding: 65212 65212 196
Width: 1724
VWidth: 2291
GlyphClass: 2
Flags: W
AnchorPoint: "Anchor-10" 563.178 1202.7 basechar 0
AnchorPoint: "Anchor-7" 654.338 -275.466 basechar 0
LayerCount: 2
Fore
SplineSet
724.135742188 269.098632812 m 1,0,-1
 871.260742188 269.098632812 l 2,1,2
 1021.91015625 269.416015625 1021.91015625 269.416015625 1128.7578125 286.615234375 c 128,-1,3
 1235.60644531 303.815429688 1235.60644531 303.815429688 1297.61425781 350.665039062 c 128,-1,4
 1359.62207031 397.513671875 1359.62207031 397.513671875 1351.20117188 469.260742188 c 0,5,6
 1334.60742188 610.650390625 1334.60742188 610.650390625 1190.19433594 596.45703125 c 128,-1,7
 1045.78027344 582.264648438 1045.78027344 582.264648438 847.639648438 398.571289062 c 0,8,9
 782.915039062 338.567382812 782.915039062 338.567382812 724.135742188 269.098632812 c 1,0,-1
1382.92480469 135.755859375 m 1,10,11
 1203.46013113 -1.41263273228 1203.46013113 -1.41263273228 932.48046875 -0.7109375 c 2,12,-1
 657.931640625 0 l 2,13,14
 429 1 429 1 319.852539062 151.243164062 c 1,15,16
 194.905679188 -0.1142578125 194.905679188 -0.1142578125 18.9697265625 -0.1142578125 c 2,17,-1
 -10.3046875 -0.1142578125 l 1,18,-1
 -10.3046875 269.00390625 l 1,19,-1
 7.5888671875 269.00390625 l 2,20,21
 118 269 118 269 172.130859375 298.319335938 c 0,22,23
 214.382123692 321.206997779 214.382123692 321.206997779 234.505859375 391.610351562 c 2,24,-1
 246.077148438 432.092773438 l 2,25,26
 267 506 267 506 291.130859375 527.647460938 c 0,27,28
 328.084203232 561.076171875 328.084203232 561.076171875 390 561.076171875 c 2,29,-1
 421.638671875 561.076171875 l 1,30,-1
 404.05078125 453.674804688 l 2,31,32
 395 396 395 396 430 360.322265625 c 0,33,34
 463 327 463 327 542.577148438 316.01953125 c 1,35,36
 665 463 665 463 813.578125 596.278320312 c 0,37,38
 1104 858 1104 858 1327.67675781 776.772460938 c 0,39,40
 1480 722 1480 722 1510.69921875 506.271484375 c 0,41,42
 1524 415 1524 415 1493.78515625 336.684570312 c 1,43,44
 1556.29712033 268.676757812 1556.29712033 268.676757812 1688.29003906 268.676757812 c 2,45,-1
 1734.1796875 268.676757812 l 5,46,-1
 1734.1796875 -0.3359375 l 5,47,-1
 1665.58300781 -0.3359375 l 2,48,49
 1462 -0 1462 -0 1382.92480469 135.755859375 c 1,10,11
EndSplineSet
EndChar

StartChar: uniFEC2
Encoding: 65218 65218 202
Width: 1574
VWidth: 2311
GlyphClass: 2
Flags: W
AnchorPoint: "Anchor-7" 669.472 -262.627 basechar 0
AnchorPoint: "Anchor-10" 259.684 1532.11 basechar 0
LayerCount: 2
Fore
SplineSet
1239.71484375 139.653320312 m 5,0,1
 1068.18457031 -0.8486328125 1068.18457031 -0.8486328125 784.533203125 -0.1142578125 c 6,2,-1
 510.057617188 0.5966796875 l 5,3,-1
 363.783203125 0.1416015625 l 6,4,5
 80.6962890625 -1.0009765625 80.6962890625 -1.0009765625 80.6962890625 234 c 6,6,-1
 80.6962890625 268.955078125 l 5,7,-1
 285.999023438 268.98828125 l 5,8,-1
 223.384765625 1077.28125 l 6,9,10
 202.041992188 1349.46289062 202.041992188 1349.46289062 374.1953125 1443.64550781 c 6,11,-1
 423.774414062 1470.76953125 l 5,12,-1
 423.080078125 350.280273438 l 5,13,14
 802 791 802 791 1065.77636719 795.022460938 c 4,15,16
 1194 797 1194 797 1268.85058594 723.01953125 c 4,17,18
 1344 649 1344 649 1362.77929688 506.66796875 c 4,19,20
 1374 423 1374 423 1344.50683594 332.2109375 c 5,21,22
 1400.62792969 269.416015625 1400.62792969 269.416015625 1538.66992188 269.416015625 c 6,23,-1
 1584.55957031 269.416015625 l 5,24,-1
 1584.55957031 0.4033203125 l 5,25,-1
 1541.44726562 0.4033203125 l 6,26,27
 1323 0 1323 0 1239.71484375 139.653320312 c 5,0,1
1203.77539062 467.158203125 m 4,28,29
 1195 542 1195 542 1153.95996094 572.901367188 c 132,-1,30
 1113 604 1113 604 1019.50585938 594.94921875 c 132,-1,31
 926 586 926 586 765.586914062 456.45703125 c 4,32,33
 665 375 665 375 576.188476562 269.6953125 c 5,34,-1
 723.313476562 269.6953125 l 5,35,36
 1227 271 1227 271 1203.77539062 467.158203125 c 4,28,29
EndSplineSet
EndChar

StartChar: uniFEC3
Encoding: 65219 65219 203
Width: 1325
VWidth: 2311
GlyphClass: 2
Flags: W
AnchorPoint: "Anchor-10" 211.85 1554.07 basechar 0
AnchorPoint: "Anchor-7" 482.85 -276.406 basechar 0
LayerCount: 2
Fore
SplineSet
447.188476562 269.6953125 m 1,0,-1
 594.313476562 269.6953125 l 2,1,2
 744.962890625 270.012695312 744.962890625 270.012695312 851.810546875 287.212890625 c 128,-1,3
 958.659179688 304.412109375 958.659179688 304.412109375 1020.66699219 351.26171875 c 128,-1,4
 1082.67480469 398.110351562 1082.67480469 398.110351562 1074.25390625 469.857421875 c 0,5,6
 1057.66015625 611.247070312 1057.66015625 611.247070312 904.598632812 596.583007812 c 0,7,8
 796.924804688 585.69921875 796.924804688 585.69921875 636.586914062 456.45703125 c 0,9,10
 535.899414062 374.541992188 535.899414062 374.541992188 447.188476562 269.6953125 c 1,0,-1
381.044921875 0.5966796875 m 1,11,-1
 -20.6796875 -0.1630859375 l 5,12,-1
 -20.6796875 268.991210938 l 5,13,-1
 156.999023438 268.9921875 l 1,14,-1
 94.3837890625 1077.29785156 l 2,15,16
 73.042137039 1349.46263681 73.042137039 1349.46263681 244.802734375 1443.43066406 c 2,17,-1
 294.774414062 1470.76953125 l 1,18,-1
 294.080078125 350.280273438 l 1,19,20
 674 792 674 792 933.931640625 795.106445312 c 0,21,22
 1193 798 1193 798 1233.75976562 506.81640625 c 0,23,24
 1272 232 1272 232 1033.19628906 87.1337890625 c 0,25,26
 888.465301967 -0.7175628544 888.465301967 -0.7175628544 655.533203125 -0.1142578125 c 2,27,-1
 381.044921875 0.5966796875 l 1,11,-1
EndSplineSet
EndChar

StartChar: uniFEC4
Encoding: 65220 65220 204
Width: 1443
VWidth: 2311
GlyphClass: 2
Flags: W
AnchorPoint: "Anchor-10" 199.939 1539.75 basechar 0
AnchorPoint: "Anchor-7" 537.047 -246.727 basechar 0
LayerCount: 2
Fore
SplineSet
447.188476562 269.6953125 m 1,0,-1
 594.313476562 269.6953125 l 2,1,2
 744.962890625 270.012695312 744.962890625 270.012695312 851.810546875 287.212890625 c 128,-1,3
 958.659179688 304.412109375 958.659179688 304.412109375 1020.66699219 351.26171875 c 128,-1,4
 1082.67480469 398.110351562 1082.67480469 398.110351562 1074.25390625 469.857421875 c 0,5,6
 1057.66015625 611.247070312 1057.66015625 611.247070312 904.598632812 596.583007812 c 0,7,8
 796.924804688 585.69921875 796.924804688 585.69921875 636.586914062 456.45703125 c 0,9,10
 535.899414062 374.541992188 535.899414062 374.541992188 447.188476562 269.6953125 c 1,0,-1
1110.125 140.721679688 m 1,11,12
 941.17413368 -0.854081196369 941.17413368 -0.854081196369 655.533203125 -0.1142578125 c 2,13,-1
 381.044921875 0.5966796875 l 1,14,-1
 -20.6796875 -0.1630859375 l 5,15,-1
 -20.6796875 268.991210938 l 5,16,-1
 156.999023438 268.9921875 l 1,17,-1
 94.3857421875 1077.28125 l 2,18,19
 73.0421075873 1349.46302876 73.0421075873 1349.46302876 244.80078125 1443.4296875 c 2,20,-1
 294.774414062 1470.76953125 l 1,21,-1
 294.080078125 350.280273438 l 1,22,23
 674 792 674 792 936.778320312 795.022460938 c 0,24,25
 1066 797 1066 797 1140.86816406 722.986328125 c 0,26,27
 1216 649 1216 649 1233.80078125 506.50390625 c 0,28,29
 1243 433 1243 433 1221.70703125 339.04296875 c 1,30,31
 1281.64189386 269.416015625 1281.64189386 269.416015625 1407.66992188 269.416015625 c 2,32,-1
 1453.55957031 269.416015625 l 1,33,-1
 1453.55957031 0.4033203125 l 1,34,-1
 1410.44824219 0.4033203125 l 2,35,36
 1200 0 1200 0 1110.125 140.721679688 c 1,11,12
EndSplineSet
EndChar

StartChar: uniFECA
Encoding: 65226 65226 210
Width: 1279
VWidth: 2309
GlyphClass: 2
Flags: W
AnchorPoint: "Anchor-10" 449.886 1135.6 basechar 0
AnchorPoint: "Anchor-7" 393.457 -793.007 basechar 0
LayerCount: 2
Fore
SplineSet
629 743 m 0,0,1
 553 731 553 731 547.337890625 709.984375 c 0,2,3
 542 690 542 690 599.159179688 643.259765625 c 0,4,5
 657 597 657 597 685.98046875 576.856445312 c 1,6,7
 772.208007812 600.78515625 772.208007812 600.78515625 882.728515625 666.40234375 c 0,8,9
 909 682 909 682 914.44921875 693.38671875 c 24,10,11
 920.401367188 708.044921875 920.401367188 708.044921875 897.811523438 723.2109375 c 0,12,13
 876 737 876 737 842 742 c 0,14,15
 732 759 732 759 629 743 c 0,0,1
528.938476562 477.651367188 m 1,16,17
 498 505 498 505 423.33984375 569.625976562 c 0,18,19
 348 634 348 634 354.624023438 722.154296875 c 0,20,21
 361 810 361 810 482.119140625 869.147460938 c 0,22,23
 625 939 625 939 869.448242188 912.40234375 c 0,24,25
 1031 895 1031 895 1078.45214844 797.15234375 c 0,26,27
 1141 669 1141 669 1012.03515625 572.026367188 c 0,28,29
 943 520 943 520 808.190429688 453.470703125 c 1,30,31
 971.898539319 269.114257812 971.898539319 269.114257812 1255.6796875 269.114257812 c 2,32,-1
 1289.69042969 269.114257812 l 1,33,-1
 1289.69042969 -0.8984375 l 1,34,-1
 1264.62695312 -0.8984375 l 2,35,36
 943 -1 943 -1 648.115234375 372.682617188 c 1,37,38
 500 300 500 300 395.7890625 180.267578125 c 0,39,40
 292 60 292 60 275.775390625 -64.412109375 c 0,41,42
 265 -151 265 -151 288.212890625 -209.263671875 c 0,43,44
 378 -427 378 -427 823.83203125 -427.075195312 c 0,45,46
 1028.24680076 -426.999909103 1028.24680076 -426.999909103 1171.59277344 -386.745117188 c 2,47,-1
 1209.58105469 -376.077148438 l 1,48,49
 1161 -567 1161 -567 1024.42285156 -642.202148438 c 0,50,51
 941.193102389 -688.994372095 941.193102389 -688.994372095 739.549804688 -689.064453125 c 0,52,53
 364 -689 364 -689 200.174804688 -497.931640625 c 0,54,55
 92 -371 92 -371 91.755859375 -176.31640625 c 0,56,57
 92 66 92 66 270.825195312 275.02734375 c 0,58,59
 358 377 358 377 528.938476562 477.651367188 c 1,16,17
EndSplineSet
EndChar

StartChar: uniFECB
Encoding: 65227 65227 211
Width: 1019
VWidth: 2307
GlyphClass: 2
Flags: W
AnchorPoint: "Anchor-10" 327.569 1285.15 basechar 0
AnchorPoint: "Anchor-7" 479.424 -264.284 basechar 0
LayerCount: 2
Fore
SplineSet
206.692382812 269.134765625 m 1,0,1
 45 442 45 442 92.9306640625 616.4609375 c 0,2,3
 153 837 153 837 353 878 c 0,4,5
 471 902 471 902 559 876 c 0,6,7
 759.668671148 818.09560733 759.668671148 818.09560733 749.767578125 631.807617188 c 2,8,-1
 747.87890625 596.272460938 l 1,9,-1
 718.505859375 616.360351562 l 2,10,11
 574 715 574 715 433.315429688 691.3046875 c 0,12,13
 292 668 292 668 269.659179688 536.859375 c 0,14,15
 247 405 247 405 403.608398438 311.572265625 c 0,16,17
 423 300 423 300 475.5546875 301.108398438 c 0,18,19
 534.498177075 302.984031558 534.498177075 302.984031558 617.359375 320.922851562 c 2,20,-1
 741.114257812 347.71484375 l 2,21,22
 835.932223496 367.985510395 835.932223496 367.985510395 913.216796875 152.560546875 c 2,23,-1
 927.2421875 113.465820312 l 1,24,-1
 901.587890625 111.053710938 l 2,25,26
 811 103 811 103 655.344726562 67.4775390625 c 0,27,28
 354.49890602 -0.112579265071 354.49890602 -0.112579265071 104.983398438 -0.0703125 c 2,29,-1
 -10.31640625 -0.05078125 l 1,30,-1
 -10.31640625 269.057617188 l 1,31,-1
 206.692382812 269.134765625 l 1,0,1
EndSplineSet
EndChar

StartChar: uniFECC
Encoding: 65228 65228 212
Width: 1042
VWidth: 2309
GlyphClass: 2
Flags: W
AnchorPoint: "Anchor-10" 454.73 1130.16 basechar 0
AnchorPoint: "Anchor-7" 492.89 -214.98 basechar 0
LayerCount: 2
Fore
SplineSet
694.928710938 572.51171875 m 0,0,1
 694.928710938 623.603515625 694.928710938 623.603515625 521.833007812 623.603515625 c 0,2,3
 416.784179688 623.603515625 416.784179688 623.603515625 372.392578125 612.801757812 c 128,-1,4
 328 602 328 602 325.7734375 579.75390625 c 0,5,6
 325.735351562 564.883789062 325.735351562 564.883789062 394.779296875 520.668945312 c 0,7,8
 454.475585938 482.439453125 454.475585938 482.439453125 522.1015625 450.326171875 c 1,9,10
 674.97265625 519.651367188 674.97265625 519.651367188 694.34765625 570.176757812 c 0,11,12
 694.928710938 571.690429688 694.928710938 571.690429688 694.928710938 572.51171875 c 0,0,1
515.67578125 165.278320312 m 1,13,14
 332.505408881 -1.4501953125 332.505408881 -1.4501953125 64.947265625 -1.4501953125 c 2,15,-1
 -71.9287109375 -1.4501953125 l 5,16,-1
 -71.9287109375 267.66796875 l 5,17,-1
 39.9951171875 267.66796875 l 2,18,19
 282 268 282 268 383.682617188 331.301757812 c 1,20,21
 285 380 285 380 206.916015625 447.23828125 c 0,22,23
 129 514 129 514 134.80859375 602.3515625 c 0,24,25
 141 690 141 690 272.890625 754.516601562 c 0,26,27
 405 819 405 819 649.815429688 792.510742188 c 0,28,29
 842 772 842 772 872.228515625 639.802734375 c 0,30,31
 907 488 907 488 654.502929688 333.036132812 c 1,32,33
 778.864952519 266.537494134 778.864952519 266.537494134 988.100585938 267.66796875 c 2,34,-1
 1082.08984375 268.17578125 l 1,35,-1
 1082.08984375 -0.9208984375 l 1,36,-1
 963.233398438 -0.9208984375 l 2,37,38
 697 -1 697 -1 515.67578125 165.278320312 c 1,13,14
EndSplineSet
EndChar

StartChar: uniFEDA
Encoding: 65242 65242 226
Width: 1955
VWidth: 2287
GlyphClass: 2
Flags: W
AnchorPoint: "Anchor-10" 576.702 1415.42 basechar 0
AnchorPoint: "Anchor-7" 609.562 -266.337 basechar 0
LayerCount: 2
Fore
SplineSet
1609.78320312 120.030273438 m 1,0,1
 1399 0 1399 0 947.563476562 -0.6484375 c 0,2,3
 708 -1 708 -1 635.663085938 3.79296875 c 0,4,5
 392 20 392 20 277.225585938 93.150390625 c 0,6,7
 89 214 89 214 91.0009765625 472.169921875 c 0,8,9
 92 594 92 594 128.631835938 679.913085938 c 0,10,11
 155 740 155 740 194.96875 734.84765625 c 0,12,13
 230 730 230 730 233.67578125 691.45703125 c 0,14,15
 237 653 237 653 221.936523438 562.5859375 c 0,16,17
 209 487 209 487 231 435 c 0,18,19
 282 315 282 315 564.297851562 284.140625 c 0,20,21
 694 270 694 270 898 268.5 c 128,-1,22
 1102 267 1102 267 1202.63867188 275.844726562 c 0,23,24
 1588.66451291 308.971210457 1588.66451291 308.971210457 1603.75976562 485.138671875 c 2,25,-1
 1607.78320312 532.09375 l 1,26,-1
 1562.08300781 1123.21582031 l 2,27,28
 1543.02164204 1364.72579252 1543.02164204 1364.72579252 1712.86132812 1448.16113281 c 2,29,-1
 1757.71972656 1470.19824219 l 1,30,-1
 1757.71972656 450.095703125 l 2,31,32
 1758 330 1758 330 1733.25097656 286.307617188 c 1,33,34
 1788.6604703 218.416015625 1788.6604703 218.416015625 1909.05957031 218.416015625 c 2,35,-1
 1965.20019531 218.416015625 l 5,36,-1
 1965.20019531 -0.5966796875 l 5,37,-1
 1929.70996094 -0.5966796875 l 2,38,39
 1724 -1 1724 -1 1609.78320312 120.030273438 c 1,0,1
1105.34960938 737.619140625 m 0,40,41
 1000 602 1000 602 716.918945312 649.293945312 c 1,42,-1
 716.918945312 750.999023438 l 1,43,-1
 739.532226562 748.018554688 l 2,44,45
 800 740 800 740 862.065429688 739.701171875 c 0,46,47
 922 740 922 740 969.177734375 758.46875 c 0,48,49
 1046 788 1046 788 1045.83984375 833.430664062 c 0,50,51
 1046 879 1046 879 969.020507812 891.115234375 c 0,52,53
 892 903 892 903 848.127929688 948.3515625 c 0,54,55
 804 993 804 993 819.595703125 1071.50195312 c 0,56,57
 849.008789062 1221.04199219 849.008789062 1221.04199219 1112.61425781 1237.75976562 c 2,58,-1
 1133.87988281 1239.10839844 l 1,59,-1
 1133.87988281 1144.15917969 l 1,60,61
 991 1134 991 1134 937.408203125 1087.20898438 c 0,62,63
 916 1069 916 1069 916.111328125 1045.22460938 c 0,64,65
 916 988 916 988 990.64453125 976.8046875 c 0,66,67
 1050 968 1050 968 1072.38085938 959.189453125 c 0,68,69
 1144 931 1144 931 1143.70996094 858.944335938 c 0,70,71
 1144 787 1144 787 1105.34960938 737.619140625 c 0,40,41
EndSplineSet
EndChar

StartChar: uniFEDB
Encoding: 65243 65243 227
Width: 898
VWidth: 2288
GlyphClass: 2
Flags: W
AnchorPoint: "Anchor-10" 235.529 1391.73 basechar 0
AnchorPoint: "Anchor-7" 300.925 -267.362 basechar 0
LayerCount: 2
Fore
SplineSet
-10 270.592773438 m 5,0,1
 229 271 229 271 336.20703125 322.962890625 c 0,2,3
 389 348 389 348 380 401 c 0,4,5
 377.180499541 422.146253439 377.180499541 422.146253439 341.771484375 467.309570312 c 4,6,7
 131 742 131 742 25 929 c 0,8,9
 -14.4369754794 999.680857398 -14.4369754794 999.680857398 29.3212890625 1080.66796875 c 0,10,11
 63.1124374531 1143.20809748 63.1124374531 1143.20809748 148.916015625 1181.60546875 c 2,12,-1
 857.170898438 1498.55175781 l 1,13,-1
 857.170898438 1445.30664062 l 2,14,15
 856.999662097 1283.6810621 856.999662097 1283.6810621 624.783203125 1185.57617188 c 2,16,-1
 199.6484375 1005.96875 l 5,17,18
 315 792 315 792 543.701171875 499.002929688 c 0,19,20
 647.363557502 364.869739053 647.363557502 364.869739053 544.770507812 199.494140625 c 0,21,22
 422 2 422 2 -10 -0.8271484375 c 5,23,-1
 -10 270.592773438 l 5,0,1
EndSplineSet
EndChar

StartChar: uniFEDC
Encoding: 65244 65244 228
Width: 894
VWidth: 2288
GlyphClass: 2
Flags: W
AnchorPoint: "Anchor-10" 230.208 1346.69 basechar 0
AnchorPoint: "Anchor-7" 305.338 -257.308 basechar 0
LayerCount: 2
Fore
SplineSet
519.975585938 186.86328125 m 1,0,1
 393 -0 393 -0 -10 -0.720703125 c 1,2,-1
 -10 270.59375 l 1,3,4
 247 271 247 271 354.055664062 322.888671875 c 0,5,6
 408 349 408 349 401 395 c 0,7,8
 395.898018115 424.336395839 395.898018115 424.336395839 365.720703125 459.381835938 c 4,9,10
 106 761 106 761 19.146484375 941.323242188 c 0,11,12
 -54.9131845488 1091.63900795 -54.9131845488 1091.63900795 149.172851562 1183.36328125 c 2,13,-1
 856.484375 1501.25683594 l 1,14,-1
 856.484375 1447.94824219 l 2,15,16
 856.000241726 1284.08181783 856.000241726 1284.08181783 619.764648438 1184.56835938 c 2,17,-1
 200.728515625 1008.05078125 l 1,18,19
 359 728 359 728 660.26953125 357.255859375 c 0,20,21
 732.707885205 268.358487406 732.707885205 268.358487406 868.506835938 268.918945312 c 2,22,-1
 904 269.065429688 l 1,23,-1
 904 0 l 1,24,-1
 836.4296875 0 l 2,25,26
 670 0 670 0 519.975585938 186.86328125 c 1,0,1
EndSplineSet
EndChar

StartChar: uniFEDE
Encoding: 65246 65246 230
Width: 1476
VWidth: 2299
GlyphClass: 2
Flags: W
AnchorPoint: "Anchor-7" 246.713 -533.707 basechar 0
LayerCount: 2
Fore
SplineSet
1210.83789062 494.025390625 m 4,0,1
 1211 268.931640625 1211 268.931640625 1427.45996094 268.931640625 c 6,2,-1
 1486.38964844 268.931640625 l 5,3,-1
 1486.38964844 -0.0810546875 l 5,4,-1
 1442.45996094 -0.0810546875 l 6,5,6
 1322 0 1322 0 1208.95898438 68.97265625 c 5,7,8
 1190 -191 1190 -191 1045.58886719 -329.317382812 c 4,9,10
 901 -468 901 -468 635.3828125 -481.971679688 c 4,11,12
 293 -500 293 -500 147.028320312 -292.182617188 c 4,13,14
 35 -132 35 -132 93.48046875 132.357421875 c 4,15,16
 139 335 139 335 194.314453125 399.029296875 c 4,17,18
 217 425 217 425 238.51953125 421.27734375 c 4,19,20
 260 417 260 417 267.982421875 409.629882812 c 4,21,22
 293 387 293 387 271.201171875 327.21875 c 4,23,24
 186 90 186 90 254.69921875 -42.35546875 c 4,25,26
 344 -215 344 -215 584.006835938 -220.12109375 c 4,27,28
 1060 -230 1060 -230 1079.13671875 76.4111328125 c 28,29,30
 1083.00390625 141.065429688 1083.00390625 141.065429688 1078.88964844 196.079101562 c 6,31,-1
 1015.72949219 1040.62011719 l 6,32,33
 992.029296875 1356.61035156 992.029296875 1356.61035156 1154.39355469 1441.19042969 c 6,34,-1
 1210.83007812 1470.58984375 l 5,35,-1
 1210.83007812 541.48828125 l 6,36,37
 1211 497 1211 497 1210.83789062 494.025390625 c 4,0,1
EndSplineSet
EndChar

StartChar: uniFEDF
Encoding: 65247 65247 231
Width: 507
VWidth: 2287
GlyphClass: 2
Flags: W
AnchorPoint: "Anchor-10" 255.411 1517.09 basechar 0
AnchorPoint: "Anchor-7" 184.391 -230.301 basechar 0
LayerCount: 2
Fore
SplineSet
376.577148438 532.760742188 m 2,0,1
 376.577148438 269.401416316 376.577148438 269.401416316 293.315429688 151.537109375 c 0,2,3
 187.909055205 -0.130859375 187.909055205 -0.130859375 24.21875 -0.130859375 c 2,4,-1
 -10.8076171875 -0.130859375 l 5,5,-1
 -10.8076171875 268.98828125 l 5,6,-1
 2.435546875 268.98828125 l 2,7,8
 141.686241104 269.000143646 141.686241104 269.000143646 189.6875 346.161132812 c 0,9,10
 235.255935782 419.411411253 235.255935782 419.411411253 224.653320312 544.954101562 c 2,11,-1
 179.446289062 1080.23828125 l 2,12,13
 155.995644647 1360.05196818 155.995644647 1360.05196818 331.947265625 1448.19140625 c 2,14,-1
 376.577148438 1470.54785156 l 1,15,-1
 376.577148438 532.760742188 l 2,0,1
EndSplineSet
EndChar

StartChar: uniFEE0
Encoding: 65248 65248 232
Width: 633
VWidth: 2287
GlyphClass: 2
Flags: W
AnchorPoint: "Anchor-10" 275.93 1513.88 basechar 0
AnchorPoint: "Anchor-7" 239.89 -283.269 basechar 0
LayerCount: 2
Fore
SplineSet
300.418945312 122.318359375 m 1,0,1
 194.674556631 5.64090858055 194.674556631 5.64090858055 37.501953125 0.90625 c 2,2,-1
 -10.087890625 -0.52734375 l 1,3,-1
 -10.087890625 269.021484375 l 1,4,-1
 4.6982421875 269.021484375 l 2,5,6
 129 269 129 269 189.043732632 322.538951491 c 0,7,8
 250.493109956 376.432476863 250.493109956 376.432476863 240.67578125 492.791015625 c 2,9,-1
 191.23828125 1078.7421875 l 2,10,11
 167.984891566 1357.1809101 167.984891566 1357.1809101 336.729492188 1444.12890625 c 2,12,-1
 388.616210938 1470.86425781 l 1,13,-1
 388.616210938 494.228515625 l 2,14,15
 389 358 389 358 443.051757812 321.5390625 c 0,16,17
 520.968125254 269.021484375 520.968125254 269.021484375 611.822265625 269.021484375 c 2,18,-1
 643.547851562 269.021484375 l 5,19,-1
 643.547851562 -0.6298828125 l 5,20,-1
 604.916015625 0.908203125 l 2,21,22
 405 9 405 9 300.418945312 122.318359375 c 1,0,1
EndSplineSet
EndChar

StartChar: uniFEE2
Encoding: 65250 65250 234
Width: 1165
VWidth: 2333
GlyphClass: 2
Flags: W
AnchorPoint: "Anchor-10" 492.183 1081.24 basechar 0
AnchorPoint: "Anchor-7" 207.132 -749.15 basechar 0
LayerCount: 2
Fore
SplineSet
506.122070312 467.46484375 m 5,0,1
 514 275 514 275 577.484375 201.916015625 c 4,2,3
 632 139 632 139 715 146 c 4,4,5
 793.880859375 152.310546875 793.880859375 152.310546875 807 217 c 4,6,7
 836 360 836 360 619.306640625 438.706054688 c 4,8,9
 548.083984375 463.6171875 548.083984375 463.6171875 506.122070312 467.46484375 c 5,0,1
1144.71582031 268.612304688 m 6,10,-1
 1175.45996094 268.427734375 l 5,11,-1
 1175.45996094 0.529296875 l 5,12,-1
 1161.72460938 0.529296875 l 6,13,14
 1039 1 1039 1 960.5546875 81.5205078125 c 5,15,16
 932 16 932 16 869.48828125 -34.48828125 c 132,-1,17
 807 -85 807 -85 710.654296875 -85.7734375 c 4,18,19
 386 -89 386 -89 356.079101562 389.209960938 c 5,20,21
 302 382 302 382 282.676757812 351.953125 c 4,22,23
 240.69921875 290.559570312 240.69921875 290.559570312 260.037109375 30.5 c 6,24,-1
 283.483398438 -284.803710938 l 6,25,26
 298.995117188 -496.9296875 298.995117188 -496.9296875 148.524414062 -572.247070312 c 6,27,-1
 91.2939453125 -600.893554688 l 5,28,-1
 94.44140625 142.081054688 l 6,29,30
 96 522 96 522 380.911132812 583.376953125 c 5,31,32
 382.00390625 646.202148438 382.00390625 646.202148438 408.497070312 709.604492188 c 6,33,-1
 418.0234375 732.40234375 l 5,34,-1
 438.336914062 718.3359375 l 6,35,36
 521 661 521 661 652.293945312 617.984375 c 4,37,38
 905 533 905 533 992.145507812 345.41015625 c 4,39,40
 1028 269 1028 269 1144.71582031 268.612304688 c 6,10,-1
EndSplineSet
EndChar

StartChar: uniFEE3
Encoding: 65251 65251 235
Width: 909
VWidth: 2314
GlyphClass: 2
Flags: W
AnchorPoint: "Anchor-10" 379.953 1031.87 basechar 0
AnchorPoint: "Anchor-7" 341.794 -218.935 basechar 0
LayerCount: 2
Fore
SplineSet
747.869140625 52.94921875 m 4,0,1
 635 -58 635 -58 494.661132812 -26.5234375 c 0,2,3
 339 8 339 8 229.44921875 115.815429688 c 1,4,5
 141.950595745 -0.0654296875 141.950595745 -0.0654296875 3.421875 -0.0654296875 c 2,6,-1
 -10.2021484375 -0.0654296875 l 1,7,-1
 -10.2021484375 269.053710938 l 1,8,-1
 11.44921875 269.052734375 l 2,9,10
 106 269 106 269 202.76171875 418.201171875 c 0,11,12
 302 571 302 571 353.985351562 630.212890625 c 0,13,14
 450 739 450 739 588.551757812 705.508789062 c 0,15,16
 742 669 742 669 799.3671875 453.990234375 c 0,17,18
 830 338 830 338 817.7421875 223.676757812 c 0,19,20
 805 109 805 109 747.869140625 52.94921875 c 4,0,1
460.271484375 249.161132812 m 0,21,22
 560 190 560 190 611.377929688 230.240234375 c 0,23,24
 671 276 671 276 642.83203125 371.290039062 c 0,25,26
 603 505 603 505 558.072265625 530.637695312 c 0,27,28
 512 557 512 557 444.518554688 486.244140625 c 0,29,30
 384 422 384 422 339.625976562 342.514648438 c 1,31,32
 392 291 392 291 460.271484375 249.161132812 c 0,21,22
EndSplineSet
EndChar

StartChar: uniFEE4
Encoding: 65252 65252 236
Width: 1003
VWidth: 2314
GlyphClass: 2
Flags: W
AnchorPoint: "Anchor-10" 428.224 995.825 basechar 0
AnchorPoint: "Anchor-7" 390.064 -228.475 basechar 0
LayerCount: 2
Fore
SplineSet
460.271484375 198.161132812 m 0,0,1
 559.52734375 139.143554688 559.52734375 139.143554688 611.377929688 179.240234375 c 0,2,3
 670.940429688 225.426757812 670.940429688 225.426757812 642.83203125 320.290039062 c 0,4,5
 603.106445312 453.65625 603.106445312 453.65625 558.072265625 479.637695312 c 0,6,7
 511.727539062 505.900390625 511.727539062 505.900390625 444.518554688 435.244140625 c 0,8,9
 384.297851562 371.428710938 384.297851562 371.428710938 339.625976562 291.514648438 c 1,10,11
 391.627929688 239.5234375 391.627929688 239.5234375 460.271484375 198.161132812 c 0,0,1
810.642578125 347.141601562 m 1,12,13
 836.876735691 268.370117188 836.876735691 268.370117188 971.639648438 268.370117188 c 2,14,-1
 1013.94042969 268.370117188 l 5,15,-1
 1013.94042969 -0.642578125 l 5,16,-1
 993.022460938 -0.642578125 l 2,17,18
 923.126581659 -0.980074553921 923.126581659 -0.980074553921 867.341796875 18.2587890625 c 0,19,20
 813 37 813 37 777.254882812 75.693359375 c 1,21,22
 770 60 770 60 763.27734375 47.02734375 c 0,23,24
 756 34 756 34 748.790039062 22.1318359375 c 0,25,26
 662 -109 662 -109 507.151367188 -78.6259765625 c 0,27,28
 357 -49 357 -49 228.27734375 79.9541015625 c 1,29,30
 146.93348745 -0.0654296875 146.93348745 -0.0654296875 3.421875 -0.0654296875 c 2,31,-1
 -10.2021484375 -0.0654296875 l 1,32,-1
 -10.2021484375 269.053710938 l 1,33,-1
 11.447265625 269.052734375 l 2,34,35
 141 269 141 269 202.609375 366.963867188 c 0,36,37
 282 493 282 493 353.63671875 578.8046875 c 0,38,39
 446 689 446 689 588.583984375 654.500976562 c 0,40,41
 640 642 640 642 681.279296875 609.03515625 c 0,42,43
 722 576 722 576 751.5 524.51953125 c 128,-1,44
 781 473 781 473 799.328125 403.141601562 c 0,45,-1
 810.642578125 347.141601562 l 1,12,13
EndSplineSet
EndChar

StartChar: uniFEEA
Encoding: 65258 65258 242
Width: 1017
VWidth: 2303
GlyphClass: 2
Flags: W
AnchorPoint: "Anchor-10" 370.234 1208.15 basechar 0
AnchorPoint: "Anchor-7" 356.38 -205.691 basechar 0
LayerCount: 2
Fore
SplineSet
637.373046875 448.736328125 m 1,0,-1
 587.172851562 647.147460938 l 1,1,2
 318.168945312 586.951171875 318.168945312 586.951171875 277.971679688 512.637695312 c 0,3,4
 269.53515625 497.0390625 269.53515625 497.0390625 272.591796875 482.018554688 c 0,5,6
 289.578125 399.211914062 289.578125 399.211914062 637.373046875 448.736328125 c 1,0,-1
683.931640625 210.793945312 m 1,7,8
 363 182 363 182 225.490234375 229.088867188 c 0,9,10
 107 270 107 270 92.091796875 434.0859375 c 0,11,12
 66 717 66 717 548.54296875 807.703125 c 1,13,14
 535 875 535 875 540.2734375 900.880859375 c 0,15,16
 545 927 545 927 564.038085938 955.581054688 c 0,17,18
 583.52271096 984.783406894 583.52271096 984.783406894 637.514648438 1003.90820312 c 2,19,-1
 676.454101562 1017.70117188 l 1,20,-1
 791.331054688 481.647460938 l 2,21,22
 837.066881849 268.688579291 837.066881849 268.688579291 979.7578125 268.609375 c 2,23,-1
 1027.25976562 268.583007812 l 5,24,-1
 1027.25976562 -0.53125 l 5,25,-1
 1003.55273438 -0.53125 l 2,26,27
 788 -1 788 -1 683.931640625 210.793945312 c 1,7,8
EndSplineSet
EndChar

StartChar: uniFEEB
Encoding: 65259 65259 243
Width: 1116
VWidth: 2307
GlyphClass: 2
Flags: W
AnchorPoint: "Anchor-10" 560.85 1281.35 basechar 0
AnchorPoint: "Anchor-7" 374.015 -249.475 basechar 0
LayerCount: 2
Fore
SplineSet
678.3671875 569.986328125 m 1,0,1
 688 382 688 382 542.827148438 266.697265625 c 1,2,3
 768 205 768 205 827.955078125 271.450195312 c 0,4,5
 862 309 862 309 860 353 c 4,6,7
 855 453 855 453 678.3671875 569.986328125 c 1,0,1
321.133789062 789.758789062 m 1,8,9
 279.668379192 830.324424839 279.668379192 830.324424839 314.61328125 930.493164062 c 2,10,-1
 328.3046875 969.739257812 l 1,11,-1
 666.017578125 765.418945312 l 2,12,13
 1025.99980877 547.625417432 1025.99980877 547.625417432 1025.90332031 358.622070312 c 0,14,15
 1027 89 1027 89 847.03125 22.2021484375 c 0,16,17
 662 -47 662 -47 339.077148438 71.4345703125 c 1,18,19
 209.589243011 -0.671875 209.589243011 -0.671875 16.66796875 -0.671875 c 2,20,-1
 -10.923828125 -0.671875 l 1,21,-1
 -10.923828125 268.447265625 l 1,22,-1
 21.6611328125 268.447265625 l 2,23,24
 97 268 97 268 101.163085938 269.501953125 c 1,25,26
 80 322 80 322 78.0341796875 403.438476562 c 0,27,28
 72 638 72 638 227.954101562 745.865234375 c 0,29,30
 264 771 264 771 321.133789062 789.758789062 c 1,8,9
506.440429688 472.57421875 m 0,31,32
 570 589 570 589 487.63671875 643.6484375 c 0,33,34
 386 711 386 711 293.467773438 598.321289062 c 0,35,36
 248.213901948 543.47131049 248.213901948 543.47131049 241.052734375 462.336914062 c 0,37,38
 229 323 229 323 297.7421875 305.115234375 c 1,39,40
 419 312 419 312 506.440429688 472.57421875 c 0,31,32
EndSplineSet
EndChar

StartChar: uniFEEC
Encoding: 65260 65260 244
Width: 979
VWidth: 2325
GlyphClass: 2
Flags: W
AnchorPoint: "Anchor-7" 261.672 -720.967 basechar 0
AnchorPoint: "Anchor-10" 409.944 1161.58 basechar 0
LayerCount: 2
Fore
SplineSet
314.825195312 269.91796875 m 1,0,-1
 337.452148438 271.104492188 l 2,1,2
 413.245413144 280.59663165 413.245413144 280.59663165 458.765625 337.017578125 c 0,3,4
 512 403 512 403 513.498046875 495.973144531 c 128,-1,5
 514.99609375 588.946289062 514.99609375 588.946289062 497.038085938 616.0234375 c 128,-1,6
 479.080078125 643.100585938 479.080078125 643.100585938 443.383789062 643.431640625 c 0,7,8
 360.245117188 643.055664062 360.245117188 643.055664062 330.870117188 495.766601562 c 0,9,10
 309.015625 384.3359375 309.015625 384.3359375 314.825195312 269.91796875 c 1,0,-1
214.747070312 681.912109375 m 0,11,12
 296 869 296 869 444.681640625 868.005859375 c 0,13,14
 541 867 541 867 607.748046875 787.053710938 c 0,15,16
 674 707 674 707 673.842773438 530.629882812 c 0,17,18
 674 220 674 220 520.831054688 80.724609375 c 0,19,20
 439 7 439 7 330.286132812 0.423828125 c 1,21,22
 327 -168 327 -168 401.626953125 -299.094726562 c 1,23,24
 468 35 468 35 659.325195312 179.20703125 c 0,25,26
 775 266 775 266 924.560546875 269.159179688 c 1,27,-1
 989.540039062 268.234375 l 1,28,-1
 989.540039062 -0.546875 l 1,29,-1
 880.212890625 -1.1279296875 l 2,30,31
 609 -3 609 -3 533.186523438 -503.8359375 c 1,32,-1
 437.8203125 -558.85546875 l 1,33,-1
 428.37890625 -554.438476562 l 2,34,35
 202 -449 202 -449 168.727539062 -0.1279296875 c 1,36,-1
 -10.8330078125 -0.1279296875 l 5,37,-1
 -10.8330078125 268.985351562 l 5,38,-1
 164.956054688 269.046875 l 1,39,40
 159 552 159 552 214.747070312 681.912109375 c 0,11,12
EndSplineSet
EndChar

StartChar: uniFEEE
Encoding: 65262 65262 246
Width: 898
VWidth: 2327
GlyphClass: 2
Flags: W
AnchorPoint: "Anchor-10" 412.964 1138.46 basechar 0
AnchorPoint: "Anchor-7" 601.13 -635.167 basechar 0
LayerCount: 2
Fore
SplineSet
669.975585938 255.266601562 m 5,0,1
 656.995117188 534.720703125 656.995117188 534.720703125 525.69921875 532.65625 c 4,2,3
 428.439453125 531.211914062 428.439453125 531.211914062 389.39453125 376.1171875 c 4,4,5
 372.205078125 307.833007812 372.205078125 307.833007812 411.733398438 281.3515625 c 132,-1,6
 451.26171875 254.87109375 451.26171875 254.87109375 503.0625 253.469726562 c 132,-1,7
 554.86328125 252.068359375 554.86328125 252.068359375 669.975585938 255.266601562 c 5,0,1
810.313476562 -0.044921875 m 5,8,9
 712 -421 712 -421 329.7734375 -434.985351562 c 4,10,11
 166.086914062 -440.997070312 166.086914062 -440.997070312 32.6416015625 -315.997070312 c 6,12,-1
 0.7021484375 -286.079101562 l 5,13,-1
 44.9111328125 -281.4375 l 6,14,15
 568 -226 568 -226 659.022460938 2.009765625 c 5,16,17
 592 2 592 2 524.6171875 0.84375 c 4,18,19
 352 -2 352 -2 275.928710938 122.580078125 c 4,20,21
 218 218 218 218 248.341796875 379.680664062 c 4,22,23
 289 598 289 598 391.508789062 679.620117188 c 4,24,25
 470 743 470 743 558.875 736.477539062 c 4,26,27
 648 730 648 730 719.185546875 655.137695312 c 4,28,29
 808 561 808 561 817.505859375 268.629882812 c 5,30,-1
 908.643554688 269.008789062 l 5,31,-1
 908.643554688 -0.044921875 l 5,32,-1
 810.313476562 -0.044921875 l 5,8,9
EndSplineSet
PairPos2: "'kern' Horizontal Kerning lookup 15-1" uniFB90 dx=-150 dy=0 dh=-150 dv=0 dx=0 dy=0 dh=0 dv=0
PairPos2: "'kern' Horizontal Kerning lookup 15-1" uniFB8E dx=-150 dy=0 dh=-150 dv=0 dx=0 dy=0 dh=0 dv=0
PairPos2: "'kern' Horizontal Kerning lookup 15-1" uni06A9 dx=-150 dy=0 dh=-150 dv=0 dx=0 dy=0 dh=0 dv=0
PairPos2: "'kern' Horizontal Kerning lookup 15-1" uni064A dx=-50 dy=0 dh=-50 dv=0 dx=0 dy=0 dh=0 dv=0
PairPos2: "'kern' Horizontal Kerning lookup 15-1" afii57414 dx=-50 dy=0 dh=-50 dv=0 dx=0 dy=0 dh=0 dv=0
PairPos2: "'kern' Horizontal Kerning lookup 15-1" uni0649 dx=-50 dy=0 dh=-50 dv=0 dx=0 dy=0 dh=0 dv=0
PairPos2: "'kern' Horizontal Kerning lookup 15-1" uni0648 dx=-50 dy=0 dh=-50 dv=0 dx=0 dy=0 dh=0 dv=0
PairPos2: "'kern' Horizontal Kerning lookup 15-1" afii57412 dx=-50 dy=0 dh=-50 dv=0 dx=0 dy=0 dh=0 dv=0
PairPos2: "'kern' Horizontal Kerning lookup 15-1" uniFEEB dx=-50 dy=0 dh=-50 dv=0 dx=0 dy=0 dh=0 dv=0
PairPos2: "'kern' Horizontal Kerning lookup 15-1" uni0647 dx=-50 dy=0 dh=-50 dv=0 dx=0 dy=0 dh=0 dv=0
PairPos2: "'kern' Horizontal Kerning lookup 15-1" uniFEE7 dx=-50 dy=0 dh=-50 dv=0 dx=0 dy=0 dh=0 dv=0
PairPos2: "'kern' Horizontal Kerning lookup 15-1" uni0646 dx=-50 dy=0 dh=-50 dv=0 dx=0 dy=0 dh=0 dv=0
PairPos2: "'kern' Horizontal Kerning lookup 15-1" uniFEE3 dx=-50 dy=0 dh=-50 dv=0 dx=0 dy=0 dh=0 dv=0
PairPos2: "'kern' Horizontal Kerning lookup 15-1" uni0645 dx=-50 dy=0 dh=-50 dv=0 dx=0 dy=0 dh=0 dv=0
PairPos2: "'kern' Horizontal Kerning lookup 15-1" uniFEFB dx=-50 dy=0 dh=-50 dv=0 dx=0 dy=0 dh=0 dv=0
PairPos2: "'kern' Horizontal Kerning lookup 15-1" uniFEDF dx=-50 dy=0 dh=-50 dv=0 dx=0 dy=0 dh=0 dv=0
PairPos2: "'kern' Horizontal Kerning lookup 15-1" uni0644 dx=-50 dy=0 dh=-50 dv=0 dx=0 dy=0 dh=0 dv=0
PairPos2: "'kern' Horizontal Kerning lookup 15-1" uniFEDB dx=-150 dy=0 dh=-150 dv=0 dx=0 dy=0 dh=0 dv=0
PairPos2: "'kern' Horizontal Kerning lookup 15-1" uni0643 dx=-50 dy=0 dh=-50 dv=0 dx=0 dy=0 dh=0 dv=0
PairPos2: "'kern' Horizontal Kerning lookup 15-1" uniFED7 dx=-50 dy=0 dh=-50 dv=0 dx=0 dy=0 dh=0 dv=0
PairPos2: "'kern' Horizontal Kerning lookup 15-1" uni0642 dx=-50 dy=0 dh=-50 dv=0 dx=0 dy=0 dh=0 dv=0
PairPos2: "'kern' Horizontal Kerning lookup 15-1" uniFED3 dx=-50 dy=0 dh=-50 dv=0 dx=0 dy=0 dh=0 dv=0
PairPos2: "'kern' Horizontal Kerning lookup 15-1" uni0641 dx=-50 dy=0 dh=-50 dv=0 dx=0 dy=0 dh=0 dv=0
PairPos2: "'kern' Horizontal Kerning lookup 15-1" uniFECF dx=-50 dy=0 dh=-50 dv=0 dx=0 dy=0 dh=0 dv=0
PairPos2: "'kern' Horizontal Kerning lookup 15-1" uniFECB dx=-50 dy=0 dh=-50 dv=0 dx=0 dy=0 dh=0 dv=0
PairPos2: "'kern' Horizontal Kerning lookup 15-1" uniFEC7 dx=-50 dy=0 dh=-50 dv=0 dx=0 dy=0 dh=0 dv=0
PairPos2: "'kern' Horizontal Kerning lookup 15-1" uni0638 dx=-50 dy=0 dh=-50 dv=0 dx=0 dy=0 dh=0 dv=0
PairPos2: "'kern' Horizontal Kerning lookup 15-1" uniFEC3 dx=-50 dy=0 dh=-50 dv=0 dx=0 dy=0 dh=0 dv=0
PairPos2: "'kern' Horizontal Kerning lookup 15-1" uni0637 dx=-50 dy=0 dh=-50 dv=0 dx=0 dy=0 dh=0 dv=0
PairPos2: "'kern' Horizontal Kerning lookup 15-1" uniFEBF dx=-50 dy=0 dh=-50 dv=0 dx=0 dy=0 dh=0 dv=0
PairPos2: "'kern' Horizontal Kerning lookup 15-1" uni0636 dx=-50 dy=0 dh=-50 dv=0 dx=0 dy=0 dh=0 dv=0
PairPos2: "'kern' Horizontal Kerning lookup 15-1" uniFEBB dx=-50 dy=0 dh=-50 dv=0 dx=0 dy=0 dh=0 dv=0
PairPos2: "'kern' Horizontal Kerning lookup 15-1" uni0635 dx=-50 dy=0 dh=-50 dv=0 dx=0 dy=0 dh=0 dv=0
PairPos2: "'kern' Horizontal Kerning lookup 15-1" uniFEB7 dx=-50 dy=0 dh=-50 dv=0 dx=0 dy=0 dh=0 dv=0
PairPos2: "'kern' Horizontal Kerning lookup 15-1" uni0634 dx=-50 dy=0 dh=-50 dv=0 dx=0 dy=0 dh=0 dv=0
PairPos2: "'kern' Horizontal Kerning lookup 15-1" uniFEB3 dx=-50 dy=0 dh=-50 dv=0 dx=0 dy=0 dh=0 dv=0
PairPos2: "'kern' Horizontal Kerning lookup 15-1" uni0633 dx=-50 dy=0 dh=-50 dv=0 dx=0 dy=0 dh=0 dv=0
PairPos2: "'kern' Horizontal Kerning lookup 15-1" uni0632 dx=-50 dy=0 dh=-50 dv=0 dx=0 dy=0 dh=0 dv=0
PairPos2: "'kern' Horizontal Kerning lookup 15-1" uni0631 dx=-50 dy=0 dh=-50 dv=0 dx=0 dy=0 dh=0 dv=0
PairPos2: "'kern' Horizontal Kerning lookup 15-1" uni0630 dx=-50 dy=0 dh=-50 dv=0 dx=0 dy=0 dh=0 dv=0
PairPos2: "'kern' Horizontal Kerning lookup 15-1" uni062F dx=-50 dy=0 dh=-50 dv=0 dx=0 dy=0 dh=0 dv=0
PairPos2: "'kern' Horizontal Kerning lookup 15-1" uniFEA7 dx=-50 dy=0 dh=-50 dv=0 dx=0 dy=0 dh=0 dv=0
PairPos2: "'kern' Horizontal Kerning lookup 15-1" uniFEA3 dx=-50 dy=0 dh=-50 dv=0 dx=0 dy=0 dh=0 dv=0
PairPos2: "'kern' Horizontal Kerning lookup 15-1" uniFE9F dx=-50 dy=0 dh=-50 dv=0 dx=0 dy=0 dh=0 dv=0
PairPos2: "'kern' Horizontal Kerning lookup 15-1" uniFE9B dx=-50 dy=0 dh=-50 dv=0 dx=0 dy=0 dh=0 dv=0
PairPos2: "'kern' Horizontal Kerning lookup 15-1" uni062B dx=-50 dy=0 dh=-50 dv=0 dx=0 dy=0 dh=0 dv=0
PairPos2: "'kern' Horizontal Kerning lookup 15-1" uniFE97 dx=-50 dy=0 dh=-50 dv=0 dx=0 dy=0 dh=0 dv=0
PairPos2: "'kern' Horizontal Kerning lookup 15-1" uni062A dx=-50 dy=0 dh=-50 dv=0 dx=0 dy=0 dh=0 dv=0
PairPos2: "'kern' Horizontal Kerning lookup 15-1" uni0629 dx=-50 dy=0 dh=-50 dv=0 dx=0 dy=0 dh=0 dv=0
PairPos2: "'kern' Horizontal Kerning lookup 15-1" uniFE91 dx=-50 dy=0 dh=-50 dv=0 dx=0 dy=0 dh=0 dv=0
PairPos2: "'kern' Horizontal Kerning lookup 15-1" uni0628 dx=-50 dy=0 dh=-50 dv=0 dx=0 dy=0 dh=0 dv=0
PairPos2: "'kern' Horizontal Kerning lookup 15-1" uni0627 dx=-50 dy=0 dh=-50 dv=0 dx=0 dy=0 dh=0 dv=0
PairPos2: "'kern' Horizontal Kerning lookup 15-1" uni0623 dx=-50 dy=0 dh=-50 dv=0 dx=0 dy=0 dh=0 dv=0
PairPos2: "'kern' Horizontal Kerning lookup 15-1" uni0622 dx=-100 dy=0 dh=-100 dv=0 dx=0 dy=0 dh=0 dv=0
PairPos2: "'kern' Horizontal Kerning lookup 15-1" uni0621 dx=-50 dy=0 dh=-50 dv=0 dx=0 dy=0 dh=0 dv=0
PairPos2: "'kern' Horizontal Kerning lookup 15-1" uniFB94 dx=-150 dy=0 dh=-150 dv=0 dx=0 dy=0 dh=0 dv=0
PairPos2: "'kern' Horizontal Kerning lookup 15-1" uniFB92 dx=-150 dy=0 dh=-150 dv=0 dx=0 dy=0 dh=0 dv=0
PairPos2: "'kern' Horizontal Kerning lookup 15-1" afii57509 dx=-150 dy=0 dh=-150 dv=0 dx=0 dy=0 dh=0 dv=0
PairPos2: "'kern' Horizontal Kerning lookup 15-1" afii57508 dx=-50 dy=0 dh=-50 dv=0 dx=0 dy=0 dh=0 dv=0
PairPos2: "'kern' Horizontal Kerning lookup 15-1" uniFB7C dx=-50 dy=0 dh=-50 dv=0 dx=0 dy=0 dh=0 dv=0
PairPos2: "'kern' Horizontal Kerning lookup 15-1" afii57506 dx=-50 dy=0 dh=-50 dv=0 dx=0 dy=0 dh=0 dv=0
PairPos2: "'kern' Horizontal Kerning lookup 15-1" uniFE8B dx=-50 dy=0 dh=-50 dv=0 dx=0 dy=0 dh=0 dv=0
EndChar

StartChar: uniFEF0
Encoding: 65264 65264 248
Width: 1428
VWidth: 2341
GlyphClass: 2
Flags: W
AnchorPoint: "Anchor-10" 619.673 520.833 basechar 0
AnchorPoint: "Anchor-7" 211.215 -752.634 basechar 0
LayerCount: 2
Fore
SplineSet
1046 0 m 1,0,1
 1049 -40 1049 -40 1193.96484375 -51.271484375 c 0,2,3
 1341 -62 1341 -62 1363.62109375 -167.841796875 c 0,4,5
 1376 -228 1376 -228 1338.08886719 -303.104492188 c 0,6,7
 1240 -495 1240 -495 954.680664062 -571.158203125 c 0,8,9
 805 -611 805 -611 596.308721257 -608.787891405 c 0,10,11
 387 -607 387 -607 250.131835938 -520.168945312 c 0,12,13
 113 -434 113 -434 78.4052734375 -264.0078125 c 0,14,15
 29 -25 29 -25 149.220703125 208.159179688 c 0,16,17
 186 280 186 280 216.662109375 314.616210938 c 0,18,19
 247 349 247 349 272.6875 343.312011719 c 0,20,21
 336 329 336 329 305.998046875 260.982421875 c 0,22,23
 166 -54 166 -54 294.192382812 -215.671875 c 0,24,25
 396 -343 396 -343 666.12890625 -349.647460938 c 0,26,27
 837 -354 837 -354 1018 -309 c 0,28,29
 1177 -269 1177 -269 1199 -233 c 0,30,31
 1206 -221 1206 -221 1178.47020846 -212.693550126 c 0,32,33
 1158 -206 1158 -206 1084.87402344 -195.978515625 c 0,34,35
 882 -170 882 -170 873.325195312 -34.033203125 c 0,36,37
 860 178 860 178 1025.8515625 243.567382812 c 0,38,39
 1093.09968997 270.039242413 1093.09968997 270.039242413 1288.41113281 270.032226562 c 2,40,-1
 1424.34179688 270.02734375 l 6,41,42
 1432 269 1432 269 1438.91015625 268.461914062 c 5,43,-1
 1438.91015625 1.0078125 l 5,44,-1
 1409.83789062 0.3212890625 l 6,45,46
 1242 -4 1242 -4 1150 20 c 0,47,48
 1043 47 1043 47 1046 0 c 1,0,1
EndSplineSet
EndChar

StartChar: uniFEFB
Encoding: 65275 65275 259
Width: 1089
VWidth: 2287
GlyphClass: 3
Flags: W
AnchorPoint: "Anchor-9" 877.258 1544.49 baselig 0
AnchorPoint: "Anchor-6" 841.378 -194.319 baselig 0
AnchorPoint: "Anchor-6" 234.937 -222.691 baselig 1
AnchorPoint: "Anchor-9" 199.146 1436.52 baselig 1
LayerCount: 2
Fore
SplineSet
627.087890625 293.297851562 m 1,0,1
 718 317 718 317 761.107421875 381.1171875 c 0,2,3
 816.305664062 464.461914062 816.305664062 464.461914062 806.651367188 581.981445312 c 2,4,-1
 761.4453125 1132.25976562 l 2,5,6
 741.03125 1375.63085938 741.03125 1375.63085938 914.89453125 1451.63476562 c 2,7,-1
 958.577148438 1470.73046875 l 1,8,-1
 958.577148438 569.782226562 l 2,9,10
 958.99609375 317.6328125 958.99609375 317.6328125 857.04296875 183.814453125 c 0,11,12
 716.900390625 -0.130859375 716.900390625 -0.130859375 473.21875 -0.130859375 c 2,13,-1
 402.466796875 -0.130859375 l 2,14,15
 97.91015625 0 97.91015625 0 99.3212890625 212.1328125 c 2,16,-1
 99.6220703125 257.360351562 l 1,17,-1
 120.859375 255.892578125 l 2,18,19
 407 236 407 236 501.624023438 256.522460938 c 1,20,21
 439 475 439 475 151.958007812 901.573242188 c 0,22,23
 -25.107421875 1164.15917969 -25.107421875 1164.15917969 128.407226562 1283.8359375 c 2,24,-1
 163.615234375 1311.28320312 l 1,25,-1
 175.32421875 1292.25292969 l 2,26,27
 542 696 542 696 627.087890625 293.297851562 c 1,0,1
EndSplineSet
LCarets2: 1 0
Ligature2: "'rlig' Required Ligatures in Arabic lookup 16 subtable" uniFEDF uniFE8E
EndChar

StartChar: uniFEFC
Encoding: 65276 65276 260
Width: 1285
VWidth: 2287
GlyphClass: 3
Flags: W
AnchorPoint: "Anchor-9" 910.932 1501.02 baselig 0
AnchorPoint: "Anchor-6" 896.991 -213.368 baselig 0
AnchorPoint: "Anchor-6" 253.16 -240.078 baselig 1
AnchorPoint: "Anchor-9" 61.5303 1371.55 baselig 1
LayerCount: 2
Fore
SplineSet
790.834960938 173.995117188 m 4,0,1
 631 -2 631 -2 329.189453125 -0.587890625 c 4,2,3
 89.392578125 0.9970703125 89.392578125 0.9970703125 93.3583984375 217 c 6,4,-1
 94.1083984375 257.846679688 l 5,5,-1
 114.921875 256.596679688 l 6,6,7
 394 240 394 240 508.513671875 275.85546875 c 5,8,9
 443 502 443 502 158.431640625 923.797851562 c 4,10,11
 -19.05078125 1186.07519531 -19.05078125 1186.07519531 134.872070312 1306.07324219 c 6,12,-1
 170.061523438 1333.50683594 l 5,13,-1
 181.778320312 1314.5078125 l 6,14,15
 545 725 545 725 630.286132812 334.63671875 c 5,16,17
 879.028320312 482.016601562 879.028320312 482.016601562 838.18359375 881.314453125 c 6,18,-1
 812.956054688 1127.9375 l 6,19,20
 787.955078125 1372.44238281 787.955078125 1372.44238281 955.01953125 1446.984375 c 6,21,-1
 1006.65722656 1470.02441406 l 5,22,-1
 1006.65722656 739.348632812 l 6,23,24
 1007 533 1007 533 1047.33691406 400.418945312 c 4,25,26
 1087.86914062 268.424804688 1087.86914062 268.424804688 1240.49023438 268.424804688 c 6,27,-1
 1295.63964844 268.424804688 l 5,28,-1
 1295.63964844 -0.7119140625 l 5,29,-1
 1212.57714844 0.0009765625 l 6,30,31
 974 2 974 2 889.721679688 319.958007812 c 5,32,33
 854 244 854 244 790.834960938 173.995117188 c 4,0,1
EndSplineSet
LCarets2: 1 0
Ligature2: "'rlig' Required Ligatures in Arabic lookup 16 subtable" uniFEE0 uniFE8E
EndChar

StartChar: arabic_dot
Encoding: 65536 -1 261
Width: 150
GlyphClass: 2
Flags: W
LayerCount: 2
Fore
SplineSet
101.573382414 183.766321022 m 6,0,-1
 180.249458576 105.090144858 l 2,1,2
 202.848097883 82.4921155005 202.848097883 82.4921155005 180.724000123 60.3843965636 c 2,3,-1
 98.1964914157 -22.143512527 l 2,4,5
 74.1079102741 -45.3008279558 74.1079102741 -45.3008279558 50.7268986161 -22.0669020517 c 2,6,-1
 -31.1487455258 59.8087420902 l 2,7,8
 -54.490645951 81.8491732546 -54.490645951 81.8491732546 -28.2499739938 108.090129442 c 2,9,-1
 48.242009602 184.581713163 l 2,10,11
 74.383067615 210.959479698 74.383067615 210.959479698 101.573382414 183.766321022 c 6,0,-1
EndSplineSet
EndChar

StartChar: arabic_2dots
Encoding: 65537 -1 262
Width: 452
GlyphClass: 2
Flags: W
LayerCount: 2
Fore
SplineSet
370.749601718 183.590601718 m 6,0,-1
 449.250816449 105.089386982 l 2,1,2
 471.948007475 82.391276918 471.948007475 82.391276918 449.723535902 60.3842324342 c 2,3,-1
 367.750052705 -21.5893507116 l 2,4,5
 343.396460167 -45.9450143847 343.396460167 -45.9450143847 319.72707557 -22.0663791474 c 2,6,-1
 237.851418934 59.8087785568 l 2,7,8
 214.509589354 81.8495769957 214.509589354 81.8495769957 240.750363628 108.090067063 c 2,9,-1
 317.242416449 184.582619728 l 2,10,11
 343.381346562 210.958856873 343.381346562 210.958856873 370.749601718 183.590601718 c 6,0,-1
133.749594957 183.589608479 m 2,13,-1
 212.24981642 105.089587011 l 2,14,15
 234.83968384 82.4988050216 234.83968384 82.4988050216 212.749659925 60.4103564897 c 2,16,-1
 130.74989308 -21.5903103083 l 2,17,18
 106.499184352 -45.8377789322 106.499184352 -45.8377789322 82.7501982822 -22.0897017178 c 2,19,-1
 0.215834104395 60.44466246 l 2,20,21
 -20.9127809819 82.6417268474 -20.9127809819 82.6417268474 3.21409186828 107.553895745 c 2,22,-1
 80.8341811599 185.17358156 l 2,23,24
 107.026116499 210.313086936 107.026116499 210.313086936 133.749594957 183.589608479 c 2,13,-1
EndSplineSet
EndChar

StartChar: arabic_3dots
Encoding: 65538 -1 263
Width: 455
GlyphClass: 2
Flags: W
LayerCount: 2
Fore
SplineSet
252.915245158 364.750959179 m 6,0,-1
 332.16488595 285.500317437 l 6,1,2
 354.86451455 262.803752215 354.86451455 262.803752215 332.639758066 240.79455463 c 6,3,-1
 250.666245967 158.821042571 l 6,4,5
 226.312396938 134.464234746 226.312396938 134.464234746 202.642990192 158.343806087 c 6,6,-1
 120.767353978 240.218444438 l 6,7,8
 97.4246765846 262.260722494 97.4246765846 262.260722494 123.666398282 288.499601718 c 6,9,-1
 200.165820754 364.999024158 l 6,10,11
 226.058341943 390.894365269 226.058341943 390.894365269 252.915245158 364.750959179 c 6,0,-1
374.749867248 171.589336189 m 2,12,-1
 453.249601718 93.0898017178 l 2,13,14
 475.839353436 70.50005 475.839353436 70.50005 453.74959525 48.4102918148 c 2,15,-1
 371.749537294 -33.589666141 l 2,16,17
 347.499954195 -57.8389546635 347.499954195 -57.8389546635 323.750398282 -34.0897017178 c 2,18,-1
 241.750628734 47.910067835 l 2,19,20
 223.319530765 66.340364917 223.319530765 66.340364917 230.813286943 77.9934604148 c 128,-1,21
 238.307043121 89.6465559127 238.307043121 89.6465559127 244.75033589 96.0896393254 c 2,22,-1
 321.249986345 172.590189748 l 2,23,24
 347.502354439 198.839647057 347.502354439 198.839647057 374.749867248 171.589336189 c 2,12,-1
133.749867248 171.589336189 m 2,25,-1
 212.24981642 93.0895870114 l 2,26,27
 234.839211273 70.4992776079 234.839211273 70.4992776079 212.749659925 48.4103564897 c 2,28,-1
 130.74989308 -33.5903103083 l 2,29,30
 106.499184352 -57.8377789322 106.499184352 -57.8377789322 82.7501982822 -34.0897017178 c 2,31,-1
 0.215834104395 48.44466246 l 2,32,33
 -17.3321675223 66.8800459619 -17.3321675223 66.8800459619 -10.0126945813 78.2631220037 c 128,-1,34
 -2.69322164021 89.6461980454 -2.69322164021 89.6461980454 3.75020521463 96.0897086502 c 2,35,-1
 80.25025709 172.589660525 l 2,36,37
 106.501444625 198.840556966 106.501444625 198.840556966 133.749867248 171.589336189 c 2,25,-1
EndSplineSet
EndChar

StartChar: arabic_3dots_a
Encoding: 65539 -1 264
Width: 454
GlyphClass: 2
Flags: W
LayerCount: 2
Fore
SplineSet
247.628680814 1.82400242359 m 2,0,-1
 326.501460564 -77.0485571975 l 2,1,2
 349.194901381 -99.7456735616 349.194901381 -99.7456735616 326.97513629 -121.753067145 c 2,3,-1
 245.000601718 -203.727601718 l 2,4,5
 220.646450701 -228.081752734 220.646450701 -228.081752734 196.976299208 -204.204502643 c 2,6,-1
 115.100935571 -122.329139007 l 2,7,8
 96.1601726375 -104.440946838 96.1601726375 -104.440946838 103.858071501 -92.4665251408 c 128,-1,9
 111.555970364 -80.4921034432 111.555970364 -80.4921034432 117.999488095 -74.0476084703 c 2,10,-1
 194.899881494 2.8514826194 l 2,11,12
 221.056039705 27.6953542218 221.056039705 27.6953542218 247.628680814 1.82400242359 c 2,0,-1
373.610601718 191.729601718 m 2,13,-1
 452.250458557 113.089744877 l 2,14,15
 474.839447721 90.5013654838 474.839447721 90.5013654838 452.750601718 68.4099982822 c 2,16,-1
 370.123937643 -14.2166657928 l 2,17,18
 346.510457441 -36.8442115724 346.510457441 -36.8442115724 323.356743683 -14.6973604432 c 2,19,-1
 240.699707842 67.9614887315 l 2,20,21
 218.159838759 90.5000421942 218.159838759 90.5000421942 243.749398282 116.089601718 c 2,22,-1
 320.265398282 192.605601718 l 2,23,24
 346.5 218.840203436 346.5 218.840203436 373.610601718 191.729601718 c 2,13,-1
133.750601718 191.589601718 m 2,25,-1
 212.250458557 113.089744877 l 2,26,27
 234.839447721 90.5013654838 234.839447721 90.5013654838 212.750601718 68.4099982822 c 2,28,-1
 130.750215159 -13.5903882628 l 2,29,30
 106.498861733 -37.8399740967 106.498861733 -37.8399740967 82.7497918188 -14.0899952544 c 2,31,-1
 0.69917568542 67.9607208795 l 2,32,33
 -21.8406445654 90.5002121587 -21.8406445654 90.5002121587 3.74977748927 116.089580925 c 2,34,-1
 80.2654393696 192.605542805 l 2,35,36
 106.499904284 218.840299152 106.499904284 218.840299152 133.750601718 191.589601718 c 2,25,-1
EndSplineSet
EndChar

StartChar: uni066E.fina
Encoding: 65540 -1 265
Width: 1931
VWidth: 2308
GlyphClass: 2
Flags: WO
AnchorPoint: "Anchor-10" 716.344 1123.48 basechar 0
AnchorPoint: "Anchor-7" 716.344 -190.389 basechar 0
LayerCount: 2
Fore
SplineSet
1901.93261719 -0.1181640625 m 2,0,1
 1624.01907286 -0.1181640625 1624.01907286 -0.1181640625 1592.77441406 193.455078125 c 1,2,3
 1435 12 1435 12 948.07421875 -0.6416015625 c 0,4,5
 777 -5 777 -5 635.776367188 3.78515625 c 0,6,7
 396 18 396 18 277.25390625 93.1318359375 c 0,8,9
 89 212 89 212 91.0009765625 472.169921875 c 0,10,11
 92 594 92 594 128.631835938 679.913085938 c 0,12,13
 155 740 155 740 201 734 c 128,-1,14
 247 728 247 728 227.874023438 632.366210938 c 0,15,16
 198 482 198 482 282.106445312 397.62109375 c 0,17,18
 407 272 407 272 919.165039062 268.413085938 c 0,19,20
 1504 265 1504 265 1560.140625 451.369140625 c 0,21,22
 1597.99156214 576.972000193 1597.99156214 576.972000193 1685.94238281 573.397460938 c 2,23,-1
 1735.0078125 571.403320312 l 1,24,-1
 1729.14941406 547.62890625 l 2,25,26
 1706 454 1706 454 1706 420.5 c 0,27,28
 1706 268.89453125 1706 268.89453125 1888.16992188 268.89453125 c 2,29,-1
 1941.24023438 268.89453125 l 1,30,-1
 1941.24023438 -0.1181640625 l 1,31,-1
 1901.93261719 -0.1181640625 l 2,0,1
EndSplineSet
EndChar

StartChar: uni06A1.fina
Encoding: 65543 -1 268
Width: 1941
VWidth: 2308
GlyphClass: 2
Flags: W
AnchorPoint: "Anchor-10" 524.221 1232.58 basechar 0
AnchorPoint: "Anchor-7" 637.641 -241.885 basechar 0
LayerCount: 2
Fore
SplineSet
1302.87695312 539.362304688 m 132,-1,1
 1302.87695312 473.611328125 1302.87695312 473.611328125 1347.88671875 427.112304688 c 132,-1,2
 1392.79492188 380.719726562 1392.79492188 380.719726562 1456.20507812 380.719726562 c 132,-1,3
 1519.61425781 380.719726562 1519.61425781 380.719726562 1564.52148438 427.112304688 c 132,-1,4
 1609.52929688 473.609375 1609.52929688 473.609375 1609.52929688 539.362304688 c 132,-1,5
 1609.52929688 605.10546875 1609.52929688 605.10546875 1564.52148438 651.60546875 c 132,-1,6
 1519.61230469 697.998046875 1519.61230469 697.998046875 1456.20507812 697.998046875 c 132,-1,7
 1392.796875 697.998046875 1392.796875 697.998046875 1347.88671875 651.604492188 c 132,-1,0
 1302.87695312 605.110351562 1302.87695312 605.110351562 1302.87695312 539.362304688 c 132,-1,1
944.696289062 -0.650390625 m 5,8,9
 718 1 718 1 633.393554688 3.7578125 c 4,10,11
 404 10 404 10 274.204101562 93.1640625 c 4,12,13
 56 233 56 233 92.5595703125 548.995117188 c 4,14,15
 108 681 108 681 154.395507812 722.112304688 c 4,16,17
 171 737 171 737 189.01953125 735.028320312 c 132,-1,18
 207 733 207 733 214.62890625 726.274414062 c 4,19,20
 239 706 239 706 225.678710938 644.633789062 c 4,21,22
 196 510 196 510 253.788085938 427.489257812 c 4,23,24
 331 317 331 317 567.5 283.528320312 c 4,25,26
 661 270 661 270 978.219726562 268.172851562 c 5,27,-1
 1020.54101562 268.598632812 l 6,28,29
 1210 271 1210 271 1282.98144531 276.346679688 c 5,30,31
 1181 341 1181 341 1149.75976562 464.564453125 c 4,32,33
 1127 553 1127 553 1150.5390625 649.849609375 c 4,34,35
 1187 805 1187 805 1324.87988281 866.97265625 c 4,36,37
 1430 914 1430 914 1542.51855469 885.946289062 c 4,38,39
 1672 854 1672 854 1733.70605469 733.948242188 c 4,40,41
 1796 614 1796 614 1753.3359375 454.389648438 c 4,42,43
 1726 353 1726 353 1614.16210938 274.891601562 c 5,44,45
 1796.57519531 266.931640625 1796.57519531 266.931640625 1910.49316406 268.598632812 c 6,46,-1
 1951.86035156 269.204101562 l 5,47,-1
 1951.86035156 0.08984375 l 5,48,-1
 1836.18847656 -0.51953125 l 6,49,50
 1586 -2 1586 -2 1448.4296875 90.658203125 c 5,51,52
 1310.71191406 6.8251953125 1310.71191406 6.8251953125 1098.18847656 2.484375 c 6,53,-1
 944.696289062 -0.650390625 l 5,8,9
EndSplineSet
EndChar

StartChar: uni06A1.init
Encoding: 65544 -1 269
Width: 716
VWidth: 2327
GlyphClass: 2
Flags: W
AnchorPoint: "Anchor-10" 435.699 1240 basechar 0
AnchorPoint: "Anchor-7" 340.299 -188.172 basechar 0
LayerCount: 2
Fore
SplineSet
312.275390625 886.831054688 m 0,0,1
 280.095703125 884.06640625 280.095703125 884.06640625 255.674804688 866.0546875 c 128,-1,2
 231.252929688 848.04296875 231.252929688 848.04296875 213.122070312 810.946289062 c 128,-1,3
 194.990234375 773.849609375 194.990234375 773.849609375 185.01171875 717.6015625 c 0,4,5
 182.8984375 705.686523438 182.8984375 705.686523438 182.87890625 695.154296875 c 0,6,7
 182.709960938 604 182.709960938 604 358.772460938 604 c 0,8,9
 368.010742188 604.2109375 368.010742188 604.2109375 380.525390625 605.168945312 c 128,-1,10
 393.040039062 606.126953125 393.040039062 606.126953125 408.536132812 607.805664062 c 128,-1,11
 424.032226562 609.485351562 424.032226562 609.485351562 442.666992188 611.927734375 c 128,-1,12
 461.301757812 614.370117188 461.301757812 614.370117188 482.361328125 617.4921875 c 1,13,14
 467.098632812 756.765625 467.098632812 756.765625 432.258789062 823.754882812 c 0,15,16
 395.458984375 893.940429688 395.458984375 893.940429688 312.275390625 886.831054688 c 0,0,1
568.433105469 219.634765625 m 0,17,18
 519 111 519 111 427.778320312 59.4013671875 c 0,19,20
 321.050065016 -0.9716796875 321.050065016 -0.9716796875 178.861328125 -0.9716796875 c 2,21,-1
 -10.1064453125 -0.9716796875 l 1,22,-1
 -10.1064453125 268.146484375 l 1,23,-1
 185.787109375 268.147460938 l 2,24,25
 449 268 449 268 475.850585938 360.123046875 c 1,26,27
 438 353 438 353 384.03125 347.103515625 c 0,28,29
 167 325 167 325 74.5595703125 454.407226562 c 0,30,31
 15 538 15 538 35.20703125 708.948242188 c 0,32,33
 60 919 60 919 167.826171875 1020.0546875 c 0,34,35
 240 1088 240 1088 333.868164062 1089.3828125 c 0,36,37
 435 1091 435 1091 495.850585938 1029.609375 c 0,38,39
 545 980 545 980 578.412109375 897.375 c 0,40,41
 613 811 613 811 624.412109375 697.385742188 c 0,42,43
 654 407 654 407 568.433105469 219.634765625 c 0,17,18
EndSplineSet
EndChar

